<?xml version="1.0" encoding="UTF-8" standalone="no"?>
<svg width="180px" height="195px" viewBox="0 0 180 195" version="1.1" xmlns="http://www.w3.org/2000/svg" xmlns:xlink="http://www.w3.org/1999/xlink" xmlns:sketch="http://www.bohemiancoding.com/sketch/ns">
    <!-- Generator: Sketch 3.3 (11970) - http://www.bohemiancoding.com/sketch -->
    <title>Imported Layers Copy 4 + Imported Layers Copy 3</title>
    <desc>Created with Sketch.</desc>
    <defs>
        <ellipse id="path-1" cx="90" cy="90.2045455" rx="90" ry="90.2045455"></ellipse>
        <path id="path-3" d="M15.0555556,119.982279 L15.0555556,110.453163 L11.5720721,109.639005 C5.13963964,108.135596 0.647147147,102.466585 0.647147147,95.847973 L0.647147147,15.9159705 C0.647147147,9.29735872 5.13963964,3.62533784 11.5720721,2.12343366 L14.8483483,1.35893735 L15.9894895,1.79235258 L16.53003,1.8585688 C18.7852853,2.13547297 20.957958,2.96016585 22.8153153,4.24536241 L23.2657658,4.55838452 L53.5795796,16.0800061 C57.7147147,17.6511364 62.0555556,18.4487408 66.478979,18.4487408 C70.9024024,18.4487408 75.2432432,17.6511364 79.3783784,16.0800061 L109.747748,4.53581081 L110.195195,4.22730344 C112.033033,2.96317568 114.186186,2.14450246 116.42042,1.86458845 L116.953453,1.79686732 L118.10961,1.35743243 L121.391892,2.117414 C127.837838,3.61179361 132.339339,9.28531941 132.339339,15.9159705 L132.339339,95.847973 C132.339339,102.478624 127.837838,108.150645 121.391892,109.645025 L117.902402,110.453163 L117.902402,119.982279 L15.0555556,119.982279 L15.0555556,119.982279 Z"></path>
        <path id="path-5" d="M0.160660661,67.9513821 C0.12012012,60.426812 0.0405405405,46.146683 0.0405405405,46.146683 C0.0405405405,27.5083231 10.1501502,10.254484 26.4234234,1.14222973 C26.6156156,1.03387592 26.7432432,1.01130221 26.8738739,1.01130221 C28.6921922,1.01130221 32.3918919,4.36124079 35.0930931,6.80522113 C39.7972973,11.0626229 45.1291291,15.8888821 51.463964,15.8888821 C57.984985,15.8888821 63.6306306,11.4704545 68.6141141,7.57272727 C71.8588589,5.03393735 75.536036,2.15654177 77.7117117,2.15654177 C78.0825826,2.15654177 78.3918919,2.24984644 78.7447447,2.47257371 C93.8618619,11.9746007 102.887387,28.3104423 102.887387,46.1707617 L102.887387,67.9513821 L0.160660661,67.9513821"></path>
        <path id="path-7" d="M0.160660661,67.9513821 C0.12012012,60.426812 0.0405405405,46.146683 0.0405405405,46.146683 C0.0405405405,27.5083231 10.1501502,10.254484 26.4234234,1.14222973 C26.6156156,1.03387592 26.7432432,1.01130221 26.8738739,1.01130221 C28.6921922,1.01130221 32.3918919,4.36124079 35.0930931,6.80522113 C39.7972973,11.0626229 45.1291291,15.8888821 51.463964,15.8888821 C57.984985,15.8888821 63.6306306,11.4704545 68.6141141,7.57272727 C71.8588589,5.03393735 75.536036,2.15654177 77.7117117,2.15654177 C78.0825826,2.15654177 78.3918919,2.24984644 78.7447447,2.47257371 C93.8618619,11.9746007 102.887387,28.3104423 102.887387,46.1707617 L102.887387,67.9513821 L0.160660661,67.9513821"></path>
    </defs>
    <g id="Web-App-0.8" stroke="none" stroke-width="1" fill="none" fill-rule="evenodd" sketch:type="MSPage">
        <g id="New-Copy" sketch:type="MSArtboardGroup" transform="translate(-630.000000, -346.000000)">
            <g id="Welcome" sketch:type="MSLayerGroup" transform="translate(522.000000, 345.000000)">
                <g id="Imported-Layers-Copy-4-+-Imported-Layers-Copy-3" transform="translate(108.000000, 0.000000)">
                    <g id="Imported-Layers-Copy-4" transform="translate(0.000000, 15.590909)">
                        <mask id="mask-2" sketch:name="Mask" fill="white">
                            <use xlink:href="#path-1"></use>
                        </mask>
                        <use id="Mask" fill="#F5A25B" sketch:type="MSShapeGroup" xlink:href="#path-1"></use>
                        <g id="Imported-Layers-Copy-2" mask="url(#mask-2)">
                            <g transform="translate(13.312312, -14.289926)">
                                <path d="M30.6891892,178.622021 C26.0870871,178.622021 22.3438438,174.868765 22.3438438,170.257709 L22.3438438,112.938544 L19.9894895,112.982187 L19.8228228,112.992721 C14.6231231,112.992721 10.3633634,108.721775 10.3633634,103.47414 C10.3633634,98.225 14.6231231,93.955559 19.8603604,93.955559 L20.048048,93.9660934 L22.3438438,94.0112408 L22.3438438,77.0914926 C22.3438438,72.4789312 26.0870871,68.7271806 30.6891892,68.7271806 L121.348348,68.7271806 C125.951952,68.7271806 129.695195,72.4789312 129.695195,77.0914926 L129.695195,93.9510442 L131.941441,93.9570639 C137.165165,93.9691032 141.414414,98.2385442 141.414414,103.47414 C141.414414,108.706726 137.165165,112.976167 131.941441,112.991216 L129.695195,112.997236 L129.695195,170.257709 C129.695195,174.868765 125.951952,178.622021 121.348348,178.622021 L30.6891892,178.622021" id="Fill-13" fill="#FCDE98" sketch:type="MSShapeGroup"></path>
                                <path d="M121.34985,70.9845516 C124.708709,70.9845516 127.442943,73.7234951 127.442943,77.0914926 L127.442943,96.2023956 L131.935435,96.2144349 C135.92042,96.2249693 139.162162,99.4816032 139.162162,103.47414 C139.162162,107.466677 135.92042,110.723311 131.935435,110.733845 L127.442943,110.74438 L127.442943,170.256204 C127.442943,173.624201 124.708709,176.36465 121.34985,176.36465 L30.6891892,176.36465 C27.3303303,176.36465 24.5960961,173.624201 24.5960961,170.256204 L24.5960961,110.633016 L20.003003,110.724816 L19.7582583,110.733845 C15.8093093,110.679668 12.6141141,107.444103 12.6141141,103.47414 C12.6141141,99.5041769 15.8093093,96.2686118 19.7567568,96.21293 L20.0075075,96.2234644 L24.5960961,96.3107494 L24.5960961,77.0914926 C24.5960961,73.7234951 27.3303303,70.9845516 30.6891892,70.9845516 L121.34985,70.9845516 M121.34985,66.4698096 L30.6891892,66.4698096 C24.8363363,66.4698096 20.0915916,71.2253378 20.0915916,77.0914926 L20.0915916,91.7102273 L19.8588589,91.698188 C13.3708709,91.698188 8.10960961,96.9699017 8.10960961,103.47414 C8.10960961,109.976873 13.3708709,115.250092 19.8588589,115.250092 L20.0915916,115.238053 L20.0915916,170.256204 C20.0915916,176.123864 24.8363363,180.879392 30.6891892,180.879392 L121.34985,180.879392 C127.202703,180.879392 131.947447,176.123864 131.947447,170.256204 L131.947447,115.248587 C138.421922,115.232033 143.666667,109.967844 143.666667,103.47414 C143.666667,96.9804361 138.421922,91.7162469 131.947447,91.6996929 L131.947447,77.0914926 C131.947447,71.2253378 127.202703,66.4698096 121.34985,66.4698096" id="Fill-14" fill="#A1855B" sketch:type="MSShapeGroup"></path>
                                <path d="M22.3138138,271.729545 L22.3138138,261.736916 L20.5735736,261.329085 C13.1141141,259.587899 7.90690691,253.01293 7.90690691,245.340878 L7.90690691,165.405866 C7.90690691,157.733814 13.1141141,151.158845 20.5735736,149.416155 L22.3138138,149.009828 L22.3138138,147.65691 L26.045045,149.074539 L26.3153153,149.109152 C28.9294294,149.429699 31.4504505,150.388329 33.6066066,151.879699 L33.8318318,152.03621 L63.8873874,163.460012 C67.7687688,164.936333 71.8408408,165.68277 75.990991,165.68277 C80.1396396,165.68277 84.2117117,164.936333 88.0915916,163.460012 L118.205706,152.013636 L118.429429,151.85863 C120.563063,150.389834 123.06006,149.441738 125.651652,149.116677 L125.917417,149.082064 L129.663664,147.658415 L129.663664,149.005313 L131.40991,149.40863 C138.882883,151.142291 144.103604,157.72027 144.103604,165.405866 L144.103604,245.340878 C144.103604,253.026474 138.882883,259.604453 131.40991,261.335104 L129.663664,261.741431 L129.663664,271.729545 L22.3138138,271.729545" id="Fill-15" fill="#CAA670" sketch:type="MSShapeGroup"></path>
                                <path d="M127.621622,150.848833 L130.902402,151.608814 C137.348348,153.103194 141.851351,158.77672 141.851351,165.407371 L141.851351,245.339373 C141.851351,251.970025 137.348348,257.64355 130.902402,259.136425 L127.412913,259.946069 L127.412913,269.473679 L24.5660661,269.473679 L24.5660661,259.944564 L21.0840841,259.130405 C14.6516517,257.628501 10.1576577,251.957985 10.1576577,245.339373 L10.1576577,165.407371 C10.1576577,158.788759 14.6516517,153.116738 21.0840841,151.614834 L24.3603604,150.850338 L24.990991,151.089619 L25.5,151.283753 L26.042042,151.349969 C28.2957958,151.626873 30.46997,152.451566 32.3258258,153.736763 L32.7762763,154.049785 L33.2882883,154.243919 L63.0900901,165.571407 C67.2267267,167.142537 71.5660661,167.940141 75.9894895,167.940141 C80.4129129,167.940141 84.7537538,167.142537 88.8888889,165.571407 L118.752252,154.21984 L119.25976,154.027211 L119.707207,153.718704 C121.542042,152.453071 123.695195,151.635903 125.929429,151.355989 L126.463964,151.288268 L126.966967,151.097144 L127.621622,150.848833 M131.917417,144.388237 L125.370871,146.87586 C122.346847,147.255098 119.548048,148.349171 117.154655,149.998557 L87.2927928,161.350123 C83.6516517,162.733139 79.8213213,163.425399 75.9894895,163.425399 C72.1591592,163.425399 68.3273273,162.733139 64.6861862,161.350123 L34.8858859,150.022635 C32.4714715,148.350676 29.6441441,147.243059 26.5885886,146.868335 L20.0615616,144.388237 L20.0615616,147.21898 C11.8093093,149.14527 5.65465465,156.547942 5.65465465,165.407371 L5.65465465,245.339373 C5.65465465,254.198802 11.8093093,261.599969 20.0615616,263.527764 L20.0615616,273.988421 L131.917417,273.988421 L131.917417,263.535289 C140.184685,261.619533 146.355856,254.209337 146.355856,245.339373 L146.355856,165.407371 C146.355856,156.537408 140.184685,149.127211 131.917417,147.209951 L131.917417,144.388237" id="Fill-16" fill="#A1855B" sketch:type="MSShapeGroup"></path>
                                <g id="Group-22" stroke-width="1" fill="none" sketch:type="MSLayerGroup" transform="translate(9.510511, 149.491400)">
                                    <mask id="mask-4" sketch:name="Clip 18" fill="white">
                                        <use xlink:href="#path-3"></use>
                                    </mask>
                                    <g id="Clip-18"></g>
                                </g>
                                <path d="M92.1051051,153.130283 L86.2972973,155.083661 C83.1561562,156.140111 79.8333333,157.204085 76.5855856,157.204085 C75.2507508,157.204085 73.9279279,157.025 72.6366366,156.59008 L66.8288288,156.141615 C66.527027,156.141615 66.2402402,156.140111 65.9714715,156.140111 C63.984985,156.140111 62.9954955,156.248464 64.2927928,158.06941 L67.2372372,162.197389 C70.0975976,163.016063 73.0435435,163.425399 75.9894895,163.425399 C79.8213213,163.425399 83.6516517,162.733139 87.2927928,161.350123 L94.1636637,158.737592 L94.6396396,158.06941 C96.1141141,156.001658 94.6396396,153.130283 92.1051051,153.130283" id="Fill-26" fill="#E8CB8B" sketch:type="MSShapeGroup"></path>
                                <path d="M89.4414414,165.360719 L88.8888889,165.571407 C84.7537538,167.142537 80.4129129,167.940141 75.9894895,167.940141 C74.3453453,167.940141 72.7117117,167.830283 71.0960961,167.610565 L74.7102102,172.68062 L74.7102102,261.121407 L79.466967,266.436763 L84.3438438,261.121407 L84.3438438,172.51207 L89.4414414,165.360719" id="Fill-27" fill="#BE9C6A" sketch:type="MSShapeGroup"></path>
                                <path d="M94.1636637,158.737592 L87.2927928,161.350123 C83.6516517,162.733139 79.8213213,163.425399 75.9894895,163.425399 C73.0435435,163.425399 70.0975976,163.016063 67.2372372,162.197389 L71.0960961,167.610565 C72.7117117,167.830283 74.3453453,167.940141 75.9894895,167.940141 C80.4129129,167.940141 84.7537538,167.142537 88.8888889,165.571407 L89.4414414,165.360719 L94.1636637,158.737592" id="Fill-28" fill="#9B8058" sketch:type="MSShapeGroup"></path>
                                <path d="M92.460961,157.428317 L78.7672673,176.635534 C77.4204204,178.525706 74.6186186,178.525706 73.2717718,176.635534 L59.5780781,157.428317 C57.9804805,155.1875 59.5780781,152.075338 62.3258258,152.075338 L68.6186186,154.192752 C73.4204204,155.809029 78.6186186,155.809029 83.4204204,154.192752 L89.7132132,152.075338 C92.460961,152.075338 94.0585586,155.1875 92.460961,157.428317" id="Fill-29" fill="#343433" sketch:type="MSShapeGroup"></path>
                                <path d="M21.3273273,148.595977 C20.1801802,148.173096 19.5165165,146.982709 19.7447447,145.790817 L22.1546547,139.16769 L62.506006,154.049785 L58.0630631,164.852058 L21.3273273,148.595977" id="Fill-30" fill="#A1855B" sketch:type="MSShapeGroup"></path>
                                <path d="M23.9444444,143.033814 L58.539039,155.79398 L56.4594595,160.851996 L22.8708709,145.983446 L23.9444444,143.033814 M20.3648649,135.298557 L16.8573574,144.942045 C16.1876877,147.661425 17.6651652,150.453041 20.2897898,151.4207 L59.6651652,168.852119 L66.46997,152.30559 L20.3648649,135.298557" id="Fill-31" fill="#A1855B" sketch:type="MSShapeGroup"></path>
                                <path d="M90.021021,153.960995 L130.127628,139.166186 L132.537538,145.790817 C132.765766,146.982709 132.102102,148.173096 130.954955,148.595977 L95.0795796,163.919011 L90.021021,153.960995" id="Fill-32" fill="#A1855B" sketch:type="MSShapeGroup"></path>
                                <path d="M128.337838,143.033814 L129.40991,145.980436 L96.4834835,160.046867 L94.2312312,155.613391 L128.337838,143.033814 M131.917417,135.298557 L85.8108108,152.30559 L93.6771772,167.78965 L131.992492,151.4207 C134.617117,150.453041 136.094595,147.661425 135.424925,144.942045 L131.917417,135.298557" id="Fill-33" fill="#A1855B" sketch:type="MSShapeGroup"></path>
                                <path d="M80.8363363,260.058937 L75.9594595,265.372789 L71.2027027,260.058937 L71.2027027,168.537592 L80.8363363,168.537592 L80.8363363,260.058937" id="Fill-36" fill="#343433" sketch:type="MSShapeGroup"></path>
                                <path d="M105.40991,101.383814 C105.40991,103.844349 103.418919,105.839865 100.962462,105.839865 C98.506006,105.839865 96.515015,103.844349 96.515015,101.383814 C96.515015,98.9217752 98.506006,96.9262592 100.962462,96.9262592 C103.418919,96.9262592 105.40991,98.9217752 105.40991,101.383814" id="Fill-37" fill="#1A1918" sketch:type="MSShapeGroup"></path>
                                <path d="M55.8603604,101.383814 C55.8603604,103.844349 53.8708709,105.839865 51.4144144,105.839865 C48.957958,105.839865 46.966967,103.844349 46.966967,101.383814 C46.966967,98.9217752 48.957958,96.9262592 51.4144144,96.9262592 C53.8708709,96.9262592 55.8603604,98.9217752 55.8603604,101.383814" id="Fill-38" fill="#1A1918" sketch:type="MSShapeGroup"></path>
                                <path d="M103.854354,215.235074 C103.438438,215.235074 103.027027,215.159828 102.638138,215.010842 L89.3438438,209.936271 C88.9309309,209.778256 88.6516517,209.373434 88.6516517,208.927979 L88.6516517,188.983354 C88.6516517,188.388913 89.1336336,187.90433 89.7282282,187.90433 L117.981982,187.90433 C118.576577,187.90433 119.058559,188.388913 119.058559,188.983354 L119.058559,208.927979 C119.058559,209.373434 118.780781,209.778256 118.366366,209.936271 L105.073574,215.010842 C104.683183,215.159828 104.271772,215.235074 103.854354,215.235074" id="Fill-43" fill="#CAA670" sketch:type="MSShapeGroup"></path>
                                <path d="M117.557057,189.410749 L117.557057,208.634521 L104.537538,213.605252 C104.318318,213.688022 104.088589,213.731665 103.855856,213.731665 C103.62012,213.731665 103.39039,213.688022 103.172673,213.605252 L90.1531532,208.634521 L90.1531532,189.410749 L117.557057,189.410749 M117.981982,186.400921 L89.7282282,186.400921 C88.3048048,186.400921 87.1501502,187.556695 87.1501502,188.983354 L87.1501502,208.927979 C87.1501502,210.000983 87.8108108,210.961118 88.8108108,211.343366 L102.103604,216.417936 C102.668168,216.633139 103.261261,216.741493 103.855856,216.741493 C104.448949,216.741493 105.042042,216.633139 105.606607,216.417936 L118.899399,211.343366 C119.899399,210.961118 120.56006,210.000983 120.56006,208.927979 L120.56006,188.983354 C120.56006,187.556695 119.405405,186.400921 117.981982,186.400921" id="Fill-44" fill="#A1855B" sketch:type="MSShapeGroup"></path>
                                <path d="M47.6501502,215.235074 C47.2327327,215.235074 46.8228228,215.159828 46.4339339,215.010842 L33.1381381,209.936271 C32.7252252,209.778256 32.4459459,209.373434 32.4459459,208.927979 L32.4459459,188.983354 C32.4459459,188.388913 32.9294294,187.90433 33.5225225,187.90433 L61.7777778,187.90433 C62.3708709,187.90433 62.8528529,188.388913 62.8528529,188.983354 L62.8528529,208.927979 C62.8528529,209.373434 62.5750751,209.778256 62.1621622,209.936271 L48.8678679,215.010842 C48.4774775,215.159828 48.0675676,215.235074 47.6501502,215.235074" id="Fill-45" fill="#CAA670" sketch:type="MSShapeGroup"></path>
                                <path d="M61.3513514,189.410749 L61.3513514,208.634521 L48.3333333,213.605252 C48.1141141,213.688022 47.8843844,213.731665 47.6501502,213.731665 C47.4159159,213.731665 47.1861862,213.688022 46.966967,213.605252 L33.9474474,208.634521 L33.9474474,189.410749 L61.3513514,189.410749 M61.7762763,186.400921 L33.5225225,186.400921 C32.0990991,186.400921 30.9444444,187.556695 30.9444444,188.983354 L30.9444444,208.927979 C30.9444444,210.000983 31.6051051,210.961118 32.6051051,211.343366 L45.8978979,216.417936 C46.4624625,216.633139 47.0555556,216.741493 47.6501502,216.741493 C48.2432432,216.741493 48.8378378,216.633139 49.4009009,216.417936 L62.6936937,211.343366 C63.6936937,210.961118 64.3543544,210.000983 64.3543544,208.927979 L64.3543544,188.983354 C64.3543544,187.556695 63.2012012,186.400921 61.7762763,186.400921" id="Fill-46" fill="#A1855B" sketch:type="MSShapeGroup"></path>
                                <path d="M76.0645646,150.158077 C50.4069069,150.158077 23.1396396,143.074447 23.1396396,129.950092 L23.1396396,73.5609644 L25.4399399,73.5609644 L25.4399399,112.846744 C25.4399399,115.259122 26.3768769,117.527027 28.0750751,119.232095 C29.7762763,120.937162 32.0375375,121.876229 34.4444444,121.876229 L117.651652,121.870209 C122.618619,121.870209 126.660661,117.820485 126.660661,112.840725 L126.660661,73.5609644 L128.959459,73.5609644 L128.959459,121.874724 L128.989489,121.874724 L128.989489,129.950092 C128.989489,143.074447 101.722222,150.158077 76.0645646,150.158077" id="Fill-47" fill="#804526" sketch:type="MSShapeGroup"></path>
                                <path d="M125.956456,121.530098 L125.956456,124.874017 L125.986486,124.874017 L125.986486,129.950092 C125.986486,139.432555 103.591592,147.148249 76.0645646,147.148249 C48.539039,147.148249 26.1441441,139.432555 26.1441441,129.950092 L26.1441441,121.537623 C28.3018018,123.611394 31.2297297,124.887561 34.4474474,124.887561 C45.0465465,124.886057 106.051051,124.880037 117.651652,124.880037 C120.870871,124.880037 123.798799,123.60387 125.956456,121.530098 M131.962462,70.5511364 L123.656156,70.5511364 L123.656156,112.840725 C123.656156,116.16508 120.96997,118.860381 117.651652,118.860381 C106.051051,118.860381 45.0465465,118.8664 34.4474474,118.867905 L34.4459459,118.867905 C31.1291291,118.867905 28.4444444,116.172604 28.4444444,112.848249 L28.4444444,70.5511364 L20.1381381,70.5511364 L20.1381381,129.950092 C20.1381381,145.428133 48.1006006,153.167905 76.0645646,153.167905 C104.028529,153.167905 131.992492,145.428133 131.992492,129.950092 L131.992492,118.867905 C132.343844,118.8664 132.307808,118.864896 131.962462,118.864896 L131.962462,70.5511364" id="Fill-48" fill="#804526" sketch:type="MSShapeGroup"></path>
                                <path d="M87.6231231,128.350369 C88.5585586,134.807955 84.0945946,140.803532 77.6531532,141.741093 C71.2102102,142.68016 65.2282282,138.20605 64.2927928,131.748464 C64.2927928,131.748464 69.96997,132.427181 75.6696697,131.597973 C81.3708709,130.76726 87.6231231,128.350369 87.6231231,128.350369" id="Fill-49" fill="#1A1918" sketch:type="MSShapeGroup"></path>
                                <path d="M87.1501502,194.336333 L120.56006,194.336333 L120.56006,197.346161 L87.1501502,197.346161 L87.1501502,194.336333 Z" id="Fill-51" fill="#A1855B" sketch:type="MSShapeGroup"></path>
                                <path d="M30.8828829,194.336333 L64.2927928,194.336333 L64.2927928,197.346161 L30.8828829,197.346161 L30.8828829,194.336333 Z" id="Fill-53" fill="#A1855B" sketch:type="MSShapeGroup"></path>
                                <path d="M105.298799,191.635012 C105.298799,192.434122 104.653153,193.081235 103.855856,193.081235 C103.057057,193.081235 102.411411,192.434122 102.411411,191.635012 C102.411411,190.834398 103.057057,190.187285 103.855856,190.187285 C104.653153,190.187285 105.298799,190.834398 105.298799,191.635012" id="Fill-60" fill="#A1855B" sketch:type="MSShapeGroup"></path>
                                <path d="M49.0315315,191.635012 C49.0315315,192.434122 48.3843844,193.081235 47.5870871,193.081235 C46.7897898,193.081235 46.1426426,192.434122 46.1426426,191.635012 C46.1426426,190.834398 46.7897898,190.187285 47.5870871,190.187285 C48.3843844,190.187285 49.0315315,190.834398 49.0315315,191.635012" id="Fill-61" fill="#A1855B" sketch:type="MSShapeGroup"></path>
                                <path d="M22.4444444,73.7219902 C22.4114114,67.3456695 22.3138138,49.6734644 22.3138138,49.6734644 C22.3138138,30.2058968 32.8663664,12.1980958 49.8513514,2.6855344 C50.3513514,2.40562039 50.8588589,2.27017813 51.4009009,2.27017813 C54.0840841,2.27017813 57.6636637,5.51025799 61.1261261,8.64348894 C65.7447447,12.8226351 70.521021,17.1447482 75.990991,17.1447482 C81.7372372,17.1447482 86.8288288,13.1612408 91.7537538,9.30715602 C95.6291291,6.27625921 99.2867868,3.41391278 102.237237,3.41391278 C103.028529,3.41391278 103.758258,3.62911548 104.465465,4.07457002 C120.244745,13.9919533 129.663664,31.042629 129.663664,49.6855037 L129.663664,73.7219902 L22.4444444,73.7219902" id="Fill-62" fill="#CAA670" sketch:type="MSShapeGroup"></path>
                                <path d="M51.4009009,0.0128071253 L51.3993994,4.52754914 C53.2177177,4.52754914 56.9159159,7.8759828 59.6171171,10.3199631 C64.3228228,14.5773649 69.6546547,19.4036241 75.9894895,19.4036241 C82.5105105,19.4036241 88.1576577,14.9851966 93.1396396,11.0859644 C96.3843844,8.54717445 100.063063,5.67128378 102.237237,5.67128378 C102.608108,5.67128378 102.915916,5.76458845 103.268769,5.98731572 C118.387387,15.4893428 127.412913,31.8251843 127.412913,49.6855037 L127.412913,71.4661241 L24.6861862,71.4661241 C24.6471471,64.4652641 24.5765766,51.6012592 24.5660661,49.6855037 C24.5660661,31.0230651 34.6756757,13.769226 50.9504505,4.65697174 C51.1426426,4.54861794 51.2687688,4.52754914 51.3993994,4.52754914 L51.4009009,0.0128071253 M51.4009009,0.0128071253 C50.503003,0.0128071253 49.6216216,0.229514742 48.7522523,0.715601966 C31.6351351,10.3003993 20.0615616,28.6377764 20.0615616,49.6855037 C20.0615616,49.6855037 20.2057057,75.6452703 20.2057057,75.9808661 L131.917417,75.9808661 L131.917417,49.6855037 C131.917417,29.6535934 121.432432,12.0746929 105.662162,2.16182432 C104.546547,1.4605344 103.403904,1.15503686 102.237237,1.15503686 C94.4114114,1.15503686 85.475976,14.8888821 75.9894895,14.8888821 C67.1681682,14.8888821 58.8213213,0.0143120393 51.4009009,0.0128071253" id="Fill-63" fill="#A1855B" sketch:type="MSShapeGroup"></path>
                                <g id="Group-67" stroke-width="1" fill="none" sketch:type="MSLayerGroup" transform="translate(24.525526, 3.514742)">
                                    <mask id="mask-6" sketch:name="Clip 65" fill="white">
                                        <use xlink:href="#path-5"></use>
                                    </mask>
                                    <g id="Clip-65"></g>
                                    <path d="M26.8738739,1.01130221 L26.8738739,1.01280713 C26.7432432,1.01280713 26.6171171,1.03387592 26.4249249,1.14222973 C25.2942943,1.77429361 24.1951952,2.44699017 23.1261261,3.15429975 C26.7942943,21.5217752 38.6921922,34.9757064 52.8018018,34.9757064 C66.4894895,34.9757064 78.0960961,22.311855 82.1261261,4.78713145 C81.036036,3.9759828 79.9084084,3.20396192 78.7432432,2.47257371 C78.3903904,2.24984644 78.0825826,2.15654177 77.7117117,2.15654177 L77.6576577,2.15654177 C77.6246246,2.15654177 77.5900901,2.15804668 77.5570571,2.16105651 C75.3648649,2.29047912 71.7837838,5.09262899 68.6141141,7.57122236 C65.7642643,9.80150491 62.6981982,12.2018428 59.3738739,13.8482187 C56.8858859,15.0792383 54.2552553,15.8888821 51.463964,15.8888821 C47.8258258,15.8888821 44.5195195,14.298188 41.4714715,12.1356265 C39.2117117,10.534398 37.0945946,8.61713759 35.0915916,6.80522113 C32.3903904,4.36124079 28.6921922,1.01280713 26.8738739,1.01280713 L26.8738739,1.01130221" id="Fill-64" fill="#BE9C6A" sketch:type="MSShapeGroup" mask="url(#mask-6)"></path>
                                    <path d="M77.5570571,2.16105651 C75.3648649,2.29047912 71.7822823,5.09262899 68.6141141,7.57272727 C65.7642643,9.80150491 62.6966967,12.2018428 59.3738739,13.8482187 C62.6981982,12.2018428 65.7642643,9.80150491 68.6141141,7.57122236 C71.7837838,5.09262899 75.3648649,2.29047912 77.5570571,2.16105651 M77.7117117,2.15654177 L77.6576577,2.15654177 L77.7117117,2.15654177 C78.0825826,2.15654177 78.3903904,2.24984644 78.7432432,2.47257371 C79.9084084,3.20396192 81.036036,3.9759828 82.1261261,4.78713145 C81.036036,3.9759828 79.9084084,3.20396192 78.7447447,2.47257371 C78.3918919,2.24984644 78.0825826,2.15654177 77.7117117,2.15654177 M26.8738739,1.01130221 C26.7432432,1.01280713 26.6156156,1.03538084 26.4234234,1.14222973 C25.2942943,1.77429361 24.1951952,2.44548526 23.1261261,3.15429975 C24.1951952,2.44699017 25.2942943,1.77429361 26.4249249,1.14222973 C26.6171171,1.03387592 26.7432432,1.01280713 26.8738739,1.01280713 L26.8738739,1.01280713 C28.6921922,1.01280713 32.3903904,4.36124079 35.0915916,6.80522113 C37.0945946,8.61713759 39.2117117,10.534398 41.4714715,12.1356265 C39.2132132,10.534398 37.0960961,8.61713759 35.0930931,6.80522113 C32.3918919,4.36124079 28.6921922,1.01130221 26.8738739,1.01130221" id="Fill-66" fill="#9B8058" sketch:type="MSShapeGroup" mask="url(#mask-6)"></path>
                                </g>
                                <path d="M6.40990991,80.0817568 L134.885886,80.0817568 C140.78979,80.0817568 146.280781,77.0523649 149.438438,72.0530405 L150.932432,69.6903256 C152.707207,66.8806511 151.873874,63.1620086 149.070571,61.3832002 C146.268769,59.6043919 142.558559,60.4396192 140.783784,63.2492936 L139.28979,65.6120086 C138.334835,67.1244472 136.672673,68.0424447 134.885886,68.0424447 L6.40990991,68.0424447 C3.09309309,68.0424447 0.403903904,70.7377457 0.403903904,74.0621007 C0.403903904,77.3864558 3.09309309,80.0817568 6.40990991,80.0817568" id="Fill-68" fill="#A1855B" sketch:type="MSShapeGroup"></path>
                                <path d="M97.5585586,175.076443 L97.5585586,171.854423 L101.246246,169.840848 L106.463964,169.840848 L110.151652,171.854423 L110.151652,175.076443 C110.151652,178.191615 108.181682,180.963667 105.244745,181.980989 C105.244745,181.980989 104.096096,182.388821 103.855856,182.631112 C103.545045,182.3211 102.465465,181.980989 102.465465,181.980989 C99.5285285,180.963667 97.5585586,178.191615 97.5585586,175.076443" id="Fill-69" fill="#EBDC23" sketch:type="MSShapeGroup"></path>
                                <path d="M33.1906907,174.983139 L60.9534535,174.983139 L60.9534535,180.751474 L33.1906907,180.751474 L33.1906907,174.983139 Z" id="Fill-70" fill="#343433" sketch:type="MSShapeGroup"></path>
                            </g>
                        </g>
                    </g>
                    <g id="Imported-Layers-Copy-3" transform="translate(12.312312, 0.300983)">
                        <path d="M23.4444444,74.7219902 C23.4114114,68.3456695 23.3138138,50.6734644 23.3138138,50.6734644 C23.3138138,31.2058968 33.8663664,13.1980958 50.8513514,3.6855344 C51.3513514,3.40562039 51.8588589,3.27017813 52.4009009,3.27017813 C55.0840841,3.27017813 58.6636637,6.51025799 62.1261261,9.64348894 C66.7447447,13.8226351 71.521021,18.1447482 76.990991,18.1447482 C82.7372372,18.1447482 87.8288288,14.1612408 92.7537538,10.307156 C96.6291291,7.27625921 100.286787,4.41391278 103.237237,4.41391278 C104.028529,4.41391278 104.758258,4.62911548 105.465465,5.07457002 C121.244745,14.9919533 130.663664,32.042629 130.663664,50.6855037 L130.663664,74.7219902 L23.4444444,74.7219902" id="Fill-62" fill="#CAA670" sketch:type="MSShapeGroup"></path>
                        <path d="M52.4009009,1.01280713 L52.3993994,5.52754914 C54.2177177,5.52754914 57.9159159,8.8759828 60.6171171,11.3199631 C65.3228228,15.5773649 70.6546547,20.4036241 76.9894895,20.4036241 C83.5105105,20.4036241 89.1576577,15.9851966 94.1396396,12.0859644 C97.3843844,9.54717445 101.063063,6.67128378 103.237237,6.67128378 C103.608108,6.67128378 103.915916,6.76458845 104.268769,6.98731572 C119.387387,16.4893428 128.412913,32.8251843 128.412913,50.6855037 L128.412913,72.4661241 L25.6861862,72.4661241 C25.6471471,65.4652641 25.5765766,52.6012592 25.5660661,50.6855037 C25.5660661,32.0230651 35.6756757,14.769226 51.9504505,5.65697174 C52.1426426,5.54861794 52.2687688,5.52754914 52.3993994,5.52754914 L52.4009009,1.01280713 M52.4009009,1.01280713 C51.503003,1.01280713 50.6216216,1.22951474 49.7522523,1.71560197 C32.6351351,11.3003993 21.0615616,29.6377764 21.0615616,50.6855037 C21.0615616,50.6855037 21.2057057,76.6452703 21.2057057,76.9808661 L132.917417,76.9808661 L132.917417,50.6855037 C132.917417,30.6535934 122.432432,13.0746929 106.662162,3.16182432 C105.546547,2.4605344 104.403904,2.15503686 103.237237,2.15503686 C95.4114114,2.15503686 86.475976,15.8888821 76.9894895,15.8888821 C68.1681682,15.8888821 59.8213213,1.01431204 52.4009009,1.01280713" id="Fill-63" fill="#A1855B" sketch:type="MSShapeGroup"></path>
                        <g id="Group-67" transform="translate(25.525526, 4.514742)">
                            <mask id="mask-8" sketch:name="Clip 65" fill="white">
                                <use xlink:href="#path-7"></use>
                            </mask>
                            <g id="Clip-65"></g>
                            <path d="M26.8738739,1.01130221 L26.8738739,1.01280713 C26.7432432,1.01280713 26.6171171,1.03387592 26.4249249,1.14222973 C25.2942943,1.77429361 24.1951952,2.44699017 23.1261261,3.15429975 C26.7942943,21.5217752 38.6921922,34.9757064 52.8018018,34.9757064 C66.4894895,34.9757064 78.0960961,22.311855 82.1261261,4.78713145 C81.036036,3.9759828 79.9084084,3.20396192 78.7432432,2.47257371 C78.3903904,2.24984644 78.0825826,2.15654177 77.7117117,2.15654177 L77.6576577,2.15654177 C77.6246246,2.15654177 77.5900901,2.15804668 77.5570571,2.16105651 C75.3648649,2.29047912 71.7837838,5.09262899 68.6141141,7.57122236 C65.7642643,9.80150491 62.6981982,12.2018428 59.3738739,13.8482187 C56.8858859,15.0792383 54.2552553,15.8888821 51.463964,15.8888821 C47.8258258,15.8888821 44.5195195,14.298188 41.4714715,12.1356265 C39.2117117,10.534398 37.0945946,8.61713759 35.0915916,6.80522113 C32.3903904,4.36124079 28.6921922,1.01280713 26.8738739,1.01280713 L26.8738739,1.01130221" id="Fill-64" fill="#BE9C6A" sketch:type="MSShapeGroup" mask="url(#mask-8)"></path>
                            <path d="M77.5570571,2.16105651 C75.3648649,2.29047912 71.7822823,5.09262899 68.6141141,7.57272727 C65.7642643,9.80150491 62.6966967,12.2018428 59.3738739,13.8482187 C62.6981982,12.2018428 65.7642643,9.80150491 68.6141141,7.57122236 C71.7837838,5.09262899 75.3648649,2.29047912 77.5570571,2.16105651 M77.7117117,2.15654177 L77.6576577,2.15654177 L77.7117117,2.15654177 C78.0825826,2.15654177 78.3903904,2.24984644 78.7432432,2.47257371 C79.9084084,3.20396192 81.036036,3.9759828 82.1261261,4.78713145 C81.036036,3.9759828 79.9084084,3.20396192 78.7447447,2.47257371 C78.3918919,2.24984644 78.0825826,2.15654177 77.7117117,2.15654177 M26.8738739,1.01130221 C26.7432432,1.01280713 26.6156156,1.03538084 26.4234234,1.14222973 C25.2942943,1.77429361 24.1951952,2.44548526 23.1261261,3.15429975 C24.1951952,2.44699017 25.2942943,1.77429361 26.4249249,1.14222973 C26.6171171,1.03387592 26.7432432,1.01280713 26.8738739,1.01280713 L26.8738739,1.01280713 C28.6921922,1.01280713 32.3903904,4.36124079 35.0915916,6.80522113 C37.0945946,8.61713759 39.2117117,10.534398 41.4714715,12.1356265 C39.2132132,10.534398 37.0960961,8.61713759 35.0930931,6.80522113 C32.3918919,4.36124079 28.6921922,1.01130221 26.8738739,1.01130221" id="Fill-66" fill="#9B8058" sketch:type="MSShapeGroup" mask="url(#mask-8)"></path>
                        </g>
                        <path d="M7.40990991,81.0817568 L135.885886,81.0817568 C141.78979,81.0817568 147.280781,78.0523649 150.438438,73.0530405 L151.932432,70.6903256 C153.707207,67.8806511 152.873874,64.1620086 150.070571,62.3832002 C147.268769,60.6043919 143.558559,61.4396192 141.783784,64.2492936 L140.28979,66.6120086 C139.334835,68.1244472 137.672673,69.0424447 135.885886,69.0424447 L7.40990991,69.0424447 C4.09309309,69.0424447 1.4039039,71.7377457 1.4039039,75.0621007 C1.4039039,78.3864558 4.09309309,81.0817568 7.40990991,81.0817568" id="Fill-68" fill="#A1855B" sketch:type="MSShapeGroup"></path>
                        <path d="M98.5585586,176.076443 L98.5585586,172.854423 L102.246246,170.840848 L107.463964,170.840848 L111.151652,172.854423 L111.151652,176.076443 C111.151652,179.191615 109.181682,181.963667 106.244745,182.980989 C106.244745,182.980989 105.096096,183.388821 104.855856,183.631112 C104.545045,183.3211 103.465465,182.980989 103.465465,182.980989 C100.528529,181.963667 98.5585586,179.191615 98.5585586,176.076443" id="Fill-69" fill="#EBDC23" sketch:type="MSShapeGroup"></path>
                        <path d="M34.1906907,175.983139 L61.9534535,175.983139 L61.9534535,181.751474 L34.1906907,181.751474 L34.1906907,175.983139 Z" id="Fill-70" fill="#343433" sketch:type="MSShapeGroup"></path>
                    </g>
                </g>
            </g>
        </g>
    </g>
</svg>