<?xml version="1.0" encoding="UTF-8" standalone="no"?>
<svg width="20px" height="20px" viewBox="0 0 20 20" version="1.1" xmlns="http://www.w3.org/2000/svg" xmlns:xlink="http://www.w3.org/1999/xlink" xmlns:sketch="http://www.bohemiancoding.com/sketch/ns">
    <!-- Generator: Sketch 3.3 (11970) - http://www.bohemiancoding.com/sketch -->
    <title>Imported Layers</title>
    <desc>Created with Sketch.</desc>
    <defs></defs>
    <g id="Web-App-0.8" stroke="none" stroke-width="1" fill="none" fill-rule="evenodd" sketch:type="MSPage">
        <g id="New-Copy-7" sketch:type="MSArtboardGroup" transform="translate(-726.000000, -811.000000)">
            <g id="Rectangle-1-+-DONE" sketch:type="MSLayerGroup" transform="translate(587.000000, 704.000000)">
                <g id="Still-need-a-little--+-Talk-to-us-on-Slack-+-Imported-Layers" transform="translate(0.000000, 107.000000)" sketch:type="MSShapeGroup">
                    <g id="Imported-Layers" transform="translate(139.000000, 0.000000)">
                        <path d="M1.72403361,10.6540678 C0.985378151,10.659661 0.359663866,10.2157627 0.12907563,9.52288136 C0.120168067,9.49610169 0.112436975,9.46983051 0.105042017,9.4440678 C-0.146386555,8.55661017 0.341176471,7.62847458 1.21512605,7.33135593 L15.2290756,2.59661017 C15.3994958,2.54728814 15.5710924,2.52220339 15.7410084,2.52084746 C16.4991597,2.51491525 17.1421849,2.96864407 17.3786555,3.67627119 L17.3994958,3.74457627 C17.6615126,4.66864407 17.0102521,5.49372881 16.229916,5.75813559 C16.2292437,5.75847458 16.087563,5.80711864 2.29344538,10.5562712 C2.10672269,10.62 1.91529412,10.6523729 1.72403361,10.6540678" id="Fill-1" fill="#70CADB"></path>
                        <path d="M4.06,17.6045763 C3.31579832,17.61 2.68773109,17.1723729 2.45983193,16.489661 C2.45142857,16.4633898 2.44319328,16.4371186 2.43596639,16.4110169 C2.1810084,15.5130508 2.66789916,14.5752542 3.54453782,14.2774576 L17.5593277,9.49915254 C17.7401681,9.43813559 17.9272269,9.40677966 18.1151261,9.40525424 C18.8615126,9.39949153 19.517479,9.85932203 19.7489076,10.55 L19.7704202,10.6220339 C19.9055462,11.0989831 19.8257143,11.6357627 19.5568067,12.0589831 C19.3559664,12.3740678 18.7233613,12.6511864 18.7233613,12.6511864 L4.65512605,17.5018644 C4.45932773,17.5679661 4.25932773,17.6027119 4.06,17.6045763" id="Fill-2" fill="#E01765"></path>
                        <path d="M15.7263866,17.6344068 C14.9789916,17.6405085 14.3168067,17.1647458 14.0789916,16.4520339 L9.40168067,2.44101695 L9.37831933,2.36237288 C9.12504202,1.46898305 9.61210084,0.536949153 10.4858824,0.239830508 C10.6605042,0.180508475 10.8413445,0.149491525 11.0231933,0.147966102 C11.2934454,0.145932203 11.554958,0.207288136 11.8011765,0.33 C12.2129412,0.536779661 12.5210084,0.892711864 12.6680672,1.33220339 L17.345042,15.3420339 L17.3586555,15.3869492 C17.6211765,16.3145763 17.134958,17.2472881 16.2615126,17.5438983 C16.0882353,17.6023729 15.9080672,17.6330508 15.7263866,17.6344068" id="Fill-3" fill="#E8A723"></path>
                        <path d="M8.77394958,19.9947458 C8.02655462,20.0005085 7.36403361,19.5249153 7.12571429,18.8111864 L2.44957983,4.80050847 C2.44151261,4.77457627 2.43344538,4.74898305 2.42588235,4.72254237 C2.17327731,3.82932203 2.6589916,2.89711864 3.53243697,2.6 C3.70638655,2.54152542 3.88638655,2.51084746 4.06806723,2.50932203 C4.81546218,2.50355932 5.47764706,2.97915254 5.71596639,3.69220339 L10.3922689,17.7032203 C10.4010084,17.7279661 10.4089076,17.7547458 10.4159664,17.780678 C10.6692437,18.6744068 10.1831933,19.6071186 9.30857143,19.9042373 C9.13495798,19.9627119 8.95529412,19.9932203 8.77394958,19.9947458" id="Fill-4" fill="#3EB890"></path>
                        <path d="M13.4205042,14.4794915 L16.6818487,13.3549153 L15.6157983,10.1618644 L12.3505882,11.2749153 L13.4205042,14.4794915" id="Fill-5" fill="#CC1F27"></path>
                        <path d="M6.47882353,16.8730508 L9.73983193,15.7486441 L8.66605042,12.5313559 L5.40134454,13.6444068 L6.47882353,16.8730508" id="Fill-6" fill="#361238"></path>
                        <path d="M11.0986555,7.52474576 C12.565042,7.01983051 13.612437,6.65932203 14.3603361,6.40169492 L13.3068908,3.2459322 L10.0389916,4.35 L11.0986555,7.52474576" id="Fill-7" fill="#65863A"></path>
                        <path d="M4.15647059,9.91491525 C5.35983193,9.50067797 6.44268908,9.12779661 7.41798319,8.7920339 L6.35142857,5.59610169 L3.08369748,6.7 L4.15647059,9.91491525" id="Fill-8" fill="#1A937D"></path>
                    </g>
                </g>
            </g>
        </g>
    </g>
</svg>