<?xml version="1.0" encoding="utf-8"?>
<!-- Generator: Adobe Illustrator 17.1.0, SVG Export Plug-In . SVG Version: 6.00 Build 0)  -->
<!DOCTYPE svg PUBLIC "-//W3C//DTD SVG 1.1//EN" "http://www.w3.org/Graphics/SVG/1.1/DTD/svg11.dtd">
<svg version="1.1" id="Layer_1" xmlns="http://www.w3.org/2000/svg" xmlns:xlink="http://www.w3.org/1999/xlink" x="0px" y="0px"
	 viewBox="0 0 40 40" enable-background="new 0 0 40 40" xml:space="preserve">
<path d="M40,40h-8.3l-0.3-10.5c0-0.7-0.6-1.5-1.2-1.8l-5.5-2.2c-0.7-0.3-1.7-0.1-2.2,0.4L21,27.8c-0.5,0.5-1.4,0.5-2,0l-1.5-1.9
	c-0.5-0.5-1.5-0.6-2.2-0.4l-5.5,2.2c-0.7,0.3-1.2,1.1-1.2,1.8L8.3,40H0V0h40V40z M25.7,15.5c0-3.1-2.5-5.6-5.5-5.8v0
	c0,0-0.1,0-0.1,0c0,0-0.1,0-0.1,0v0c-3.1,0.1-5.5,2.6-5.5,5.8c0,3.1,0.4,8.9,5.5,9v0c0,0,0.1,0,0.1,0c0,0,0.1,0,0.1,0v0
	C25.2,24.3,25.7,18.6,25.7,15.5z"/>
</svg>
