<?xml version="1.0" encoding="utf-8"?>
<!-- Generator: Adobe Illustrator 17.1.0, SVG Export Plug-In . SVG Version: 6.00 Build 0)  -->
<!DOCTYPE svg PUBLIC "-//W3C//DTD SVG 1.1//EN" "http://www.w3.org/Graphics/SVG/1.1/DTD/svg11.dtd">
<svg version="1.1" id="Layer_1" xmlns="http://www.w3.org/2000/svg" xmlns:xlink="http://www.w3.org/1999/xlink" x="0px" y="0px"
	 viewBox="0 0 100 60" enable-background="new 0 0 100 60" xml:space="preserve">
<g>
	<path fill="#D7D7D7" d="M95.4,3C96.3,3,97,3.7,97,4.6v50.7c0,0.9-0.7,1.6-1.6,1.6H28.5h-3H10.7L23,44.7l0.9-0.9v-1.2V4.6
		c0-0.9,0.7-1.6,1.6-1.6H95.4 M95.4,0H25.6c-2.6,0-4.6,2.1-4.6,4.6v37.9L3.5,60h22.1h3h66.8c2.6,0,4.6-2.1,4.6-4.6V4.6
		C100,2.1,97.9,0,95.4,0L95.4,0z"/>
</g>
</svg>
