<?xml version="1.0" encoding="UTF-8" standalone="no"?>
<svg width="14px" height="18px" viewBox="0 0 14 18" version="1.1" xmlns="http://www.w3.org/2000/svg" xmlns:xlink="http://www.w3.org/1999/xlink" xmlns:sketch="http://www.bohemiancoding.com/sketch/ns">
    <!-- Generator: Sketch 3.2 (9961) - http://www.bohemiancoding.com/sketch -->
    <title>delete</title>
    <desc>Created with Sketch.</desc>
    <defs></defs>
    <g id="Page-1" stroke="none" stroke-width="1" fill="none" fill-rule="evenodd" sketch:type="MSPage">
        <g id="delete" sketch:type="MSLayerGroup" fill="#D10505">
            <path d="M5.409,14.447 C5.064,14.447 4.784,14.167 4.784,13.822 L4.784,7.885 C4.784,7.54 5.064,7.26 5.409,7.26 C5.754,7.26 6.034,7.54 6.034,7.885 L6.034,13.822 C6.034,14.167 5.754,14.447 5.409,14.447" id="Fill-2" sketch:type="MSShapeGroup"></path>
            <path d="M8.859,14.447 C8.515,14.447 8.234,14.167 8.234,13.822 L8.234,7.885 C8.234,7.54 8.515,7.26 8.859,7.26 C9.204,7.26 9.484,7.54 9.484,7.885 L9.484,13.822 C9.484,14.167 9.204,14.447 8.859,14.447" id="Fill-3" sketch:type="MSShapeGroup"></path>
            <path d="M10.735,4.397 L3.402,4.397 C3.199,4.397 3.009,4.299 2.892,4.134 C2.775,3.968 2.745,3.756 2.814,3.564 L3.871,0.57 C3.983,0.244 4.296,0.021 4.648,0.021 L9.489,0.021 C9.839,0.021 10.151,0.241 10.268,0.57 L11.325,3.564 C11.393,3.756 11.362,3.968 11.245,4.134 C11.128,4.299 10.939,4.397 10.735,4.397 L10.735,4.397 Z M4.286,3.147 L9.852,3.147 L9.189,1.271 L4.949,1.271 L4.286,3.147 L4.286,3.147 Z" id="Fill-4" sketch:type="MSShapeGroup"></path>
            <path d="M12.033,17.732 L2.225,17.732 C1.796,17.732 1.435,17.396 1.402,16.969 L0.659,7.075 C0.633,6.73 0.892,6.431 1.235,6.405 C1.58,6.388 1.88,6.638 1.905,6.981 L2.619,16.482 L11.639,16.482 L12.546,4.397 L1.254,4.397 C0.909,4.397 0.629,4.117 0.629,3.772 C0.629,3.428 0.909,3.147 1.254,3.147 L13.004,3.147 C13.232,3.147 13.453,3.244 13.608,3.411 C13.765,3.579 13.844,3.807 13.826,4.034 L12.855,16.969 C12.823,17.396 12.462,17.732 12.033,17.732" id="Fill-5" sketch:type="MSShapeGroup"></path>
        </g>
    </g>
</svg>