<?xml version="1.0" encoding="UTF-8" standalone="no"?>
<svg width="16px" height="18px" viewBox="0 0 16 18" version="1.1" xmlns="http://www.w3.org/2000/svg" xmlns:xlink="http://www.w3.org/1999/xlink" xmlns:sketch="http://www.bohemiancoding.com/sketch/ns">
    <!-- Generator: Sketch 3.2 (9961) - http://www.bohemiancoding.com/sketch -->
    <title>duplicate</title>
    <desc>Created with Sketch.</desc>
    <defs></defs>
    <g id="Page-1" stroke="none" stroke-width="1" fill="none" fill-rule="evenodd" sketch:type="MSPage">
        <g id="duplicate" sketch:type="MSLayerGroup" fill="#939598">
            <path d="M14.7107368,11.1994286 C15.0012632,11.1994286 15.2370526,10.9594286 15.2370526,10.6637143 L15.2370526,5.14285714 C15.2370526,4.95685714 15.1663158,4.78114286 15.0341053,4.64228571 L11.3869474,0.930857143 C11.2547368,0.800571429 11.0821053,0.728571429 10.8993684,0.728571429 L3.39957895,0.728571429 C3.01642105,0.728571429 2.70484211,1.04571429 2.70484211,1.43571429 L2.70484211,2.73428571 L0.899368421,2.73428571 C0.516210526,2.73428571 0.204631579,3.05228571 0.204631579,3.44142857 L0.204631579,17.2637143 C0.204631579,17.6537143 0.516210526,17.9708571 0.899368421,17.9708571 L12.0421053,17.9708571 C12.4252632,17.9708571 12.7368421,17.6537143 12.7368421,17.2637143 L12.7368421,16.5094286 L14.5423158,16.5094286 C14.9254737,16.5094286 15.2370526,16.1922857 15.2370526,15.8022857 L15.2370526,14.6974286 C15.2370526,14.4017143 15.0012632,14.1617143 14.7107368,14.1617143 C14.4202105,14.1617143 14.1844211,14.4017143 14.1844211,14.6974286 L14.1844211,15.438 L12.3789474,15.438 C11.9957895,15.438 11.6842105,15.7551429 11.6842105,16.1451429 L11.6842105,16.8994286 L1.25726316,16.8994286 L1.25726316,3.80571429 L8.25178947,3.80571429 L11.6842105,7.30028571 L11.6842105,12.6694286 C11.6842105,12.9651429 11.92,13.2051429 12.2105263,13.2051429 C12.5010526,13.2051429 12.7368421,12.9651429 12.7368421,12.6694286 L12.7368421,7.14857143 C12.7368421,6.96257143 12.6627368,6.78085714 12.5338947,6.64885714 L8.896,2.94685714 C8.76631579,2.81142857 8.58610526,2.73428571 8.4,2.73428571 L3.75747368,2.73428571 L3.75747368,1.8 L10.752,1.8 L14.1844211,5.29371429 L14.1844211,10.6637143 C14.1844211,10.9594286 14.4202105,11.1994286 14.7107368,11.1994286" id="Fill-1" sketch:type="MSShapeGroup"></path>
            <path d="M6.39494737,13.5248571 C6.62736842,13.5248571 6.816,13.3337143 6.816,13.0962857 L6.816,11.0922857 L8.78484211,11.0922857 C9.01726316,11.0922857 9.20589474,10.9011429 9.20589474,10.6637143 C9.20589474,10.4271429 9.01726316,10.2351429 8.78484211,10.2351429 L6.816,10.2351429 L6.816,8.232 C6.816,7.99457143 6.62736842,7.80342857 6.39494737,7.80342857 C6.16168421,7.80342857 5.97389474,7.99457143 5.97389474,8.232 L5.97389474,10.2351429 L4.00505263,10.2351429 C3.77178947,10.2351429 3.584,10.4271429 3.584,10.6637143 C3.584,10.9011429 3.77178947,11.0922857 4.00505263,11.0922857 L5.97389474,11.0922857 L5.97389474,13.0962857 C5.97389474,13.3337143 6.16168421,13.5248571 6.39494737,13.5248571" id="Fill-2" sketch:type="MSShapeGroup"></path>
        </g>
    </g>
</svg>