<?xml version="1.0" encoding="UTF-8" standalone="no"?>
<svg width="18px" height="17px" viewBox="0 0 18 17" version="1.1" xmlns="http://www.w3.org/2000/svg" xmlns:xlink="http://www.w3.org/1999/xlink" xmlns:sketch="http://www.bohemiancoding.com/sketch/ns">
    <!-- Generator: Sketch 3.2 (9961) - http://www.bohemiancoding.com/sketch -->
    <title>edit</title>
    <desc>Created with Sketch.</desc>
    <defs></defs>
    <g id="Page-1" stroke="none" stroke-width="1" fill="none" fill-rule="evenodd" sketch:type="MSPage">
        <g id="edit" sketch:type="MSLayerGroup" fill="#939598">
            <path d="M13.5891,16.8317895 L1.1241,16.8317895 C0.7146,16.8317895 0.3816,16.4998421 0.3816,16.0936316 L0.3816,3.70152632 C0.3816,3.29442105 0.7146,2.96336842 1.1241,2.96336842 L7.0182,2.96336842 C7.3287,2.96336842 7.5807,3.21389474 7.5807,3.52168421 C7.5807,3.83036842 7.3287,4.08178947 7.0182,4.08178947 L1.5066,4.08178947 L1.5066,15.7133684 L13.2066,15.7133684 L13.2066,11.9116316 C13.2066,11.6029474 13.4586,11.3515263 13.7691,11.3515263 C14.0796,11.3515263 14.3316,11.6029474 14.3316,11.9116316 L14.3316,16.0936316 C14.3316,16.4998421 13.9986,16.8317895 13.5891,16.8317895" id="Fill-1" sketch:type="MSShapeGroup"></path>
            <path d="M9.666,10.9184737 C9.468,10.9184737 9.2817,10.8415263 9.1404,10.7028421 L7.182,8.75589474 C6.8931,8.46778947 6.8931,7.99984211 7.182,7.71173684 L14.6817,0.256789474 C14.9733,-0.0295263158 15.4431,-0.0295263158 15.7329,0.256789474 L17.6904,2.20373684 C17.9802,2.49184211 17.9802,2.95978947 17.6904,3.24789474 L13.5504,7.36368421 C13.3308,7.58289474 12.9735,7.58289474 12.7539,7.36368421 C12.5352,7.14536842 12.5352,6.79105263 12.7539,6.57273684 L16.6239,2.72626316 L15.2064,1.31794737 L8.2494,8.23426316 L9.666,9.64257895 L10.6605,8.65389474 C10.8801,8.43557895 11.2365,8.43557895 11.4561,8.65389474 C11.6757,8.87221053 11.6757,9.22742105 11.4561,9.44573684 L10.1916,10.7028421 C10.0512,10.8415263 9.8649,10.9184737 9.666,10.9184737" id="Fill-2" sketch:type="MSShapeGroup"></path>
            <path d="M4.4874,13.1633684 L5.4513,9.49852632 C5.4864,9.36431579 5.6547,9.31957895 5.7528,9.41710526 L8.4762,12.1236842 C8.5743,12.2221053 8.5293,12.3885263 8.3943,12.4234211 L4.707,13.3816842 C4.5738,13.4165789 4.4532,13.2957895 4.4874,13.1633684" id="Fill-3" sketch:type="MSShapeGroup"></path>
        </g>
    </g>
</svg>