<?xml version="1.0" encoding="UTF-8" standalone="no"?>
<svg width="13px" height="7px" viewBox="0 0 13 7" version="1.1" xmlns="http://www.w3.org/2000/svg" xmlns:xlink="http://www.w3.org/1999/xlink" xmlns:sketch="http://www.bohemiancoding.com/sketch/ns">
    <!-- Generator: Sketch 3.3 (11970) - http://www.bohemiancoding.com/sketch -->
    <title>Edit</title>
    <desc>Created with Sketch.</desc>
    <defs></defs>
    <g id="V7.0-(0.8)" stroke="none" stroke-width="1" fill="none" fill-rule="evenodd" sketch:type="MSPage">
        <g id="Edit-2" sketch:type="MSArtboardGroup" transform="translate(-369.000000, -582.000000)" fill="#A8A8A8">
            <path d="M372.736,587.608 L370.112,587.608 L370.112,585.264 L372.536,585.264 L372.536,584.872 L370.112,584.872 L370.112,582.872 L372.68,582.872 L372.68,582.48 L369.68,582.48 L369.68,588 L372.736,588 L372.736,587.608 Z M373.36,586.144 C373.36,587.24 374.08,588.08 375.2,588.08 C375.76,588.08 376.264,587.84 376.576,587.312 L376.576,588 L377,588 L377,582.48 L376.576,582.48 L376.576,584.984 C376.216,584.44 375.72,584.224 375.184,584.224 C374.08,584.224 373.36,585.04 373.36,586.144 L373.36,586.144 Z M373.8,586.144 C373.8,585.28 374.304,584.584 375.2,584.584 C376.104,584.584 376.6,585.28 376.6,586.144 C376.6,587 376.104,587.704 375.2,587.704 C374.304,587.704 373.8,587 373.8,586.144 L373.8,586.144 Z M378.832,582.968 C378.832,582.776 378.68,582.624 378.488,582.624 C378.296,582.624 378.144,582.776 378.144,582.968 C378.144,583.16 378.296,583.312 378.488,583.312 C378.68,583.312 378.832,583.16 378.832,582.968 L378.832,582.968 Z M378.696,584.288 L378.28,584.288 L378.28,588 L378.696,588 L378.696,584.288 Z M381.416,587.6 C381.416,587.6 381.256,587.704 381.016,587.704 C380.52,587.704 380.472,587.216 380.472,586.808 L380.472,584.68 L381.416,584.68 L381.416,584.304 L380.48,584.304 L380.48,583.12 L380.056,583.12 L380.056,584.304 L379.496,584.304 L379.496,584.68 L380.056,584.68 L380.056,586.56 C380.056,587.16 380.064,587.432 380.192,587.68 C380.328,587.928 380.536,588.08 380.896,588.08 C381.256,588.08 381.456,587.96 381.456,587.96 L381.416,587.6 Z" id="Edit" sketch:type="MSShapeGroup"></path>
        </g>
    </g>
</svg>