<?xml version="1.0" encoding="UTF-8" standalone="no"?>
<svg width="14px" height="11px" viewBox="0 0 14 11" version="1.1" xmlns="http://www.w3.org/2000/svg" xmlns:xlink="http://www.w3.org/1999/xlink" xmlns:sketch="http://www.bohemiancoding.com/sketch/ns">
    <!-- Generator: Sketch 3.3.1 (12002) - http://www.bohemiancoding.com/sketch -->
    <title></title>
    <desc>Created with Sketch.</desc>
    <defs></defs>
    <g id="Web-App-0.8" stroke="none" stroke-width="1" fill="none" fill-rule="evenodd" sketch:type="MSPage">
        <g id="New-Copy" sketch:type="MSArtboardGroup" transform="translate(-1271.000000, -959.000000)" fill="#C5C7C7">
            <g id="Group" sketch:type="MSLayerGroup" transform="translate(1097.000000, 755.000000)">
                <g id="Talk-to-us-on-Slack-+-Imported-Layers-Copy" transform="translate(174.000000, 200.000000)" sketch:type="MSShapeGroup">
                    <path d="M13,13.75 L13,7.75 C12.8333325,7.93750094 12.6536468,8.10937422 12.4609375,8.265625 C11.0650972,9.33854703 9.95573328,10.2187466 9.1328125,10.90625 C8.86718617,11.1302095 8.6510425,11.3046869 8.484375,11.4296875 C8.3177075,11.5546881 8.09244934,11.6809889 7.80859375,11.8085938 C7.52473816,11.9361986 7.25781375,12 7.0078125,12 L7,12 L6.9921875,12 C6.74218625,12 6.47526184,11.9361986 6.19140625,11.8085938 C5.90755066,11.6809889 5.6822925,11.5546881 5.515625,11.4296875 C5.3489575,11.3046869 5.13281383,11.1302095 4.8671875,10.90625 C4.04426672,10.2187466 2.93490281,9.33854703 1.5390625,8.265625 C1.3463532,8.10937422 1.1666675,7.93750094 1,7.75 L1,13.75 C1,13.8177087 1.02473934,13.8763018 1.07421875,13.9257812 C1.12369816,13.9752607 1.18229133,14 1.25,14 L12.75,14 C12.8177087,14 12.8763018,13.9752607 12.9257812,13.9257812 C12.9752607,13.8763018 13,13.8177087 13,13.75 L13,13.75 Z M13,5.5390625 L13,5.453125 L13,5.34765625 C13,5.32421863 12.9986979,5.2903648 12.9960938,5.24609375 C12.9934896,5.2018227 12.9856771,5.16927094 12.9726562,5.1484375 C12.9596354,5.12760406 12.9453126,5.1041668 12.9296875,5.078125 C12.9140624,5.0520832 12.8906252,5.03255215 12.859375,5.01953125 C12.8281248,5.00651035 12.7916669,5 12.75,5 L1.25,5 C1.18229133,5 1.12369816,5.02473934 1.07421875,5.07421875 C1.02473934,5.12369816 1,5.18229133 1,5.25 C1,6.12500437 1.38280867,6.86458031 2.1484375,7.46875 C3.15365086,8.26042063 4.19791125,9.0859332 5.28125,9.9453125 C5.31250016,9.9713543 5.40364508,10.0481764 5.5546875,10.1757812 C5.70572992,10.3033861 5.82552039,10.4010413 5.9140625,10.46875 C6.00260461,10.5364587 6.11848887,10.6184891 6.26171875,10.7148438 C6.40494863,10.8111984 6.53645773,10.8828123 6.65625,10.9296875 C6.77604227,10.9765627 6.88802031,11 6.9921875,11 L7,11 L7.0078125,11 C7.11197969,11 7.22395773,10.9765627 7.34375,10.9296875 C7.46354227,10.8828123 7.59505137,10.8111984 7.73828125,10.7148438 C7.88151113,10.6184891 7.99739539,10.5364587 8.0859375,10.46875 C8.17447961,10.4010413 8.29427008,10.3033861 8.4453125,10.1757812 C8.59635492,10.0481764 8.68749984,9.9713543 8.71875,9.9453125 C9.80208875,9.0859332 10.8463491,8.26042063 11.8515625,7.46875 C12.1328139,7.24479055 12.39453,6.9440123 12.6367188,6.56640625 C12.8789075,6.1888002 13,5.8463557 13,5.5390625 L13,5.5390625 Z M14,5.25 L14,13.75 C14,14.0937517 13.8776054,14.3880196 13.6328125,14.6328125 C13.3880196,14.8776054 13.0937517,15 12.75,15 L1.25,15 C0.906248281,15 0.611980391,14.8776054 0.3671875,14.6328125 C0.122394609,14.3880196 0,14.0937517 0,13.75 L0,5.25 C0,4.90624828 0.122394609,4.61198039 0.3671875,4.3671875 C0.611980391,4.12239461 0.906248281,4 1.25,4 L12.75,4 C13.0937517,4 13.3880196,4.12239461 13.6328125,4.3671875 C13.8776054,4.61198039 14,4.90624828 14,5.25 L14,5.25 Z" id=""></path>
                </g>
            </g>
        </g>
    </g>
</svg>