<?xml version="1.0" encoding="UTF-8" standalone="no"?>
<svg width="15px" height="12px" viewBox="0 0 15 12" version="1.1" xmlns="http://www.w3.org/2000/svg" xmlns:xlink="http://www.w3.org/1999/xlink" xmlns:sketch="http://www.bohemiancoding.com/sketch/ns">
    <!-- Generator: Sketch 3.3.1 (12002) - http://www.bohemiancoding.com/sketch -->
    <title>Type something</title>
    <desc>Created with Sketch.</desc>
    <defs></defs>
    <g id="Web-App-0.8" stroke="none" stroke-width="1" fill="none" fill-rule="evenodd" sketch:type="MSPage">
        <g id="Share-Modal" sketch:type="MSArtboardGroup" transform="translate(-899.000000, -468.000000)" fill="#949799">
            <g id="Group-Copy" sketch:type="MSLayerGroup" transform="translate(475.500000, 390.000000)">
                <g id="Group" sketch:type="MSShapeGroup">
                    <path d="M435,85.25 L435,87.75 C435,88.3697948 434.77995,88.8997374 434.339844,89.3398438 C433.899737,89.7799501 433.369795,90 432.75,90 L426.25,90 C425.630205,90 425.100263,89.7799501 424.660156,89.3398438 C424.22005,88.8997374 424,88.3697948 424,87.75 L424,81.25 C424,80.6302052 424.22005,80.1002626 424.660156,79.6601562 C425.100263,79.2200499 425.630205,79 426.25,79 L431.75,79 C431.822917,79 431.882812,79.0234373 431.929688,79.0703125 C431.976563,79.1171877 432,79.177083 432,79.25 L432,79.75 C432,79.822917 431.976563,79.8828123 431.929688,79.9296875 C431.882812,79.9765627 431.822917,80 431.75,80 L426.25,80 C425.906248,80 425.61198,80.1223946 425.367188,80.3671875 C425.122395,80.6119804 425,80.9062483 425,81.25 L425,87.75 C425,88.0937517 425.122395,88.3880196 425.367188,88.6328125 C425.61198,88.8776054 425.906248,89 426.25,89 L432.75,89 C433.093752,89 433.38802,88.8776054 433.632812,88.6328125 C433.877605,88.3880196 434,88.0937517 434,87.75 L434,85.25 C434,85.177083 434.023437,85.1171877 434.070312,85.0703125 C434.117188,85.0234373 434.177083,85 434.25,85 L434.75,85 C434.822917,85 434.882812,85.0234373 434.929688,85.0703125 C434.976563,85.1171877 435,85.177083 435,85.25 L435,85.25 Z M438,78.5 L438,82.5 C438,82.6354173 437.950521,82.7526037 437.851562,82.8515625 C437.752604,82.9505213 437.635417,83 437.5,83 C437.364583,83 437.247396,82.9505213 437.148438,82.8515625 L435.773438,81.4765625 L430.679688,86.5703125 C430.627604,86.6223961 430.567709,86.6484375 430.5,86.6484375 C430.432291,86.6484375 430.372396,86.6223961 430.320312,86.5703125 L429.429688,85.6796875 C429.377604,85.6276039 429.351562,85.5677087 429.351562,85.5 C429.351562,85.4322913 429.377604,85.3723961 429.429688,85.3203125 L434.523438,80.2265625 L433.148438,78.8515625 C433.049479,78.7526037 433,78.6354173 433,78.5 C433,78.3645827 433.049479,78.2473963 433.148438,78.1484375 C433.247396,78.0494787 433.364583,78 433.5,78 L437.5,78 C437.635417,78 437.752604,78.0494787 437.851562,78.1484375 C437.950521,78.2473963 438,78.3645827 438,78.5 L438,78.5 Z" id="Type-something"></path>
                </g>
            </g>
        </g>
    </g>
</svg>