<?xml version="1.0" encoding="UTF-8" standalone="no"?>
<svg width="35px" height="36px" viewBox="0 0 35 36" version="1.1" xmlns="http://www.w3.org/2000/svg" xmlns:xlink="http://www.w3.org/1999/xlink" xmlns:sketch="http://www.bohemiancoding.com/sketch/ns">
    <!-- Generator: Sketch 3.3.2 (12043) - http://www.bohemiancoding.com/sketch -->
    <title>Imported Layers</title>
    <desc>Created with Sketch.</desc>
    <defs></defs>
    <g id="Web-App-0.9" stroke="none" stroke-width="1" fill="none" fill-rule="evenodd" sketch:type="MSPage">
        <g id="Hover/Active-States" sketch:type="MSArtboardGroup" transform="translate(-51.000000, -940.000000)">
            <g id="Imported-Layers" sketch:type="MSLayerGroup" transform="translate(51.000000, 941.000000)">
                <path d="M34.2372857,17.163 C34.2372857,26.3751429 26.7685714,33.8438571 17.5564286,33.8438571 C8.34428571,33.8438571 0.875571429,26.3751429 0.875571429,17.163 C0.875571429,7.94957143 8.34428571,0.482142857 17.5564286,0.482142857 C26.7685714,0.482142857 34.2372857,7.94957143 34.2372857,17.163 L34.2372857,17.163 Z" id="Fill-1" sketch:type="MSShapeGroup"></path>
                <path d="M34.2372857,17.163 C34.2372857,26.3751429 26.7685714,33.8438571 17.5564286,33.8438571 C8.34428571,33.8438571 0.875571429,26.3751429 0.875571429,17.163 C0.875571429,7.94957143 8.34428571,0.482142857 17.5564286,0.482142857 C26.7685714,0.482142857 34.2372857,7.94957143 34.2372857,17.163 L34.2372857,17.163 Z" id="Stroke-2" stroke="#C5C7C7" sketch:type="MSShapeGroup"></path>
                <path d="M6.10328571,29.2834286 L6.10328571,27.8228571 C6.10328571,26.766 6.70628571,25.8017143 7.65642857,25.3388571 L9.17614286,25.1292857 C10.7807143,24.9081429 12.3068571,24.2961429 13.6195714,23.3472857 L17.4651429,20.5662857 L21.4161429,23.3794286 C22.7172857,24.3051429 24.2241429,24.903 25.8081429,25.1202857 L27.4397143,25.344 C28.3988571,25.803 29.0095714,26.7724286 29.0095714,27.8357143 L29.0095714,29.2795714" id="Stroke-3" stroke="#C5C7C7" sketch:type="MSShapeGroup"></path>
                <path d="M23.3922857,17.163 C23.3922857,18.5387143 23.0528571,19.8218571 22.4665714,20.9018571 C21.4148571,22.8381429 19.5698571,24.1225714 17.4702857,24.1225714 C15.4285714,24.1225714 13.6272857,22.9075714 12.5627143,21.0587143 C11.9224286,19.9465714 11.5482857,18.6055714 11.5482857,17.163 C11.5482857,13.3187143 14.2007143,10.2034286 17.4702857,10.2034286 C20.7411429,10.2034286 23.3922857,13.3187143 23.3922857,17.163 L23.3922857,17.163 Z" id="Fill-4" fill="#F6F6F6" sketch:type="MSShapeGroup"></path>
                <path d="M23.3922857,17.163 C23.3922857,18.5387143 23.0528571,19.8218571 22.4665714,20.9018571 C21.4148571,22.8381429 19.5698571,24.1225714 17.4702857,24.1225714 C15.4285714,24.1225714 13.6272857,22.9075714 12.5627143,21.0587143 C11.9224286,19.9465714 11.5482857,18.6055714 11.5482857,17.163 C11.5482857,13.3187143 14.2007143,10.2034286 17.4702857,10.2034286 C20.7411429,10.2034286 23.3922857,13.3187143 23.3922857,17.163 L23.3922857,17.163 Z" id="Stroke-5" stroke="#C5C7C7" sketch:type="MSShapeGroup"></path>
            </g>
        </g>
    </g>
</svg>