<?xml version="1.0" encoding="utf-8"?>
<!-- Generator: Adobe Illustrator 17.1.0, SVG Export Plug-In . SVG Version: 6.00 Build 0)  -->
<!DOCTYPE svg PUBLIC "-//W3C//DTD SVG 1.1//EN" "http://www.w3.org/Graphics/SVG/1.1/DTD/svg11.dtd">
<svg version="1.1" id="Layer_1" xmlns="http://www.w3.org/2000/svg" xmlns:xlink="http://www.w3.org/1999/xlink" x="0px" y="0px"
	 viewBox="0 0 60 27" enable-background="new 0 0 60 27" xml:space="preserve">
<g>
	<path fill="#FFFFFF" d="M15.8,7.1c-1.4-0.6-3-0.7-4.6-0.2c-0.3,0.1-0.4,0.4-0.3,0.7l2.4,5.7l-5.7-2.4c-0.3-0.1-0.6,0-0.7,0.3
		c-0.5,1.5-0.4,3.1,0.2,4.6c0.7,1.7,2,3,3.6,3.6c1.6,0.7,3.4,0.7,5.1,0c1.7-0.7,3-2,3.6-3.6c0.7-1.6,0.7-3.4,0-5.1
		C18.7,9,17.4,7.7,15.8,7.1z"/>
	<path fill="#FFFFFF" d="M48.4,0.1C43.3-0.5,38.7,1.8,36,5.6c-0.1,0.1-0.2,0.2-0.4,0.2h-0.8c-0.2,0-0.3-0.1-0.4-0.2
		C33.5,4,31.8,3,30,3s-3.5,1-4.3,2.5c-0.1,0.2-0.2,0.2-0.4,0.2h-0.8c-0.2,0-0.3-0.1-0.4-0.2c-2.7-3.8-7.3-6.1-12.5-5.5
		C5.6,0.8,0.8,5.7,0.1,11.7c-0.9,8,5.4,14.8,13.2,14.8c6.5,0,11.9-4.7,13-10.8c0-0.1,0.1-0.2,0.2-0.3l3-1.9c0.3-0.2,0.7-0.2,1,0
		l3,1.9c0.1,0.1,0.2,0.2,0.2,0.3c1.1,6.1,6.5,10.8,13,10.8c7.8,0,14.1-6.8,13.2-14.8C59.2,5.7,54.4,0.8,48.4,0.1z M30,6.5
		c0.9,0,1.6,0.7,1.6,1.6c0,0.9-0.7,1.6-1.6,1.6s-1.6-0.7-1.6-1.6C28.4,7.2,29.1,6.5,30,6.5z M13.2,23.1c-5.4,0-9.8-4.4-9.8-9.8
		s4.4-9.8,9.8-9.8s9.8,4.4,9.8,9.8S18.7,23.1,13.2,23.1z M46.8,23.1c-5.4,0-9.8-4.4-9.8-9.8s4.4-9.8,9.8-9.8c5.4,0,9.8,4.4,9.8,9.8
		S52.2,23.1,46.8,23.1z"/>
	<path fill="#FFFFFF" d="M49.3,7.1c-1.4-0.6-3-0.7-4.6-0.2c-0.3,0.1-0.4,0.4-0.3,0.7l2.4,5.7l-5.7-2.4c-0.3-0.1-0.6,0-0.7,0.3
		c-0.5,1.5-0.4,3.1,0.2,4.6c0.7,1.7,2,3,3.6,3.6c1.6,0.7,3.4,0.7,5.1,0c1.7-0.7,3-2,3.6-3.6c0.7-1.6,0.7-3.4,0-5.1
		C52.2,9,50.9,7.7,49.3,7.1z"/>
</g>
</svg>
