<?xml version="1.0" encoding="utf-8"?>
<!-- Generator: Adobe Illustrator 17.1.0, SVG Export Plug-In . SVG Version: 6.00 Build 0)  -->
<!DOCTYPE svg PUBLIC "-//W3C//DTD SVG 1.1//EN" "http://www.w3.org/Graphics/SVG/1.1/DTD/svg11.dtd">
<svg version="1.1" id="Layer_1" xmlns="http://www.w3.org/2000/svg" xmlns:xlink="http://www.w3.org/1999/xlink" x="0px" y="0px"
	 viewBox="66.7 30 66.7 30" enable-background="new 66.7 30 66.7 30" xml:space="preserve">
<g>
	<path fill="#2F2823" d="M84.8,38.1c-1.8-0.7-3.8-0.8-5.7,0l2.9,6.9L75,42.1c-0.7,1.8-0.8,3.8,0,5.7c0.8,1.9,2.3,3.3,4.1,4.1
		c1.8,0.7,3.8,0.8,5.7,0s3.3-2.3,4.1-4.1c0.7-1.8,0.8-3.8,0-5.7C88,40.2,86.5,38.8,84.8,38.1z"/>
	<path fill="#2F2823" d="M121,38.1c-1.8-0.7-3.8-0.8-5.7,0l2.9,6.9l-6.9-2.9c-0.7,1.8-0.8,3.8,0,5.7c0.8,1.9,2.3,3.3,4.1,4.1
		c1.8,0.7,3.8,0.8,5.7,0s3.3-2.3,4.1-4.1c0.7-1.8,0.8-3.8,0-5.7C124.2,40.2,122.7,38.8,121,38.1z"/>
	<path fill="#2F2823" d="M118.1,30.6c-4.4,0-8.2,1.9-10.9,5c-0.3,0.4-0.7,0.6-1.2,0.6h-2c-0.6-1.7-2.1-2.9-4-2.9
		c-1.9,0-3.4,1.2-4,2.9h-2c-0.5,0-0.9-0.2-1.2-0.6c-2.8-3.2-6.9-5.1-11.4-5c-7.3,0.3-13.3,6.1-13.8,13.4
		c-0.6,8.4,6.1,15.4,14.4,15.4c7.9,0,14.4-6.5,14.4-14.4v0.4c0-2,1.7-3.7,3.7-3.7s3.7,1.7,3.7,3.7V45c0,8.3,7,14.9,15.4,14.4
		c7.1-0.5,12.8-6.2,13.3-13.3C133,37.6,126.4,30.6,118.1,30.6z M81.9,56.5c-6.3,0-11.5-5.2-11.5-11.5s5.2-11.5,11.5-11.5
		c6.3,0,11.5,5.2,11.5,11.5S88.3,56.5,81.9,56.5z M100,38.8c-0.7,0-1.4-0.6-1.4-1.4s0.6-1.4,1.4-1.4s1.4,0.6,1.4,1.4
		S100.7,38.8,100,38.8z M118.1,56.5c-6.3,0-11.5-5.2-11.5-11.5s5.2-11.5,11.5-11.5c6.3,0,11.5,5.2,11.5,11.5S124.4,56.5,118.1,56.5z
		"/>
</g>
</svg>
