<?xml version="1.0" encoding="UTF-8" standalone="no"?>
<svg width="11px" height="11px" viewBox="0 0 11 11" version="1.1" xmlns="http://www.w3.org/2000/svg" xmlns:xlink="http://www.w3.org/1999/xlink" xmlns:sketch="http://www.bohemiancoding.com/sketch/ns">
    <!-- Generator: Sketch 3.3.2 (12043) - http://www.bohemiancoding.com/sketch -->
    <title>Imported Layers Copy 5</title>
    <desc>Created with Sketch.</desc>
    <defs></defs>
    <g id="Web-App-0.9" stroke="none" stroke-width="1" fill="none" fill-rule="evenodd" sketch:type="MSPage">
        <g id="Create-2-Copy-4" sketch:type="MSArtboardGroup" transform="translate(-422.000000, -440.000000)">
            <g id="Group" sketch:type="MSLayerGroup" transform="translate(422.500000, 397.000000)">
                <g id="Imported-Layers-Copy-5" transform="translate(0.000000, 43.000000)" sketch:type="MSShapeGroup">
                    <path d="M0.446315789,8.68615 L0.891052632,6.15175 L7.23368421,0.6325 L9.25421053,3.1691 L2.91157895,8.6878 L0.446315789,8.68615" id="Fill-1" fill="#FFFFFF"></path>
                    <path d="M7.19947368,1.02025 L8.88368421,3.13335 L2.81684211,8.41225 L0.762105263,8.41115 L1.13263158,6.29915 L7.19947368,1.02025 M7.26736842,0.24585 L0.649473684,6.0038 L0.130526316,8.9606 L0.761578947,8.96115 L2.81631579,8.96225 L3.00684211,8.9628 L9.62473684,3.2043 L7.26736842,0.24585" id="Fill-2" fill="#1A1918"></path>
                    <path d="M7.90526316,4.31805 L5.89157895,1.79025" id="Fill-3" fill="#FFFFFF"></path>
                    <path d="M7.90526316,4.31805 L5.89157895,1.79025" id="Stroke-4" stroke="#1A1918" stroke-width="0.526315789"></path>
                    <path d="M0.154210526,10.6128 L7.08421053,10.6128" id="Stroke-5" stroke="#1A1918" stroke-width="0.526315789"></path>
                </g>
            </g>
        </g>
    </g>
</svg>