<?xml version="1.0" encoding="UTF-8" standalone="no"?>
<svg width="10px" height="11px" viewBox="0 0 10 11" version="1.1" xmlns="http://www.w3.org/2000/svg" xmlns:xlink="http://www.w3.org/1999/xlink" xmlns:sketch="http://www.bohemiancoding.com/sketch/ns">
    <!-- Generator: Sketch 3.3.2 (12043) - http://www.bohemiancoding.com/sketch -->
    <title>Edit</title>
    <desc>Created with Sketch.</desc>
    <defs></defs>
    <g id="Web-App-0.9" stroke="none" stroke-width="1" fill="none" fill-rule="evenodd" sketch:type="MSPage">
        <g id="Icons" sketch:type="MSArtboardGroup" transform="translate(-68.000000, -11.000000)" fill="#C5C6C7">
            <g id="Edit" sketch:type="MSLayerGroup" transform="translate(68.000000, 11.052000)">
                <path d="M9.21833333,2.87944444 L7.18166667,0.433888889 L0.698333333,5.83222222 L0.543888889,5.96111111 L0.0172222222,8.83166667 L0.683333333,8.83222222 L2.73444444,8.83333333 L2.93611111,8.83388889 L3.09055556,8.705 L9.57388889,3.30666667 L9.21833333,2.87944444 L9.21833333,2.87944444 Z M2.735,8.27777778 L0.683888889,8.27666667 L1.05388889,6.25888889 L5.76388889,2.33722222 L7.445,4.35611111 L2.735,8.27777778 L2.735,8.27777778 Z M7.87166667,4.00055556 L6.19055556,1.98166667 L7.11055556,1.21611111 L8.79111111,3.235 L7.87166667,4.00055556 L7.87166667,4.00055556 Z" id="Fill-1" sketch:type="MSShapeGroup"></path>
                <path d="M0.0772222222,10.1022222 L6.99555556,10.1022222 L6.99555556,10.6577778 L0.0772222222,10.6577778 L0.0772222222,10.1022222 Z" id="Fill-2" sketch:type="MSShapeGroup"></path>
            </g>
        </g>
    </g>
</svg>