<?xml version="1.0" encoding="UTF-8" standalone="no"?>
<svg width="13px" height="16px" viewBox="0 0 13 16" version="1.1" xmlns="http://www.w3.org/2000/svg" xmlns:xlink="http://www.w3.org/1999/xlink" xmlns:sketch="http://www.bohemiancoding.com/sketch/ns">
    <!-- Generator: Sketch 3.3.2 (12043) - http://www.bohemiancoding.com/sketch -->
    <title>Imported Layers</title>
    <desc>Created with Sketch.</desc>
    <defs></defs>
    <g id="Web-App-0.9" stroke="none" stroke-width="1" fill="none" fill-rule="evenodd" sketch:type="MSPage">
        <g id="Sign-in" sketch:type="MSArtboardGroup" transform="translate(-611.000000, -529.000000)" fill="#C5C6C7">
            <g id="Group" sketch:type="MSLayerGroup" transform="translate(445.000000, 318.500000)">
                <g transform="translate(152.000000, 154.000000)" id="Rectangle-3-Copy-2-+-Name-of-the-product--Copy-2" sketch:type="MSShapeGroup">
                    <g transform="translate(0.000000, 44.500000)">
                        <g id="Imported-Layers" transform="translate(14.000000, 12.000000)">
                            <path d="M5.591625,11.2712 L5.591625,12.3432 C5.591625,12.7096 5.8963125,13.0096 6.2684375,13.0096 C6.641375,13.0096 6.9460625,12.7096 6.9460625,12.3432 L6.9460625,11.2712 C7.4254375,11.028 7.75775,10.5408 7.75775,9.972 C7.75775,9.1624 7.0906875,8.5056 6.2684375,8.5056 C5.4461875,8.5056 4.7799375,9.1624 4.7799375,9.972 C4.7799375,10.5408 5.1114375,11.028 5.591625,11.2712" id="Fill-1"></path>
                            <path d="M10.361,6.2936 L10.361,4.6344 C10.361,2.4128 8.5255625,0.6056 6.26925,0.6056 C4.012125,0.6056 2.1775,2.4128 2.1775,4.6344 L2.1775,6.2936 L0.1226875,6.2936 L0.1226875,15.2216 L12.415,15.2216 L12.415,6.2936 L10.361,6.2936 L10.361,6.2936 Z M2.99,4.6344 C2.99,2.8536 4.460625,1.4056 6.26925,1.4056 C8.0770625,1.4056 9.5485,2.8536 9.5485,4.6344 L9.5485,6.2936 L2.99,6.2936 L2.99,4.6344 L2.99,4.6344 Z M0.9351875,7.0936 L11.6025,7.0936 L11.6025,14.4216 L0.9351875,14.4216 L0.9351875,7.0936 Z" id="Fill-2"></path>
                        </g>
                    </g>
                </g>
            </g>
        </g>
    </g>
</svg>