<?xml version="1.0" encoding="UTF-8" standalone="no"?>
<svg width="14px" height="10px" viewBox="0 0 14 10" version="1.1" xmlns="http://www.w3.org/2000/svg" xmlns:xlink="http://www.w3.org/1999/xlink" xmlns:sketch="http://www.bohemiancoding.com/sketch/ns">
    <!-- Generator: Sketch 3.3.2 (12043) - http://www.bohemiancoding.com/sketch -->
    <title>Email Copy</title>
    <desc>Created with Sketch.</desc>
    <defs></defs>
    <g id="Web-App-0.9" stroke="none" stroke-width="1" fill="none" fill-rule="evenodd" sketch:type="MSPage">
        <g id="Sign-in" sketch:type="MSArtboardGroup" transform="translate(-610.000000, -489.000000)" fill="#C5C7C7">
            <g id="Group" sketch:type="MSLayerGroup" transform="translate(445.000000, 318.500000)">
                <g transform="translate(152.000000, 154.000000)" id="Rectangle-3-Copy-+-Name-of-the-product--Copy" sketch:type="MSShapeGroup">
                    <g transform="translate(0.000000, 0.500000)">
                        <path d="M13,26 L27,26 L27,16 L13,16 L13,26 Z M13.6666667,16.6666667 L26.3333333,16.6666667 L26.3333333,17.2866667 C26.3333333,17.8293333 26.068,18.34 25.646,18.6366667 L20,21.9446667 L14.3773333,18.652 C13.9326667,18.34 13.6666667,17.8293333 13.6666667,17.2866667 L13.6666667,16.6666667 L13.6666667,16.6666667 Z M13.6666667,25.3333333 L13.6666667,18.9 C13.7746667,19.012 13.886,19.1206667 14.0173333,19.2126667 L20,22.7173333 L26.006,19.1973333 C26.128,19.112 26.232,19.008 26.3333333,18.9033333 L26.3333333,25.3333333 L13.6666667,25.3333333 L13.6666667,25.3333333 Z" id="Email-Copy"></path>
                    </g>
                </g>
            </g>
        </g>
    </g>
</svg>