<?xml version="1.0" encoding="UTF-8" standalone="no"?>
<svg width="75px" height="75px" viewBox="0 0 75 75" version="1.1" xmlns="http://www.w3.org/2000/svg" xmlns:xlink="http://www.w3.org/1999/xlink" xmlns:sketch="http://www.bohemiancoding.com/sketch/ns">
    <!-- Generator: Sketch 3.3.2 (12043) - http://www.bohemiancoding.com/sketch -->
    <title>Oval 1 + Imported Layers Copy</title>
    <desc>Created with Sketch.</desc>
    <defs></defs>
    <g id="Web-App-0.9" stroke="none" stroke-width="1" fill="none" fill-rule="evenodd" sketch:type="MSPage">
        <g id="Hover/Active-States" sketch:type="MSArtboardGroup" transform="translate(-31.000000, -30.000000)">
            <g id="Oval-1-+-Imported-Layers-Copy" sketch:type="MSLayerGroup" transform="translate(31.000000, 30.000000)">
                <circle id="Oval-1" opacity="0.3" fill-opacity="0.300000012" fill="#C5C7C7" sketch:type="MSShapeGroup" cx="37.5" cy="37.5" r="37.5"></circle>
                <g id="Imported-Layers" transform="translate(15.000000, 28.000000)" fill="#949799" sketch:type="MSShapeGroup">
                    <path d="M11.9590631,5.24766667 C10.7347124,4.74141667 9.31683673,4.70141667 7.99572356,5.24766667 L9.97739332,10.0229167 L5.19328386,8.04491667 C4.68609462,9.267 4.64602041,10.68225 5.19328386,12.0009167 C5.74046382,13.3195833 6.77137291,14.292 7.99572356,14.79825 C9.2201577,15.3044167 10.6379499,15.3444167 11.9590631,14.79825 C13.2801763,14.252 14.254397,13.223 14.7615863,12.0009167 C15.268692,10.7788333 15.3087662,9.36358333 14.7615863,8.04491667 C14.2143228,6.72625 13.1834137,5.75383333 11.9590631,5.24766667" id="Fill-1"></path>
                    <path d="M37.0034416,5.24766667 C35.7790074,4.74141667 34.3612152,4.70141667 33.040102,5.24766667 L35.0217718,10.0229167 L30.2375788,8.04491667 C29.7304731,9.267 29.6903989,10.68225 30.2375788,12.0009167 C30.7848423,13.3195833 31.8157514,14.292 33.040102,14.79825 C34.2644527,15.3044167 35.6823284,15.3444167 37.0034416,14.79825 C38.3245547,14.252 39.2987755,13.223 39.8058813,12.0009167 C40.3130705,10.7788333 40.3531447,9.36358333 39.8058813,8.04491667 C39.2587013,6.72625 38.2277922,5.75383333 37.0034416,5.24766667" id="Fill-2"></path>
                    <path d="M35.0216883,0.0795833333 C32.0178757,0.0795833333 29.3222171,1.41508333 27.4944991,3.52091667 C27.2828571,3.76475 26.9713636,3.89891667 26.6480983,3.89891667 L25.2754731,3.89891667 C24.8871707,2.73875 23.7907236,1.89925 22.4995826,1.89925 C21.2084416,1.89925 20.1119944,2.73875 19.723692,3.89891667 L18.3507328,3.89891667 C18.0265492,3.89891667 17.7150557,3.76316667 17.5026623,3.51866667 C15.5966327,1.32391667 12.7476067,-0.0334166667 9.58967532,0.0869166667 C4.55217996,0.279 0.391391466,4.29366667 0.0404916512,9.31333333 C-0.365092764,15.1156667 4.24928571,19.9663333 9.97747681,19.9663333 C15.4703154,19.9663333 19.9391744,15.50575 19.9391744,10.0229167 L19.9391744,10.3023333 C19.9391744,8.89083333 21.0854638,7.74658333 22.4995826,7.74658333 C23.9137013,7.74658333 25.0599907,8.89083333 25.0599907,10.3023333 L25.0599907,10.0229167 C25.0599907,15.7409167 29.9204082,20.3470833 35.7338404,19.9414167 C40.6410946,19.599 44.6159555,15.6310833 44.9586735,10.733 C45.3645918,4.9305 40.7500464,0.0795833333 35.0216883,0.0795833333 L35.0216883,0.0795833333 Z M9.97747681,17.9785 C5.58258813,17.9785 2.00705009,14.4096667 2.00705009,10.0229167 C2.00705009,5.63616667 5.58258813,2.06733333 9.97747681,2.06733333 C14.3721985,2.06733333 17.9477365,5.63616667 17.9477365,10.0229167 C17.9477365,14.4096667 14.3721985,17.9785 9.97747681,17.9785 L9.97747681,17.9785 Z M22.4995826,5.7565 C21.9832096,5.7565 21.5631818,5.33725 21.5631818,4.82183333 C21.5631818,4.30633333 21.9832096,3.887 22.4995826,3.887 C23.0159555,3.887 23.4359833,4.30633333 23.4359833,4.82183333 C23.4359833,5.33725 23.0159555,5.7565 22.4995826,5.7565 L22.4995826,5.7565 Z M35.0216883,17.9785 C30.6268831,17.9785 27.0514286,14.4096667 27.0514286,10.0229167 C27.0514286,5.63616667 30.6268831,2.06733333 35.0216883,2.06733333 C39.416577,2.06733333 42.9920315,5.63616667 42.9920315,10.0229167 C42.9920315,14.4096667 39.416577,17.9785 35.0216883,17.9785 L35.0216883,17.9785 Z" id="Fill-3"></path>
                </g>
            </g>
        </g>
    </g>
</svg>