<?xml version="1.0" encoding="UTF-8" standalone="no"?>
<svg width="16px" height="22px" viewBox="0 0 16 22" version="1.1" xmlns="http://www.w3.org/2000/svg" xmlns:xlink="http://www.w3.org/1999/xlink" xmlns:sketch="http://www.bohemiancoding.com/sketch/ns">
    <!-- Generator: Sketch 3.3.2 (12043) - http://www.bohemiancoding.com/sketch -->
    <title>DeleteHover</title>
    <desc>Created with Sketch.</desc>
    <defs></defs>
    <g id="Web-App-0.9" stroke="none" stroke-width="1" fill="none" fill-rule="evenodd" sketch:type="MSPage">
        <g id="Icons" sketch:type="MSArtboardGroup" transform="translate(-47.000000, -35.000000)" fill="#C5C6C7">
            <g id="DeleteHover" sketch:type="MSLayerGroup" transform="translate(47.000000, 35.052000)">
                <path d="M2.606,21.193 L13.864,21.193 L14.716,6.399 L1.754,6.399 L2.606,21.193 L2.606,21.193 Z M13.657,7.399 L12.921,20.193 L3.549,20.193 L2.813,7.399 L13.657,7.399 L13.657,7.399 Z" id="Fill-1" sketch:type="MSShapeGroup"></path>
                <path d="M10.783,2.544 L10.874,1.041 L5.869,0.737 L5.778,2.24 L0.769,1.936 L0.586,4.937 L15.61,5.85 L15.792,2.848 L10.783,2.544 L10.783,2.544 Z M6.807,1.796 L9.815,1.979 L9.785,2.483 L6.776,2.3 L6.807,1.796 L6.807,1.796 Z M14.673,4.791 L1.645,4 L1.706,2.994 L5.717,3.238 L10.723,3.542 L14.734,3.785 L14.673,4.791 L14.673,4.791 Z" id="Fill-2" sketch:type="MSShapeGroup"></path>
                <path d="M5.728,9.205 L6.728,9.205 L6.728,18.14 L5.728,18.14 L5.728,9.205 Z" id="Fill-3" sketch:type="MSShapeGroup"></path>
                <path d="M9.742,9.205 L10.742,9.205 L10.742,18.14 L9.742,18.14 L9.742,9.205 Z" id="Fill-4" sketch:type="MSShapeGroup"></path>
            </g>
        </g>
    </g>
</svg>