<?xml version="1.0" encoding="UTF-8" standalone="no"?>
<svg width="9px" height="11px" viewBox="0 0 9 11" version="1.1" xmlns="http://www.w3.org/2000/svg" xmlns:xlink="http://www.w3.org/1999/xlink" xmlns:sketch="http://www.bohemiancoding.com/sketch/ns">
    <!-- Generator: Sketch 3.3.2 (12043) - http://www.bohemiancoding.com/sketch -->
    <title>Delete</title>
    <desc>Created with Sketch.</desc>
    <defs></defs>
    <g id="Web-App-0.9" stroke="none" stroke-width="1" fill="none" fill-rule="evenodd" sketch:type="MSPage">
        <g id="Icons" sketch:type="MSArtboardGroup" transform="translate(-47.000000, -11.000000)" fill="#C5C6C7">
            <g id="Delete" sketch:type="MSLayerGroup" transform="translate(47.000000, 11.052000)">
                <path d="M8.857125,1.323 L6.0345,1.323 L6.0345,0.4764375 L3.2135625,0.4764375 L3.2135625,1.323 L0.390375,1.323 L0.390375,3.0144375 L1.0108125,3.0144375 L1.458,10.7735625 L7.790625,10.7735625 L8.23725,3.0144375 L8.857125,3.0144375 L8.857125,1.323 L8.857125,1.323 Z M3.7760625,1.0389375 L5.472,1.0389375 L5.472,1.323 L3.7760625,1.323 L3.7760625,1.0389375 Z M7.259625,10.2110625 L1.9884375,10.2110625 L1.573875,3.0144375 L7.6741875,3.0144375 L7.259625,10.2110625 L7.259625,10.2110625 Z M0.952875,1.8855 L8.294625,1.8855 L8.294625,2.4525 L0.952875,2.4525 L0.952875,1.8855 Z" id="Fill-1" sketch:type="MSShapeGroup"></path>
                <path d="M3.2135625,4.0303125 L3.7760625,4.0303125 L3.7760625,9.0556875 L3.2135625,9.0556875 L3.2135625,4.0303125 Z" id="Fill-2" sketch:type="MSShapeGroup"></path>
                <path d="M5.472,4.0303125 L6.0345,4.0303125 L6.0345,9.0556875 L5.472,9.0556875 L5.472,4.0303125 Z" id="Fill-3" sketch:type="MSShapeGroup"></path>
            </g>
        </g>
    </g>
</svg>