<?xml version="1.0" encoding="UTF-8" standalone="no"?>
<svg width="9px" height="13px" viewBox="0 0 9 13" version="1.1" xmlns="http://www.w3.org/2000/svg" xmlns:xlink="http://www.w3.org/1999/xlink" xmlns:sketch="http://www.bohemiancoding.com/sketch/ns">
    <!-- Generator: Sketch 3.3.2 (12043) - http://www.bohemiancoding.com/sketch -->
    <title>DeleteHover</title>
    <desc>Created with Sketch.</desc>
    <defs></defs>
    <g id="Styleguide-1.0" stroke="none" stroke-width="1" fill="none" fill-rule="evenodd" sketch:type="MSPage">
        <g id="DeleteHover" sketch:type="MSLayerGroup" transform="translate(0.000000, 0.395792)" fill="#C5C7C7">
            <path d="M1.465875,12.4835625 L7.7985,12.4835625 L8.27775,4.1619375 L0.986625,4.1619375 L1.465875,12.4835625 L1.465875,12.4835625 Z M7.6820625,4.7244375 L7.2680625,11.9210625 L1.9963125,11.9210625 L1.5823125,4.7244375 L7.6820625,4.7244375 L7.6820625,4.7244375 Z" id="Fill-1" sketch:type="MSShapeGroup"></path>
            <path d="M6.0654375,1.431 L6.116625,0.5855625 L3.3013125,0.4145625 L3.250125,1.26 L0.4325625,1.089 L0.329625,2.7770625 L8.780625,3.290625 L8.883,1.602 L6.0654375,1.431 L6.0654375,1.431 Z M3.8289375,1.01025 L5.5209375,1.1131875 L5.5040625,1.3966875 L3.8115,1.29375 L3.8289375,1.01025 L3.8289375,1.01025 Z M8.2535625,2.6949375 L0.9253125,2.25 L0.959625,1.684125 L3.2158125,1.821375 L6.0316875,1.992375 L8.287875,2.1290625 L8.2535625,2.6949375 L8.2535625,2.6949375 Z" id="Fill-2" sketch:type="MSShapeGroup"></path>
            <path d="M3.222,5.7403125 L3.7845,5.7403125 L3.7845,10.76625 L3.222,10.76625 L3.222,5.7403125 Z" id="Fill-3" sketch:type="MSShapeGroup"></path>
            <path d="M5.479875,5.7403125 L6.042375,5.7403125 L6.042375,10.76625 L5.479875,10.76625 L5.479875,5.7403125 Z" id="Fill-4" sketch:type="MSShapeGroup"></path>
        </g>
    </g>
</svg>