<?xml version="1.0" encoding="UTF-8" standalone="no"?>
<svg width="16px" height="20px" viewBox="0 0 16 20" version="1.1" xmlns="http://www.w3.org/2000/svg" xmlns:xlink="http://www.w3.org/1999/xlink" xmlns:sketch="http://www.bohemiancoding.com/sketch/ns">
    <!-- Generator: Sketch 3.3.2 (12043) - http://www.bohemiancoding.com/sketch -->
    <title>Delete</title>
    <desc>Created with Sketch.</desc>
    <defs></defs>
    <g id="Web-App-0.9" stroke="none" stroke-width="1" fill="none" fill-rule="evenodd" sketch:type="MSPage">
        <g id="Icons" sketch:type="MSArtboardGroup" transform="translate(-47.000000, -11.000000)" fill="#C5C6C7">
            <g id="Delete" sketch:type="MSLayerGroup" transform="translate(47.000000, 11.052000)">
                <path d="M15.746,2.352 L10.728,2.352 L10.728,0.847 L5.713,0.847 L5.713,2.352 L0.694,2.352 L0.694,5.359 L1.797,5.359 L2.592,19.153 L13.85,19.153 L14.644,5.359 L15.746,5.359 L15.746,2.352 L15.746,2.352 Z M6.713,1.847 L9.728,1.847 L9.728,2.352 L6.713,2.352 L6.713,1.847 Z M12.906,18.153 L3.535,18.153 L2.798,5.359 L13.643,5.359 L12.906,18.153 L12.906,18.153 Z M1.694,3.352 L14.746,3.352 L14.746,4.36 L1.694,4.36 L1.694,3.352 Z" id="Fill-1" sketch:type="MSShapeGroup"></path>
                <path d="M5.713,7.165 L6.713,7.165 L6.713,16.099 L5.713,16.099 L5.713,7.165 Z" id="Fill-2" sketch:type="MSShapeGroup"></path>
                <path d="M9.728,7.165 L10.728,7.165 L10.728,16.099 L9.728,16.099 L9.728,7.165 Z" id="Fill-3" sketch:type="MSShapeGroup"></path>
            </g>
        </g>
    </g>
</svg>