<?xml version="1.0" encoding="UTF-8" standalone="no"?>
<svg width="50px" height="54px" viewBox="0 0 50 54" version="1.1" xmlns="http://www.w3.org/2000/svg" xmlns:xlink="http://www.w3.org/1999/xlink" xmlns:sketch="http://www.bohemiancoding.com/sketch/ns">
    <!-- Generator: Sketch 3.3.2 (12043) - http://www.bohemiancoding.com/sketch -->
    <title>Imported Layers Copy 4 + Imported Layers Copy 3 Copy Copy</title>
    <desc>Created with Sketch.</desc>
    <defs>
        <ellipse id="path-1" cx="25" cy="24.7261191" rx="25" ry="24.7261191"></ellipse>
        <path id="path-3" d="M4.18209877,32.8885434 L4.18209877,30.2765016 L3.21446446,30.0533313 C1.42767768,29.6412293 0.179763096,28.0872872 0.179763096,26.2730484 L0.179763096,4.36275334 C0.179763096,2.54851457 1.42767768,0.993747428 3.21446446,0.582057958 L4.12454121,0.372500592 L4.44152486,0.491304768 L4.59167501,0.509455406 C5.2181348,0.585358074 5.82165499,0.811416019 6.33758759,1.1637034 L6.46271271,1.24950642 L14.8832165,4.40771742 C16.0318652,4.83838256 17.2376543,5.05701524 18.466383,5.05701524 C19.6951118,5.05701524 20.9009009,4.83838256 22.0495495,4.40771742 L30.4854855,1.2433187 L30.6097764,1.15875323 C31.120287,0.812241048 31.7183851,0.587833161 32.3390057,0.511105464 L32.4870704,0.492542312 L32.8082249,0.372088078 L33.71997,0.5804079 C35.5105105,0.990034797 36.7609276,2.54521446 36.7609276,4.36275334 L36.7609276,26.2730484 C36.7609276,28.0905873 35.5105105,29.6453545 33.71997,30.0549814 L32.7506673,30.2765016 L32.7506673,32.8885434 L4.18209877,32.8885434 L4.18209877,32.8885434 Z"></path>
        <path id="path-5" d="M0.0446279613,18.6262672 C0.0333667,16.5636947 0.0112612613,12.6493446 0.0112612613,12.6493446 C0.0112612613,7.54035252 2.81948615,2.81087379 7.33983984,0.313098505 C7.39322656,0.283397461 7.42867868,0.277209743 7.46496496,0.277209743 C7.97005339,0.277209743 8.99774775,1.19546702 9.74808141,1.86539056 C11.0548048,3.03239408 12.5358692,4.35532808 14.2955455,4.35532808 C16.1069403,4.35532808 17.6751752,3.14418551 19.0594761,2.07577296 C19.9607941,1.379861 20.9822322,0.591133277 21.5865866,0.591133277 C21.6896063,0.591133277 21.7755255,0.616709176 21.8735402,0.677761322 C26.0727394,3.28237787 28.5798298,7.76022275 28.5798298,12.6559448 L28.5798298,18.6262672 L0.0446279613,18.6262672"></path>
        <path id="path-7" d="M0.0446279613,18.6262672 C0.0333667,16.5636947 0.0112612613,12.6493446 0.0112612613,12.6493446 C0.0112612613,7.54035252 2.81948615,2.81087379 7.33983984,0.313098505 C7.39322656,0.283397461 7.42867868,0.277209743 7.46496496,0.277209743 C7.97005339,0.277209743 8.99774775,1.19546702 9.74808141,1.86539056 C11.0548048,3.03239408 12.5358692,4.35532808 14.2955455,4.35532808 C16.1069403,4.35532808 17.6751752,3.14418551 19.0594761,2.07577296 C19.9607941,1.379861 20.9822322,0.591133277 21.5865866,0.591133277 C21.6896063,0.591133277 21.7755255,0.616709176 21.8735402,0.677761322 C26.0727394,3.28237787 28.5798298,7.76022275 28.5798298,12.6559448 L28.5798298,18.6262672 L0.0446279613,18.6262672"></path>
    </defs>
    <g id="Web-App-0.9" stroke="none" stroke-width="1" fill="none" fill-rule="evenodd" sketch:type="MSPage">
        <g id="Overview" sketch:type="MSArtboardGroup" transform="translate(-1350.000000, -929.000000)">
            <g id="Imported-Layers-Copy-4-+-Imported-Layers-Copy-3-Copy-Copy" sketch:type="MSLayerGroup" transform="translate(1350.000000, 929.000000)">
                <g id="Imported-Layers-Copy-4" transform="translate(0.000000, 4.273650)">
                    <mask id="mask-2" sketch:name="Mask" fill="white">
                        <use xlink:href="#path-1"></use>
                    </mask>
                    <use id="Mask" fill="#F5A25B" sketch:type="MSShapeGroup" xlink:href="#path-1"></use>
                    <g id="Imported-Layers-Copy-2" mask="url(#mask-2)">
                        <g transform="translate(3.697865, -3.917036)">
                            <path d="M8.52477477,48.9623814 C7.24641308,48.9623814 6.20662329,47.9335702 6.20662329,46.6696258 L6.20662329,30.9577735 L5.55263597,30.9697365 L5.50633967,30.9726241 C4.06197865,30.9726241 2.87871205,29.8019079 2.87871205,28.3634699 C2.87871205,26.9246193 4.06197865,25.7543157 5.51676677,25.7543157 L5.56890224,25.7572033 L6.20662329,25.7695787 L6.20662329,21.1316782 C6.20662329,19.8673212 7.24641308,18.8389226 8.52477477,18.8389226 L33.7078745,18.8389226 C34.9866533,18.8389226 36.0264431,19.8673212 36.0264431,21.1316782 L36.0264431,25.7530781 L36.6504004,25.7547282 C38.1014348,25.7580283 39.2817818,26.9283319 39.2817818,28.3634699 C39.2817818,29.7977828 38.1014348,30.9680864 36.6504004,30.9722116 L36.0264431,30.9738616 L36.0264431,46.6696258 C36.0264431,47.9335702 34.9866533,48.9623814 33.7078745,48.9623814 L8.52477477,48.9623814" id="Fill-13" fill="#FCDE98" sketch:type="MSShapeGroup"></path>
                            <path d="M33.7082916,19.4576943 C34.641308,19.4576943 35.4008175,20.2084707 35.4008175,21.1316782 L35.4008175,26.3701998 L36.6487321,26.3734999 C37.7556723,26.3763875 38.6561562,27.2690689 38.6561562,28.3634699 C38.6561562,29.4578708 37.7556723,30.3505522 36.6487321,30.3534398 L35.4008175,30.3563274 L35.4008175,46.6692133 C35.4008175,47.5924207 34.641308,48.3436096 33.7082916,48.3436096 L8.52477477,48.3436096 C7.59175843,48.3436096 6.83224892,47.5924207 6.83224892,46.6692133 L6.83224892,30.3258013 L5.55638972,30.3509647 L5.48840507,30.3534398 C4.39147481,30.3385893 3.50392059,29.4516831 3.50392059,28.3634699 C3.50392059,27.2752566 4.39147481,26.3883504 5.48798799,26.3730874 L5.55764097,26.375975 L6.83224892,26.3999008 L6.83224892,21.1316782 C6.83224892,20.2084707 7.59175843,19.4576943 8.52477477,19.4576943 L33.7082916,19.4576943 M33.7082916,18.2201508 L8.52477477,18.2201508 C6.89898232,18.2201508 5.58099766,19.5236967 5.58099766,21.1316782 L5.58099766,25.138844 L5.51634968,25.1355439 C3.7141308,25.1355439 2.25266934,26.5805822 2.25266934,28.3634699 C2.25266934,30.145945 3.7141308,31.5913958 5.51634968,31.5913958 L5.58099766,31.5880957 L5.58099766,46.6692133 C5.58099766,48.2776073 6.89898232,49.5811531 8.52477477,49.5811531 L33.7082916,49.5811531 C35.3340841,49.5811531 36.6520687,48.2776073 36.6520687,46.6692133 L36.6520687,31.5909833 C38.4505339,31.5864456 39.9074074,30.1434699 39.9074074,28.3634699 C39.9074074,26.5834698 38.4505339,25.1404941 36.6520687,25.1359564 L36.6520687,21.1316782 C36.6520687,19.5236967 35.3340841,18.2201508 33.7082916,18.2201508" id="Fill-14" fill="#A1855B" sketch:type="MSShapeGroup"></path>
                            <path d="M6.19828161,74.4842409 L6.19828161,71.7451446 L5.71488155,71.6333532 C3.64280948,71.1560739 2.19636303,69.3537981 2.19636303,67.2507991 L2.19636303,45.339679 C2.19636303,43.2366801 3.64280948,41.4344043 5.71488155,40.9567125 L6.19828161,40.8453336 L6.19828161,40.474483 L7.23473473,40.8630717 L7.30980981,40.8725595 C8.03595262,40.9604251 8.73623624,41.2231968 9.3351685,41.6319987 L9.39773106,41.6749002 L17.7464965,44.8062978 C18.824658,45.2109745 19.9557891,45.4155817 21.1086086,45.4155817 C22.261011,45.4155817 23.3921421,45.2109745 24.4698866,44.8062978 L32.8349183,41.6687125 L32.8970637,41.6262235 C33.4897397,41.2236094 34.18335,40.9637252 34.9032366,40.8746221 L34.9770604,40.8651343 L36.0176844,40.4748955 L36.0176844,40.844096 L36.5027528,40.9546499 C38.5785786,41.4298666 40.0287788,43.2329675 40.0287788,45.339679 L40.0287788,67.2507991 C40.0287788,69.3575107 38.5785786,71.1606116 36.5027528,71.6350032 L36.0176844,71.7463822 L36.0176844,74.4842409 L6.19828161,74.4842409" id="Fill-15" fill="#CAA670" sketch:type="MSShapeGroup"></path>
                            <path d="M35.4504505,41.3494263 L36.3617784,41.5577461 C38.152319,41.967373 39.4031532,43.5225527 39.4031532,45.3400915 L39.4031532,67.2503866 C39.4031532,69.0679255 38.152319,70.6231052 36.3617784,71.0323196 L35.3924758,71.2542524 L35.3924758,73.8658817 L6.82390724,73.8658817 L6.82390724,71.2538398 L5.85669002,71.0306695 C4.06990324,70.61898 2.82157157,69.0646254 2.82157157,67.2503866 L2.82157157,45.3400915 C2.82157157,43.5258528 4.06990324,41.9710856 5.85669002,41.5593962 L6.76676677,41.3498388 L6.94194194,41.4154286 L7.08333333,41.468643 L7.23390057,41.4867936 C7.85994328,41.5626963 8.46388055,41.7887542 8.97939606,42.1410416 L9.10452119,42.2268446 L9.24674675,42.280059 L17.525025,45.3850556 C18.6740908,45.8157208 19.8794628,46.0343534 21.1081915,46.0343534 C22.3369203,46.0343534 23.5427094,45.8157208 24.691358,45.3850556 L32.9867367,42.2734588 L33.127711,42.2206569 L33.252002,42.1360914 C33.7616783,41.7891667 34.3597764,41.5651714 34.9803971,41.4884437 L35.1288789,41.4698805 L35.2686019,41.4174912 L35.4504505,41.3494263 M36.6437271,39.5785015 L34.8252419,40.260388 C33.9852352,40.3643417 33.2077911,40.6642397 32.5429596,41.1163556 L24.247998,44.2279525 C23.2365699,44.6070533 22.1725893,44.79681 21.1081915,44.79681 C20.0442109,44.79681 18.9798131,44.6070533 17.9683851,44.2279525 L9.69052386,41.1229558 C9.01985319,40.6646522 8.23448448,40.3610415 7.38571905,40.2583254 L5.57265599,39.5785015 L5.57265599,40.3544413 C3.2803637,40.8824599 1.5707374,42.9116187 1.5707374,45.3400915 L1.5707374,67.2503866 C1.5707374,69.6788595 3.2803637,71.7076058 5.57265599,72.2360369 L5.57265599,75.1034251 L36.6437271,75.1034251 L36.6437271,72.2380994 C38.9401902,71.7129685 40.6544044,69.6817471 40.6544044,67.2503866 L40.6544044,45.3400915 C40.6544044,42.9087311 38.9401902,40.8775097 36.6437271,40.3519662 L36.6437271,39.5785015" id="Fill-16" fill="#A1855B" sketch:type="MSShapeGroup"></path>
                            <g id="Group-22" stroke-width="1" fill="none" sketch:type="MSLayerGroup" transform="translate(2.641808, 40.977338)">
                                <mask id="mask-4" sketch:name="Clip 18" fill="white">
                                    <use xlink:href="#path-3"></use>
                                </mask>
                                <g id="Clip-18"></g>
                            </g>
                            <path d="M25.5847514,41.9747983 L23.9714715,42.5102421 C23.0989323,42.7998273 22.1759259,43.091475 21.2737738,43.091475 C20.9029863,43.091475 20.5355355,43.0423858 20.1768435,42.9231691 L18.5635636,42.8002398 C18.4797297,42.8002398 18.4000667,42.7998273 18.3254087,42.7998273 C17.7736069,42.7998273 17.4987487,42.8295283 17.8591091,43.3286708 L18.6770103,44.4601981 C19.4715549,44.684606 20.2898732,44.79681 21.1081915,44.79681 C22.1725893,44.79681 23.2365699,44.6070533 24.247998,44.2279525 L26.1565732,43.5118273 L26.2887888,43.3286708 C26.698365,42.7618759 26.2887888,41.9747983 25.5847514,41.9747983" id="Fill-26" fill="#E8CB8B" sketch:type="MSShapeGroup"></path>
                            <path d="M24.8448448,45.3273036 L24.691358,45.3850556 C23.5427094,45.8157208 22.3369203,46.0343534 21.1081915,46.0343534 C20.6514848,46.0343534 20.1976977,46.0042399 19.7489156,45.9440128 L20.7528362,47.3337741 L20.7528362,71.5764262 L22.0741575,73.0334274 L23.4288455,71.5764262 L23.4288455,47.2875725 L24.8448448,45.3273036" id="Fill-27" fill="#BE9C6A" sketch:type="MSShapeGroup"></path>
                            <path d="M26.1565732,43.5118273 L24.247998,44.2279525 C23.2365699,44.6070533 22.1725893,44.79681 21.1081915,44.79681 C20.2898732,44.79681 19.4715549,44.684606 18.6770103,44.4601981 L19.7489156,45.9440128 C20.1976977,46.0042399 20.6514848,46.0343534 21.1081915,46.0343534 C22.3369203,46.0343534 23.5427094,45.8157208 24.691358,45.3850556 L24.8448448,45.3273036 L26.1565732,43.5118273" id="Fill-28" fill="#9B8058" sketch:type="MSShapeGroup"></path>
                            <path d="M25.6836003,43.1529397 L21.8797965,48.4178622 C21.5056723,48.9359804 20.7273941,48.9359804 20.3532699,48.4178622 L16.5494661,43.1529397 C16.105689,42.5387056 16.5494661,41.6856256 17.3127294,41.6856256 L19.0607274,42.2660335 C20.3945612,42.7090741 21.8385052,42.7090741 23.172339,42.2660335 L24.920337,41.6856256 C25.6836003,41.6856256 26.1273774,42.5387056 25.6836003,43.1529397" id="Fill-29" fill="#343433" sketch:type="MSShapeGroup"></path>
                            <path d="M5.92425759,40.7318921 C5.60560561,40.6159755 5.42125459,40.2896765 5.48465132,39.9629651 L6.15407074,38.1474887 L17.3627794,42.2268446 L16.1286286,45.1878737 L5.92425759,40.7318921" id="Fill-30" fill="#A1855B" sketch:type="MSShapeGroup"></path>
                            <path d="M6.65123457,39.2072385 L16.2608442,42.7049489 L15.6831832,44.0914102 L6.35301969,40.0157669 L6.65123457,39.2072385 M5.65690691,37.086914 L4.68259927,39.7303069 C4.49657991,40.4757206 4.90699032,41.240935 5.63605272,41.5061818 L16.573657,46.2843372 L18.4638805,41.7487403 L5.65690691,37.086914" id="Fill-31" fill="#A1855B" sketch:type="MSShapeGroup"></path>
                            <path d="M25.0058392,42.2025063 L36.1465632,38.1470762 L36.8159826,39.9629651 C36.8793794,40.2896765 36.6950284,40.6159755 36.3763764,40.7318921 L26.4109943,44.9321147 L25.0058392,42.2025063" id="Fill-32" fill="#A1855B" sketch:type="MSShapeGroup"></path>
                            <path d="M35.6493994,39.2072385 L35.9471972,40.0149419 L26.8009676,43.8707149 L26.175342,42.6554472 L35.6493994,39.2072385 M36.6437271,37.086914 L23.8363363,41.7487403 L26.0214381,45.993102 L36.6645812,41.5061818 C37.3936436,41.240935 37.8040541,40.4757206 37.6180347,39.7303069 L36.6437271,37.086914" id="Fill-33" fill="#A1855B" sketch:type="MSShapeGroup"></path>
                            <path d="M22.4545379,71.2851909 L21.0998498,72.7417796 L19.7785285,71.2851909 L19.7785285,46.1981217 L22.4545379,46.1981217 L22.4545379,71.2851909" id="Fill-36" fill="#343433" sketch:type="MSShapeGroup"></path>
                            <path d="M29.2805305,27.7904872 C29.2805305,28.4649484 28.7274775,29.0119427 28.0451285,29.0119427 C27.3627794,29.0119427 26.8097264,28.4649484 26.8097264,27.7904872 C26.8097264,27.1156135 27.3627794,26.5686193 28.0451285,26.5686193 C28.7274775,26.5686193 29.2805305,27.1156135 29.2805305,27.7904872" id="Fill-37" fill="#1A1918" sketch:type="MSShapeGroup"></path>
                            <path d="M15.5167668,27.7904872 C15.5167668,28.4649484 14.9641308,29.0119427 14.2817818,29.0119427 C13.5994328,29.0119427 13.0463797,28.4649484 13.0463797,27.7904872 C13.0463797,27.1156135 13.5994328,26.5686193 14.2817818,26.5686193 C14.9641308,26.5686193 15.5167668,27.1156135 15.5167668,27.7904872" id="Fill-38" fill="#1A1918" sketch:type="MSShapeGroup"></path>
                            <path d="M28.8484318,58.9984466 C28.7328996,58.9984466 28.6186186,58.9778209 28.5105939,58.9369819 L24.8177344,57.5459831 C24.7030364,57.502669 24.6254588,57.3917026 24.6254588,57.2695983 L24.6254588,51.8025437 C24.6254588,51.6396005 24.7593427,51.5067708 24.9245078,51.5067708 L32.7727728,51.5067708 C32.9379379,51.5067708 33.0718218,51.6396005 33.0718218,51.8025437 L33.0718218,57.2695983 C33.0718218,57.3917026 32.9946613,57.502669 32.8795462,57.5459831 L29.1871038,58.9369819 C29.078662,58.9778209 28.964381,58.9984466 28.8484318,58.9984466" id="Fill-43" fill="#CAA670" sketch:type="MSShapeGroup"></path>
                            <path d="M32.6547381,51.9196978 L32.6547381,57.189158 L29.0382049,58.5516934 C28.9773106,58.5743817 28.9134968,58.5863446 28.8488488,58.5863446 C28.7833667,58.5863446 28.7195529,58.5743817 28.6590757,58.5516934 L25.0425425,57.189158 L25.0425425,51.9196978 L32.6547381,51.9196978 M32.7727728,51.0946688 L24.9245078,51.0946688 C24.5291124,51.0946688 24.208375,51.4114799 24.208375,51.8025437 L24.208375,57.2695983 C24.208375,57.5637212 24.3918919,57.8269054 24.6696697,57.9316841 L28.3621121,59.322683 C28.5189356,59.3816726 28.6836837,59.4113736 28.8488488,59.4113736 C29.0135969,59.4113736 29.178345,59.3816726 29.3351685,59.322683 L33.0276109,57.9316841 C33.3053887,57.8269054 33.4889056,57.5637212 33.4889056,57.2695983 L33.4889056,51.8025437 C33.4889056,51.4114799 33.1681682,51.0946688 32.7727728,51.0946688" id="Fill-44" fill="#A1855B" sketch:type="MSShapeGroup"></path>
                            <path d="M13.2361528,58.9984466 C13.1202035,58.9984466 13.0063397,58.9778209 12.898315,58.9369819 L9.20503837,57.5459831 C9.09034034,57.502669 9.01276276,57.3917026 9.01276276,57.2695983 L9.01276276,51.8025437 C9.01276276,51.6396005 9.14706373,51.5067708 9.31181181,51.5067708 L17.1604938,51.5067708 C17.3252419,51.5067708 17.4591258,51.6396005 17.4591258,51.8025437 L17.4591258,57.2695983 C17.4591258,57.3917026 17.3819653,57.502669 17.2672673,57.5459831 L13.5744077,58.9369819 C13.465966,58.9778209 13.3521021,58.9984466 13.2361528,58.9984466" id="Fill-45" fill="#CAA670" sketch:type="MSShapeGroup"></path>
                            <path d="M17.042042,51.9196978 L17.042042,57.189158 L13.4259259,58.5516934 C13.3650317,58.5743817 13.3012179,58.5863446 13.2361528,58.5863446 C13.1710878,58.5863446 13.1072739,58.5743817 13.0463797,58.5516934 L9.42984651,57.189158 L9.42984651,51.9196978 L17.042042,51.9196978 M17.1600767,51.0946688 L9.31181181,51.0946688 C8.91641642,51.0946688 8.59567901,51.4114799 8.59567901,51.8025437 L8.59567901,57.2695983 C8.59567901,57.5637212 8.77919586,57.8269054 9.05697364,57.9316841 L12.7494161,59.322683 C12.9062396,59.3816726 13.0709877,59.4113736 13.2361528,59.4113736 C13.4009009,59.4113736 13.5660661,59.3816726 13.7224725,59.322683 L17.4149149,57.9316841 C17.6926927,57.8269054 17.8762095,57.5637212 17.8762095,57.2695983 L17.8762095,51.8025437 C17.8762095,51.4114799 17.5558892,51.0946688 17.1600767,51.0946688" id="Fill-46" fill="#A1855B" sketch:type="MSShapeGroup"></path>
                            <path d="M21.1290457,41.1600821 C14.0019186,41.1600821 6.42767768,39.2183764 6.42767768,35.6208374 L6.42767768,20.1639192 L7.06664998,20.1639192 L7.06664998,30.9326102 C7.06664998,31.5938709 7.32691024,32.2155303 7.79863197,32.6829092 C8.27118785,33.1502881 8.89931598,33.4076972 9.56790123,33.4076972 L32.6810143,33.4060471 C34.0607274,33.4060471 35.1835169,32.2959706 35.1835169,30.9309601 L35.1835169,20.1639192 L35.8220721,20.1639192 L35.8220721,33.4072846 L35.8304137,33.4072846 L35.8304137,35.6208374 C35.8304137,39.2183764 28.2561728,41.1600821 21.1290457,41.1600821" id="Fill-47" fill="#804526" sketch:type="MSShapeGroup"></path>
                            <path d="M34.9879046,33.3128188 L34.9879046,34.229426 L34.9962462,34.229426 L34.9962462,35.6208374 C34.9962462,38.2200913 28.7754421,40.3350531 21.1290457,40.3350531 C13.4830664,40.3350531 7.26226226,38.2200913 7.26226226,35.6208374 L7.26226226,33.3148814 C7.86161161,33.8833264 8.67492492,34.2331387 9.5687354,34.2331387 C12.5129296,34.2327262 29.4586253,34.2310761 32.6810143,34.2310761 C33.5752419,34.2310761 34.3885552,33.8812638 34.9879046,33.3128188 M36.6562396,19.3388902 L34.3489323,19.3388902 L34.3489323,30.9309601 C34.3489323,31.8422046 33.6027694,32.5810181 32.6810143,32.5810181 C29.4586253,32.5810181 12.5129296,32.5826682 9.5687354,32.5830807 L9.56831832,32.5830807 C8.64698031,32.5830807 7.90123457,31.8442672 7.90123457,30.9330227 L7.90123457,19.3388902 L5.59392726,19.3388902 L5.59392726,35.6208374 C5.59392726,39.8635491 13.3612779,41.9851111 21.1290457,41.9851111 C28.8968135,41.9851111 36.6645812,39.8635491 36.6645812,35.6208374 L36.6645812,32.5830807 C36.7621788,32.5826682 36.7521688,32.5822556 36.6562396,32.5822556 L36.6562396,19.3388902" id="Fill-48" fill="#804526" sketch:type="MSShapeGroup"></path>
                            <path d="M24.3397564,35.1823345 C24.5995996,36.9524342 23.3596096,38.595892 21.5703203,38.8528885 C19.7806139,39.1102976 18.1189523,37.883892 17.8591091,36.1137923 C17.8591091,36.1137923 19.4361028,36.2998363 21.0193527,36.0725408 C22.6030197,35.8448328 24.3397564,35.1823345 24.3397564,35.1823345" id="Fill-49" fill="#1A1918" sketch:type="MSShapeGroup"></path>
                            <path d="M24.208375,53.2698578 L33.4889056,53.2698578 L33.4889056,54.0948868 L24.208375,54.0948868 L24.208375,53.2698578 Z" id="Fill-51" fill="#A1855B" sketch:type="MSShapeGroup"></path>
                            <path d="M8.57857858,53.2698578 L17.8591091,53.2698578 L17.8591091,54.0948868 L8.57857858,54.0948868 L8.57857858,53.2698578 Z" id="Fill-53" fill="#A1855B" sketch:type="MSShapeGroup"></path>
                            <path d="M29.2496663,52.5293942 C29.2496663,52.7484394 29.0703203,52.9258207 28.8488488,52.9258207 C28.6269603,52.9258207 28.4476143,52.7484394 28.4476143,52.5293942 C28.4476143,52.3099365 28.6269603,52.1325553 28.8488488,52.1325553 C29.0703203,52.1325553 29.2496663,52.3099365 29.2496663,52.5293942" id="Fill-60" fill="#A1855B" sketch:type="MSShapeGroup"></path>
                            <path d="M13.6198699,52.5293942 C13.6198699,52.7484394 13.4401068,52.9258207 13.2186353,52.9258207 C12.9971638,52.9258207 12.8174007,52.7484394 12.8174007,52.5293942 C12.8174007,52.3099365 12.9971638,52.1325553 13.2186353,52.1325553 C13.4401068,52.1325553 13.6198699,52.3099365 13.6198699,52.5293942" id="Fill-61" fill="#A1855B" sketch:type="MSShapeGroup"></path>
                            <path d="M6.2345679,20.2080582 C6.22539206,18.4602343 6.19828161,13.6160765 6.19828161,13.6160765 C6.19828161,8.27978897 9.12954621,3.34364048 13.8475976,0.736136332 C13.9864865,0.659408636 14.1274608,0.622282331 14.278028,0.622282331 C15.0233567,0.622282331 16.0176844,1.51042605 16.9794795,2.36928123 C18.2624291,3.514834 19.5891725,4.69957564 21.1086086,4.69957564 C22.7047881,4.69957564 24.1191191,3.60764976 25.4871538,2.55120013 C26.563647,1.72039593 27.579663,0.93579335 28.3992326,0.93579335 C28.6190357,0.93579335 28.8217384,0.994782923 29.0181849,1.11688721 C33.401318,3.83535776 36.0176844,8.50914703 36.0176844,13.6193766 L36.0176844,20.2080582 L6.2345679,20.2080582" id="Fill-62" fill="#CAA670" sketch:type="MSShapeGroup"></path>
                            <path d="M14.278028,0.00351058257 L14.2776109,1.24105408 C14.7826994,1.24105408 15.8099766,2.15889884 16.5603103,2.82882238 C17.8674508,3.9958259 19.3485152,5.3187599 21.1081915,5.3187599 C22.9195863,5.3187599 24.4882382,4.10761733 25.8721221,3.03879226 C26.7734401,2.34288031 27.7952953,1.5545651 28.3992326,1.5545651 C28.5022523,1.5545651 28.5877544,1.580141 28.6857691,1.64119314 C32.8853854,4.24580969 35.3924758,8.72365457 35.3924758,13.6193766 L35.3924758,19.589699 L6.85727394,19.589699 C6.84642976,17.6706815 6.82682683,14.1445076 6.82390724,13.6193766 C6.82390724,8.50378435 9.63213213,3.77430562 14.1529029,1.27653033 C14.2062896,1.24682928 14.2413247,1.24105408 14.2776109,1.24105408 L14.278028,0.00351058257 M14.278028,0.00351058257 C14.0286119,0.00351058257 13.7837838,0.0629126704 13.5422923,0.196154854 C8.78753754,2.8234597 5.57265599,7.84994886 5.57265599,13.6193766 C5.57265599,13.6193766 5.61269603,20.7352517 5.61269603,20.8272425 L36.6437271,20.8272425 L36.6437271,13.6193766 C36.6437271,8.12839615 33.7312312,3.30981429 29.3506006,0.592581287 C29.0407074,0.40034953 28.7233066,0.316609087 28.3992326,0.316609087 C26.2253921,0.316609087 23.7433267,4.0812164 21.1081915,4.0812164 C18.6578245,4.0812164 16.3392559,0.00392309707 14.278028,0.00351058257" id="Fill-63" fill="#A1855B" sketch:type="MSShapeGroup"></path>
                            <g id="Group-67" stroke-width="1" fill="none" sketch:type="MSLayerGroup" transform="translate(6.812646, 0.963432)">
                                <mask id="mask-6" sketch:name="Clip 65" fill="white">
                                    <use xlink:href="#path-5"></use>
                                </mask>
                                <g id="Clip-65"></g>
                                <path d="M7.46496496,0.277209743 L7.46496496,0.277622258 C7.42867868,0.277622258 7.39364364,0.283397461 7.34025692,0.313098505 C7.02619286,0.486354594 6.72088755,0.670748575 6.42392392,0.86463039 C7.44285953,5.89936985 10.7478312,9.58724947 14.6671672,9.58724947 C18.4693026,9.58724947 21.69336,6.11593996 22.8128128,1.31220862 C22.51001,1.08986331 22.1967801,0.878243368 21.8731231,0.677761322 C21.7751084,0.616709176 21.6896063,0.591133277 21.5865866,0.591133277 L21.5715716,0.591133277 C21.5623957,0.591133277 21.5528028,0.591545791 21.543627,0.59237082 C20.9346847,0.627847067 19.9399399,1.39594906 19.0594761,2.07536044 C18.2678512,2.68670693 17.4161662,3.34466756 16.4927427,3.79595842 C15.801635,4.13339528 15.0709042,4.35532808 14.2955455,4.35532808 C13.2849516,4.35532808 12.3665332,3.91930025 11.5198532,3.32651692 C10.8921421,2.88760149 10.3040541,2.36205802 9.74766433,1.86539056 C8.99733066,1.19546702 7.97005339,0.277622258 7.46496496,0.277622258 L7.46496496,0.277209743" id="Fill-64" fill="#BE9C6A" sketch:type="MSShapeGroup" mask="url(#mask-6)"></path>
                                <path d="M21.543627,0.59237082 C20.9346847,0.627847067 19.9395229,1.39594906 19.0594761,2.07577296 C18.2678512,2.68670693 17.4157491,3.34466756 16.4927427,3.79595842 C17.4161662,3.34466756 18.2678512,2.68670693 19.0594761,2.07536044 C19.9399399,1.39594906 20.9346847,0.627847067 21.543627,0.59237082 M21.5865866,0.591133277 L21.5715716,0.591133277 L21.5865866,0.591133277 C21.6896063,0.591133277 21.7751084,0.616709176 21.8731231,0.677761322 C22.1967801,0.878243368 22.51001,1.08986331 22.8128128,1.31220862 C22.51001,1.08986331 22.1967801,0.878243368 21.8735402,0.677761322 C21.7755255,0.616709176 21.6896063,0.591133277 21.5865866,0.591133277 M7.46496496,0.277209743 C7.42867868,0.277622258 7.39322656,0.283809975 7.33983984,0.313098505 C7.02619286,0.486354594 6.72088755,0.670336061 6.42392392,0.86463039 C6.72088755,0.670748575 7.02619286,0.486354594 7.34025692,0.313098505 C7.39364364,0.283397461 7.42867868,0.277622258 7.46496496,0.277622258 L7.46496496,0.277622258 C7.97005339,0.277622258 8.99733066,1.19546702 9.74766433,1.86539056 C10.3040541,2.36205802 10.8921421,2.88760149 11.5198532,3.32651692 C10.8925592,2.88760149 10.3044711,2.36205802 9.74808141,1.86539056 C8.99774775,1.19546702 7.97005339,0.277209743 7.46496496,0.277209743" id="Fill-66" fill="#9B8058" sketch:type="MSShapeGroup" mask="url(#mask-6)"></path>
                            </g>
                            <path d="M1.78053053,21.9513445 L37.4683016,21.9513445 C39.1082749,21.9513445 40.6335502,21.1209528 41.5106773,19.7505796 L41.9256757,19.1029319 C42.4186687,18.3327673 42.1871872,17.313444 41.4084918,16.8258518 C40.6302135,16.3382597 39.5995996,16.5672053 39.1066066,17.3373698 L38.6916083,17.9850176 C38.426343,18.3995947 37.9646313,18.6512285 37.4683016,18.6512285 L1.78053053,18.6512285 C0.859192526,18.6512285 0.112195529,19.390042 0.112195529,20.3012865 C0.112195529,21.212531 0.859192526,21.9513445 1.78053053,21.9513445" id="Fill-68" fill="#A1855B" sketch:type="MSShapeGroup"></path>
                            <path d="M27.0995996,47.9904972 L27.0995996,47.1073037 L28.1239573,46.5553593 L29.5733233,46.5553593 L30.597681,47.1073037 L30.597681,47.9904972 C30.597681,48.8444022 30.0504671,49.6042539 29.2346513,49.8831137 C29.2346513,49.8831137 28.9155822,49.9949051 28.8488488,50.06132 C28.7625125,49.976342 28.4626293,49.8831137 28.4626293,49.8831137 C27.6468135,49.6042539 27.0995996,48.8444022 27.0995996,47.9904972" id="Fill-69" fill="#EBDC23" sketch:type="MSShapeGroup"></path>
                            <path d="M9.2196363,47.9649213 L16.9315148,47.9649213 L16.9315148,49.5460894 L9.2196363,49.5460894 L9.2196363,47.9649213 Z" id="Fill-70" fill="#343433" sketch:type="MSShapeGroup"></path>
                        </g>
                    </g>
                </g>
                <g id="Imported-Layers-Copy-3" transform="translate(3.420087, 0.082503)">
                    <path d="M6.51234568,20.4821699 C6.50316984,18.734346 6.47605939,13.8901882 6.47605939,13.8901882 C6.47605939,8.55390065 9.40732399,3.61775215 14.1253754,1.01024801 C14.2642643,0.933520311 14.4052386,0.896394006 14.5558058,0.896394006 C15.3011345,0.896394006 16.2954621,1.78453772 17.2572573,2.64339291 C18.5402069,3.78894567 19.8669503,4.97368731 21.3863864,4.97368731 C22.9825659,4.97368731 24.3968969,3.88176143 25.7649316,2.8253118 C26.8414248,1.9945076 27.8574408,1.20990503 28.6770103,1.20990503 C28.8968135,1.20990503 29.0995162,1.2688946 29.2959626,1.39099889 C33.6790958,4.10946944 36.2954621,8.78325871 36.2954621,13.8934883 L36.2954621,20.4821699 L6.51234568,20.4821699" id="Fill-62" fill="#CAA670" sketch:type="MSShapeGroup"></path>
                    <path d="M14.5558058,0.277622258 L14.5553887,1.51516575 C15.0604771,1.51516575 16.0877544,2.43301051 16.8380881,3.10293406 C18.1452286,4.26993758 19.626293,5.59287157 21.3859693,5.59287157 C23.197364,5.59287157 24.766016,4.38172901 26.1498999,3.31290394 C27.0512179,2.61699198 28.0730731,1.82867677 28.6770103,1.82867677 C28.78003,1.82867677 28.8655322,1.85425267 28.9635469,1.91530482 C33.1631632,4.51992136 35.6702536,8.99776625 35.6702536,13.8934883 L35.6702536,19.8638107 L7.13505172,19.8638107 C7.12420754,17.9447932 7.1046046,14.4186193 7.10168502,13.8934883 C7.10168502,8.77789602 9.90990991,4.04841729 14.4306807,1.550642 C14.4840674,1.52094096 14.5191024,1.51516575 14.5553887,1.51516575 L14.5558058,0.277622258 M14.5558058,0.277622258 C14.3063897,0.277622258 14.0615616,0.337024346 13.8200701,0.470266529 C9.06531532,3.09757137 5.85043377,8.12406054 5.85043377,13.8934883 C5.85043377,13.8934883 5.89047381,21.0093634 5.89047381,21.1013542 L36.9215048,21.1013542 L36.9215048,13.8934883 C36.9215048,8.40250783 34.009009,3.58392597 29.6283784,0.866692962 C29.3184852,0.674461206 29.0010844,0.590720762 28.6770103,0.590720762 C26.5031698,0.590720762 24.0211044,4.35532808 21.3859693,4.35532808 C18.9356023,4.35532808 16.6170337,0.278034772 14.5558058,0.277622258" id="Fill-63" fill="#A1855B" sketch:type="MSShapeGroup"></path>
                    <g id="Group-67" transform="translate(7.090424, 1.237543)">
                        <mask id="mask-8" sketch:name="Clip 65" fill="white">
                            <use xlink:href="#path-7"></use>
                        </mask>
                        <g id="Clip-65"></g>
                        <path d="M7.46496496,0.277209743 L7.46496496,0.277622258 C7.42867868,0.277622258 7.39364364,0.283397461 7.34025692,0.313098505 C7.02619286,0.486354594 6.72088755,0.670748575 6.42392392,0.86463039 C7.44285953,5.89936985 10.7478312,9.58724947 14.6671672,9.58724947 C18.4693026,9.58724947 21.69336,6.11593996 22.8128128,1.31220862 C22.51001,1.08986331 22.1967801,0.878243368 21.8731231,0.677761322 C21.7751084,0.616709176 21.6896063,0.591133277 21.5865866,0.591133277 L21.5715716,0.591133277 C21.5623957,0.591133277 21.5528028,0.591545791 21.543627,0.59237082 C20.9346847,0.627847067 19.9399399,1.39594906 19.0594761,2.07536044 C18.2678512,2.68670693 17.4161662,3.34466756 16.4927427,3.79595842 C15.801635,4.13339528 15.0709042,4.35532808 14.2955455,4.35532808 C13.2849516,4.35532808 12.3665332,3.91930025 11.5198532,3.32651692 C10.8921421,2.88760149 10.3040541,2.36205802 9.74766433,1.86539056 C8.99733066,1.19546702 7.97005339,0.277622258 7.46496496,0.277622258 L7.46496496,0.277209743" id="Fill-64" fill="#BE9C6A" sketch:type="MSShapeGroup" mask="url(#mask-8)"></path>
                        <path d="M21.543627,0.59237082 C20.9346847,0.627847067 19.9395229,1.39594906 19.0594761,2.07577296 C18.2678512,2.68670693 17.4157491,3.34466756 16.4927427,3.79595842 C17.4161662,3.34466756 18.2678512,2.68670693 19.0594761,2.07536044 C19.9399399,1.39594906 20.9346847,0.627847067 21.543627,0.59237082 M21.5865866,0.591133277 L21.5715716,0.591133277 L21.5865866,0.591133277 C21.6896063,0.591133277 21.7751084,0.616709176 21.8731231,0.677761322 C22.1967801,0.878243368 22.51001,1.08986331 22.8128128,1.31220862 C22.51001,1.08986331 22.1967801,0.878243368 21.8735402,0.677761322 C21.7755255,0.616709176 21.6896063,0.591133277 21.5865866,0.591133277 M7.46496496,0.277209743 C7.42867868,0.277622258 7.39322656,0.283809975 7.33983984,0.313098505 C7.02619286,0.486354594 6.72088755,0.670336061 6.42392392,0.86463039 C6.72088755,0.670748575 7.02619286,0.486354594 7.34025692,0.313098505 C7.39364364,0.283397461 7.42867868,0.277622258 7.46496496,0.277622258 L7.46496496,0.277622258 C7.97005339,0.277622258 8.99733066,1.19546702 9.74766433,1.86539056 C10.3040541,2.36205802 10.8921421,2.88760149 11.5198532,3.32651692 C10.8925592,2.88760149 10.3044711,2.36205802 9.74808141,1.86539056 C8.99774775,1.19546702 7.97005339,0.277209743 7.46496496,0.277209743" id="Fill-66" fill="#9B8058" sketch:type="MSShapeGroup" mask="url(#mask-8)"></path>
                    </g>
                    <path d="M2.05830831,22.2254562 L37.7460794,22.2254562 C39.3860527,22.2254562 40.911328,21.3950645 41.7884551,20.0246913 L42.2034535,19.3770436 C42.6964464,18.606879 42.464965,17.5875557 41.6862696,17.0999635 C40.9079913,16.6123714 39.8773774,16.8413169 39.3843844,17.6114815 L38.9693861,18.2591293 C38.7041208,18.6737063 38.2424091,18.9253402 37.7460794,18.9253402 L2.05830831,18.9253402 C1.1369703,18.9253402 0.389973307,19.6641536 0.389973307,20.5753982 C0.389973307,21.4866427 1.1369703,22.2254562 2.05830831,22.2254562" id="Fill-68" fill="#A1855B" sketch:type="MSShapeGroup"></path>
                    <path d="M27.3773774,48.2646089 L27.3773774,47.3814153 L28.4017351,46.8294709 L29.8511011,46.8294709 L30.8754588,47.3814153 L30.8754588,48.2646089 C30.8754588,49.1185139 30.3282449,49.8783656 29.5124291,50.1572254 C29.5124291,50.1572254 29.19336,50.2690168 29.1266266,50.3354317 C29.0402903,50.2504537 28.7404071,50.1572254 28.7404071,50.1572254 C27.9245913,49.8783656 27.3773774,49.1185139 27.3773774,48.2646089" id="Fill-69" fill="#EBDC23" sketch:type="MSShapeGroup"></path>
                    <path d="M9.49741408,48.239033 L17.2092926,48.239033 L17.2092926,49.8202011 L9.49741408,49.8202011 L9.49741408,48.239033 Z" id="Fill-70" fill="#343433" sketch:type="MSShapeGroup"></path>
                </g>
            </g>
        </g>
    </g>
</svg>