<?xml version="1.0" encoding="UTF-8" standalone="no"?>
<svg width="93px" height="24px" viewBox="0 0 93 24" version="1.1" xmlns="http://www.w3.org/2000/svg" xmlns:xlink="http://www.w3.org/1999/xlink" xmlns:sketch="http://www.bohemiancoding.com/sketch/ns">
    <!-- Generator: Sketch 3.3 (11970) - http://www.bohemiancoding.com/sketch -->
    <title>Imported Layers + FIELD GUIDE + GENERATED WITH</title>
    <desc>Created with Sketch.</desc>
    <defs></defs>
    <g id="Web-App-0.8" stroke="none" stroke-width="1" fill="none" fill-rule="evenodd" sketch:type="MSPage">
        <g id="Report-Read-Only" sketch:type="MSArtboardGroup" transform="translate(-1282.000000, -885.000000)">
            <g id="Imported-Layers-+-FIELD-GUIDE-+-POWERED-BY" sketch:type="MSLayerGroup" transform="translate(1282.000000, 885.000000)">
                <g id="Imported-Layers-+-FIELD-GUIDE-+-GENERATED-WITH" sketch:type="MSShapeGroup">
                    <g id="Imported-Layers" transform="translate(0.000000, 13.000000)" fill="#949799">
                        <path d="M6.37816698,2.88621667 C5.72517996,2.60777917 4.96897959,2.58577917 4.2643859,2.88621667 L5.32127644,5.51260417 L2.76975139,4.42470417 C2.49925046,5.09685 2.47787755,5.8752375 2.76975139,6.60050417 C3.06158071,7.32577083 3.61139889,7.8606 4.2643859,8.1390375 C4.91741744,8.41742917 5.67357328,8.43942917 6.37816698,8.1390375 C7.08276067,7.8386 7.60234508,7.27265 7.87284601,6.60050417 C8.14330241,5.92835833 8.16467532,5.14997083 7.87284601,4.42470417 C7.58097217,3.6994375 7.03115399,3.16460833 6.37816698,2.88621667" id="Fill-1"></path>
                        <path d="M19.7351688,2.88621667 C19.0821373,2.60777917 18.3259814,2.58577917 17.6213878,2.88621667 L18.6782783,5.51260417 L16.1267087,4.42470417 C15.8562523,5.09685 15.8348794,5.8752375 16.1267087,6.60050417 C16.4185826,7.32577083 16.9684007,7.8606 17.6213878,8.1390375 C18.2743748,8.41742917 19.0305751,8.43942917 19.7351688,8.1390375 C20.4397625,7.8386 20.9593469,7.27265 21.2298033,6.60050417 C21.5003043,5.92835833 21.5216772,5.14997083 21.2298033,4.42470417 C20.937974,3.6994375 20.3881558,3.16460833 19.7351688,2.88621667" id="Fill-2"></path>
                        <path d="M18.6782338,0.0437708333 C17.0762004,0.0437708333 15.6385158,0.778295833 14.6637328,1.93650417 C14.5508571,2.0706125 14.3847273,2.14440417 14.2123191,2.14440417 L13.4802523,2.14440417 C13.2731577,1.5063125 12.6883859,1.0445875 11.9997774,1.0445875 C11.3111688,1.0445875 10.726397,1.5063125 10.5193024,2.14440417 L9.78705751,2.14440417 C9.61415955,2.14440417 9.44802968,2.06974167 9.33475325,1.93526667 C8.31820408,0.728154167 6.79872356,-0.0183791667 5.11449351,0.0478041667 C2.42782931,0.15345 0.208742115,2.36151667 0.0215955473,5.12233333 C-0.194716141,8.31361667 2.26628571,10.9814833 5.32132096,10.9814833 C8.25083488,10.9814833 10.6342263,8.5281625 10.6342263,5.51260417 L10.6342263,5.66628333 C10.6342263,4.88995833 11.2455807,4.26062083 11.9997774,4.26062083 C12.753974,4.26062083 13.3653284,4.88995833 13.3653284,5.66628333 L13.3653284,5.51260417 C13.3653284,8.65750417 15.957551,11.1908958 19.0580482,10.9677792 C21.6752505,10.77945 23.7951763,8.59709583 23.9779592,5.90315 C24.194449,2.711775 21.7333581,0.0437708333 18.6782338,0.0437708333 L18.6782338,0.0437708333 Z M5.32132096,9.888175 C2.97738033,9.888175 1.07042672,7.92531667 1.07042672,5.51260417 C1.07042672,3.09989167 2.97738033,1.13703333 5.32132096,1.13703333 C7.66517254,1.13703333 9.57212616,3.09989167 9.57212616,5.51260417 C9.57212616,7.92531667 7.66517254,9.888175 5.32132096,9.888175 L5.32132096,9.888175 Z M11.9997774,3.166075 C11.7243785,3.166075 11.5003636,2.9354875 11.5003636,2.65200833 C11.5003636,2.36848333 11.7243785,2.13785 11.9997774,2.13785 C12.2751763,2.13785 12.4991911,2.36848333 12.4991911,2.65200833 C12.4991911,2.9354875 12.2751763,3.166075 11.9997774,3.166075 L11.9997774,3.166075 Z M18.6782338,9.888175 C16.3343377,9.888175 14.4274286,7.92531667 14.4274286,5.51260417 C14.4274286,3.09989167 16.3343377,1.13703333 18.6782338,1.13703333 C21.0221744,1.13703333 22.9290835,3.09989167 22.9290835,5.51260417 C22.9290835,7.92531667 21.0221744,9.888175 18.6782338,9.888175 L18.6782338,9.888175 Z" id="Fill-3"></path>
                    </g>
                    <path d="M32.508,14.136 L27.912,14.136 L27.912,22.416 L29.076,22.416 L29.076,18.84 L32.304,18.84 L32.304,17.868 L29.076,17.868 L29.076,15.108 L32.508,15.108 L32.508,14.136 Z M35.004,14.136 L33.84,14.136 L33.84,22.416 L35.004,22.416 L35.004,14.136 Z M41.772,21.432 L37.992,21.432 L37.992,18.552 L41.472,18.552 L41.472,17.58 L37.992,17.58 L37.992,15.108 L41.676,15.108 L41.676,14.136 L36.828,14.136 L36.828,22.416 L41.772,22.416 L41.772,21.432 Z M47.28,21.42 L44.364,21.42 L44.364,14.136 L43.2,14.136 L43.2,22.416 L47.28,22.416 L47.28,21.42 Z M55.188,18.276 C55.188,16.728 54.504,15.768 53.904,15.216 C53.304,14.664 52.248,14.136 50.808,14.136 L48.312,14.136 L48.312,22.416 L50.808,22.416 C52.248,22.416 53.304,21.888 53.904,21.336 C54.504,20.784 55.188,19.824 55.188,18.276 L55.188,18.276 Z M54,18.276 C54,19.476 53.472,20.208 53.016,20.64 C52.56,21.072 51.816,21.408 50.808,21.408 L49.476,21.408 L49.476,15.132 L50.808,15.132 C51.816,15.132 52.56,15.468 53.016,15.9 C53.472,16.332 54,17.076 54,18.276 L54,18.276 Z M66.204,18 L62.844,18 L62.844,18.948 L65.076,18.948 L65.076,20.784 C65.076,20.784 64.464,21.54 62.748,21.54 C61.02,21.54 59.664,20.316 59.664,18.276 C59.664,16.236 60.972,15.012 62.676,15.012 C63.972,15.012 64.74,15.612 65.232,16.188 L66.024,15.456 C65.712,15.132 64.8,14.016 62.676,14.016 C60.324,14.016 58.464,15.696 58.464,18.276 C58.464,20.856 60.324,22.56 62.688,22.56 C65.04,22.56 66.048,21.372 66.204,21.216 L66.204,18 Z M74.136,14.136 L72.972,14.136 L72.972,18.924 C72.972,19.608 72.96,20.292 72.588,20.784 C72.24,21.24 71.712,21.516 70.992,21.516 C70.272,21.516 69.732,21.24 69.396,20.784 C69.024,20.292 69.012,19.62 69.012,18.924 L69.012,14.136 L67.836,14.136 L67.836,19.032 C67.836,20.064 67.932,20.88 68.508,21.552 C69.06,22.2 69.888,22.56 70.992,22.56 C72.084,22.56 72.912,22.2 73.476,21.552 C74.04,20.88 74.136,20.064 74.136,19.032 L74.136,14.136 Z M77.064,14.136 L75.9,14.136 L75.9,22.416 L77.064,22.416 L77.064,14.136 Z M85.764,18.276 C85.764,16.728 85.08,15.768 84.48,15.216 C83.88,14.664 82.824,14.136 81.384,14.136 L78.888,14.136 L78.888,22.416 L81.384,22.416 C82.824,22.416 83.88,21.888 84.48,21.336 C85.08,20.784 85.764,19.824 85.764,18.276 L85.764,18.276 Z M84.576,18.276 C84.576,19.476 84.048,20.208 83.592,20.64 C83.136,21.072 82.392,21.408 81.384,21.408 L80.052,21.408 L80.052,15.132 L81.384,15.132 C82.392,15.132 83.136,15.468 83.592,15.9 C84.048,16.332 84.576,17.076 84.576,18.276 L84.576,18.276 Z M92.064,21.432 L88.284,21.432 L88.284,18.552 L91.764,18.552 L91.764,17.58 L88.284,17.58 L88.284,15.108 L91.968,15.108 L91.968,14.136 L87.12,14.136 L87.12,22.416 L92.064,22.416 L92.064,21.432 Z" id="FIELD-GUIDE" fill="#949799"></path>
                    <path d="M6.75,3.906 L4.1,3.906 L4.1,4.396 L6.22,4.396 L6.22,6.266 C6.22,6.266 5.6,7.026 3.95,7.026 C2.3,7.026 1,5.866 1,3.966 C1,2.066 2.25,0.906 3.87,0.906 C5.05,0.906 5.75,1.416 6.25,2.016 L6.62,1.616 C6.36,1.316 5.6,0.416 3.87,0.416 C1.9,0.416 0.42,1.916 0.42,3.966 C0.42,6.016 1.9,7.536 3.9,7.536 C5.9,7.536 6.75,6.466 6.75,6.466 L6.75,3.906 Z M13.37,6.926 L10.09,6.926 L10.09,3.996 L13.12,3.996 L13.12,3.506 L10.09,3.506 L10.09,1.006 L13.3,1.006 L13.3,0.516 L9.55000005,0.516 L9.55000005,7.416 L13.37,7.416 L13.37,6.926 Z M21.5300001,0.516 L20.9900001,0.516 L20.9900001,6.466 L16.4400001,0.516 L15.9000001,0.516 L15.9000001,7.416 L16.4400001,7.416 L16.4400001,1.366 L21.0400001,7.416 L21.5300001,7.416 L21.5300001,0.516 Z M28.2500001,6.926 L24.9700001,6.926 L24.9700001,3.996 L28.0000001,3.996 L28.0000001,3.506 L24.9700001,3.506 L24.9700001,1.006 L28.1800001,1.006 L28.1800001,0.516 L24.4300001,0.516 L24.4300001,7.416 L28.2500001,7.416 L28.2500001,6.926 Z M32.8300002,4.196 C33.7000002,4.066 34.5300002,3.516 34.5300002,2.366 C34.5300002,1.216 33.6800002,0.516 32.3800002,0.516 L30.7800002,0.516 L30.7800002,7.416 L31.3200002,7.416 L31.3200002,4.216 L32.2000002,4.216 L34.2400002,7.416 L34.9300002,7.416 L32.8300002,4.196 Z M33.9600002,2.366 C33.9600002,2.816 33.8300002,3.166 33.4500002,3.446 C33.0800002,3.716 32.6300002,3.726 32.0800002,3.726 L31.3200002,3.726 L31.3200002,1.006 L32.0800002,1.006 C32.6300002,1.006 33.0800002,1.016 33.4500002,1.296 C33.8300002,1.566 33.9600002,1.916 33.9600002,2.366 L33.9600002,2.366 Z M39.4300002,0.496 L39.1300002,0.496 L36.1800002,7.416 L36.7500002,7.416 L37.6100002,5.346 L40.9000002,5.346 L41.7500002,7.416 L42.3800002,7.416 L39.4300002,0.496 Z M37.8100002,4.846 L39.2500002,1.316 L40.6900002,4.846 L37.8100002,4.846 Z M47.4700003,0.516 L42.8300003,0.516 L42.8300003,1.006 L44.8800003,1.006 L44.8800003,7.416 L45.4200003,7.416 L45.4200003,1.006 L47.4700003,1.006 L47.4700003,0.516 Z M53.4400003,6.926 L50.1600003,6.926 L50.1600003,3.996 L53.1900003,3.996 L53.1900003,3.506 L50.1600003,3.506 L50.1600003,1.006 L53.3700003,1.006 L53.3700003,0.516 L49.6200003,0.516 L49.6200003,7.416 L53.4400003,7.416 L53.4400003,6.926 Z M61.4400004,3.966 C61.4400004,2.716 60.8400004,1.916 60.3900004,1.466 C59.9400004,1.016 59.0700004,0.516 57.8700004,0.516 L55.9700004,0.516 L55.9700004,7.416 L57.8700004,7.416 C59.0700004,7.416 59.9400004,6.916 60.3900004,6.466 C60.8400004,6.016 61.4400004,5.216 61.4400004,3.966 L61.4400004,3.966 Z M60.8800004,3.966 C60.8800004,5.066 60.3600004,5.786 59.9200004,6.196 C59.4800004,6.606 58.7700004,6.926 57.8200004,6.926 L56.5100004,6.926 L56.5100004,1.006 L57.8200004,1.006 C58.7700004,1.006 59.4800004,1.336 59.9200004,1.746 C60.3600004,2.156 60.8800004,2.866 60.8800004,3.966 L60.8800004,3.966 Z M74.6700005,0.516 L72.9400005,6.496 L71.0900005,0.516 L70.5200005,0.516 L68.6700005,6.496 L66.9400005,0.516 L66.3700005,0.516 L68.3900005,7.426 L68.8900005,7.426 L70.8000005,1.296 L72.7200005,7.426 L73.2200005,7.426 L75.2400005,0.516 L74.6700005,0.516 Z M77.9300005,0.516 L77.3900005,0.516 L77.3900005,7.416 L77.9300005,7.416 L77.9300005,0.516 Z M84.7200006,0.516 L80.0800006,0.516 L80.0800006,1.006 L82.1300006,1.006 L82.1300006,7.416 L82.6700006,7.416 L82.6700006,1.006 L84.7200006,1.006 L84.7200006,0.516 Z M92.2200006,0.516 L91.6800006,0.516 L91.6800006,3.476 L87.4100006,3.476 L87.4100006,0.516 L86.8700006,0.516 L86.8700006,7.416 L87.4100006,7.416 L87.4100006,3.966 L91.6800006,3.966 L91.6800006,7.416 L92.2200006,7.416 L92.2200006,0.516 Z" id="GENERATED-WITH" fill="#D8DADB"></path>
                </g>
            </g>
        </g>
    </g>
</svg>