<?xml version="1.0" encoding="UTF-8" standalone="no"?>
<svg width="40px" height="26px" viewBox="0 0 40 26" version="1.1" xmlns="http://www.w3.org/2000/svg" xmlns:xlink="http://www.w3.org/1999/xlink" xmlns:sketch="http://www.bohemiancoding.com/sketch/ns">
    <!-- Generator: Sketch 3.2 (9961) - http://www.bohemiancoding.com/sketch -->
    <title>hidden</title>
    <desc>Created with Sketch.</desc>
    <defs></defs>
    <g id="Page-1" stroke="none" stroke-width="1" fill="none" fill-rule="evenodd" sketch:type="MSPage">
        <path d="M28.669806,5.39301 C28.6755025,5.352499 28.6653481,5.30934938 28.6383929,5.26339286 C32.046148,7.00447299 34.8809411,9.63093482 37.1428571,13.1428571 C37.1298061,13.1629734 37.1167332,13.1830627 37.1036384,13.203125 C37.1167332,13.2231873 37.1298061,13.2432766 37.1428571,13.2633929 C34.8809411,16.7753152 32.046148,19.401777 28.6383929,21.1428571 C28.6700502,21.088884 28.7011555,21.0347571 28.7317087,20.9804763 C26.0198703,22.42207 23.1093238,23.1428571 20,23.1428571 C16.8906762,23.1428571 13.9801297,22.42207 11.2682913,20.9804763 C11.2988445,21.0347571 11.3299498,21.088884 11.3616071,21.1428571 C7.95385201,19.401777 5.11905893,16.7753152 2.85714286,13.2633929 C2.87019392,13.2432766 2.88326682,13.2231873 2.89636156,13.203125 C2.88326682,13.1830627 2.87019392,13.1629734 2.85714286,13.1428571 C5.11905893,9.63093482 7.95385201,7.00447299 11.3616071,5.26339286 C11.3351169,5.30855655 11.3265255,5.35090543 11.3347358,5.39061743 C14.0276566,3.97246144 16.9160556,3.26339286 20,3.26339286 C23.0856782,3.26339286 25.9755911,3.97325895 28.669806,5.39301 Z M39.5535714,14.6830357 C37.4702277,18.1056719 34.6689164,20.8474599 31.1495536,22.9084821 C27.6301907,24.9695044 23.91371,26 20,26 C16.08629,26 12.3698093,24.9657842 8.85044643,22.8973214 C5.33108359,20.8288587 2.52977232,18.0907908 0.446428571,14.6830357 C0.148808036,14.1621998 0,13.6488121 0,13.1428571 C0,12.6369022 0.148808036,12.1235145 0.446428571,11.6026786 C2.52977232,8.19492344 5.33108359,5.45685558 8.85044643,3.38839286 C12.3698093,1.31993013 16.08629,0.285714286 20,0.285714286 C23.91371,0.285714286 27.6301907,1.31993013 31.1495536,3.38839286 C34.6689164,5.45685558 37.4702277,8.19492344 39.5535714,11.6026786 C39.851192,12.1235145 40,12.6369022 40,13.1428571 C40,13.6488121 39.851192,14.1621998 39.5535714,14.6830357 Z" id="hidden" fill="#999999" sketch:type="MSShapeGroup"></path>
    </g>
</svg>