<?xml version="1.0" encoding="UTF-8" standalone="no"?>
<svg width="10px" height="16px" viewBox="0 0 10 16" version="1.1" xmlns="http://www.w3.org/2000/svg" xmlns:xlink="http://www.w3.org/1999/xlink" xmlns:sketch="http://www.bohemiancoding.com/sketch/ns">
    <!-- Generator: Sketch 3.3.2 (12043) - http://www.bohemiancoding.com/sketch -->
    <title>Imported Layers Copy</title>
    <desc>Created with Sketch.</desc>
    <defs></defs>
    <g id="Web-App-0.9" stroke="none" stroke-width="1" fill="none" fill-rule="evenodd" sketch:type="MSPage">
        <g id="New-Copy-3" sketch:type="MSArtboardGroup" transform="translate(-549.000000, -352.000000)" fill="#FFFFFF">
            <g id="Group-Copy-5" sketch:type="MSLayerGroup" transform="translate(445.000000, 243.000000)">
                <g id="Imported-Layers-Copy" transform="translate(103.500000, 109.500000)" sketch:type="MSShapeGroup">
                    <path d="M5.11583333,10.685 C6.72333333,10.685 8.0325,9.37666667 8.0325,7.76833333 L8.0325,3.34833333 C8.0325,1.74083333 6.72333333,0.4325 5.11583333,0.4325 C3.5075,0.4325 2.19916667,1.74083333 2.19916667,3.34833333 L2.19916667,7.76833333 C2.19916667,9.37666667 3.5075,10.685 5.11583333,10.685 L5.11583333,10.685 Z M3.0325,3.34833333 C3.0325,2.2 3.96666667,1.26583333 5.11583333,1.26583333 C6.265,1.26583333 7.19916667,2.2 7.19916667,3.34833333 L7.19916667,7.76833333 C7.19916667,8.9175 6.265,9.85166667 5.11583333,9.85166667 C3.96666667,9.85166667 3.0325,8.9175 3.0325,7.76833333 L3.0325,3.34833333 L3.0325,3.34833333 Z" id="Fill-1"></path>
                    <path d="M8.86583333,6.30916667 L8.86583333,7.6175 C8.86583333,9.7225 7.18333333,11.4358333 5.11583333,11.4358333 C3.0475,11.4358333 1.36583333,9.7225 1.36583333,7.6175 L1.36583333,6.30916667 L0.5325,6.30916667 L0.5325,7.6175 C0.5325,10.0391667 2.36666667,12.0325 4.69916667,12.2475 L4.69916667,13.9391667 L2.61583333,13.9391667 L2.61583333,14.7733333 L7.61583333,14.7733333 L7.61583333,13.9391667 L5.5325,13.9391667 L5.5325,12.2475 C7.86416667,12.0325 9.69916667,10.0391667 9.69916667,7.6175 L9.69916667,6.30916667 L8.86583333,6.30916667" id="Fill-2"></path>
                </g>
            </g>
        </g>
    </g>
</svg>