<?xml version="1.0" encoding="UTF-8" standalone="no"?>
<svg width="14px" height="12px" viewBox="0 0 14 12" version="1.1" xmlns="http://www.w3.org/2000/svg" xmlns:xlink="http://www.w3.org/1999/xlink" xmlns:sketch="http://www.bohemiancoding.com/sketch/ns">
    <!-- Generator: Sketch 3.3.2 (12043) - http://www.bohemiancoding.com/sketch -->
    <title>Shape Copy</title>
    <desc>Created with Sketch.</desc>
    <defs></defs>
    <g id="Web-App-0.9" stroke="none" stroke-width="1" fill="none" fill-rule="evenodd" sketch:type="MSPage">
        <g id="Overview" sketch:type="MSArtboardGroup" transform="translate(-749.000000, -84.000000)" fill="#C5C6C7">
            <g id="Group-Copy-3" sketch:type="MSLayerGroup" transform="translate(735.000000, 68.000000)">
                <path d="M26.1876038,24.6176793 L19.0626188,24.6176793 L18.9547439,24.6176793 L18.8670229,24.6787784 L16.8626099,26.0748854 L17.3942687,26.340822 L17.3942687,24.944715 L17.3942687,24.6176793 L17.0582059,24.6176793 L14.3360628,24.6176793 L14.6721255,24.944715 L14.6721255,16.3270358 L14.3360628,16.6540715 L26.1876038,16.6540715 L25.851541,16.3270358 L25.851541,24.944715 L26.1876038,24.6176793 L26.1876038,24.6176793 Z M26.1876038,25.2717508 L26.5236665,25.2717508 L26.5236665,24.944715 L26.5236665,16.3270358 L26.5236665,16 L26.1876038,16 L14.3360628,16 L14,16 L14,16.3270358 L14,24.944715 L14,25.2717508 L14.3360628,25.2717508 L17.0582059,25.2717508 L16.7221432,24.944715 L16.7221432,26.340822 L16.7221432,26.9770678 L17.2538019,26.6067586 L19.2582148,25.2106516 L19.0626188,25.2717508 L26.1876038,25.2717508 L26.1876038,25.2717508 Z M19.6618173,26.7482035 L24.4725718,26.7482035 L24.2770052,26.6871248 L25.6307196,27.6297954 L26.162349,28 L26.162349,27.3638383 L26.162349,26.4211678 L25.8262863,26.7482035 L27.6639372,26.7482035 L28,26.7482035 L28,26.4211678 L28,20.6020665 L27.3278745,20.6020665 L27.3278745,26.4211678 L27.6639372,26.094132 L25.8262863,26.094132 L25.4902235,26.094132 L25.4902235,26.4211678 L25.4902235,27.3638383 L26.0218529,27.0978812 L24.6681384,26.1552107 L24.5804269,26.094132 L24.4725718,26.094132 L19.6618173,26.094132 L19.6618173,26.7482035 L19.6618173,26.7482035 Z" id="Shape-Copy" sketch:type="MSShapeGroup"></path>
            </g>
        </g>
    </g>
</svg>