<?xml version="1.0" encoding="UTF-8" standalone="no"?>
<svg width="14px" height="12px" viewBox="0 0 14 12" version="1.1" xmlns="http://www.w3.org/2000/svg" xmlns:xlink="http://www.w3.org/1999/xlink" xmlns:sketch="http://www.bohemiancoding.com/sketch/ns">
    <!-- Generator: Sketch 3.3.2 (12043) - http://www.bohemiancoding.com/sketch -->
    <title>Shape</title>
    <desc>Created with Sketch.</desc>
    <defs></defs>
    <g id="Web-App-0.9" stroke="none" stroke-width="1" fill="none" fill-rule="evenodd" sketch:type="MSPage">
        <g id="New-Project" sketch:type="MSArtboardGroup" transform="translate(-547.000000, -355.000000)" fill="#FFFFFF">
            <g id="Group-Copy-5" sketch:type="MSLayerGroup" transform="translate(445.000000, 243.000000)">
                <path d="M114.187604,120.617679 L107.062619,120.617679 L106.954744,120.617679 L106.867023,120.678778 L104.86261,122.074885 L105.394269,122.340822 L105.394269,120.944715 L105.394269,120.617679 L105.058206,120.617679 L102.336063,120.617679 L102.672126,120.944715 L102.672126,112.327036 L102.336063,112.654072 L114.187604,112.654072 L113.851541,112.327036 L113.851541,120.944715 L114.187604,120.617679 L114.187604,120.617679 Z M114.187604,121.271751 L114.523667,121.271751 L114.523667,120.944715 L114.523667,112.327036 L114.523667,112 L114.187604,112 L102.336063,112 L102,112 L102,112.327036 L102,120.944715 L102,121.271751 L102.336063,121.271751 L105.058206,121.271751 L104.722143,120.944715 L104.722143,122.340822 L104.722143,122.977068 L105.253802,122.606759 L107.258215,121.210652 L107.062619,121.271751 L114.187604,121.271751 L114.187604,121.271751 Z M107.661817,122.748204 L112.472572,122.748204 L112.277005,122.687125 L113.63072,123.629795 L114.162349,124 L114.162349,123.363838 L114.162349,122.421168 L113.826286,122.748204 L115.663937,122.748204 L116,122.748204 L116,122.421168 L116,116.602067 L115.327874,116.602067 L115.327874,122.421168 L115.663937,122.094132 L113.826286,122.094132 L113.490224,122.094132 L113.490224,122.421168 L113.490224,123.363838 L114.021853,123.097881 L112.668138,122.155211 L112.580427,122.094132 L112.472572,122.094132 L107.661817,122.094132 L107.661817,122.748204 L107.661817,122.748204 Z" id="Shape" sketch:type="MSShapeGroup"></path>
            </g>
        </g>
    </g>
</svg>