<?xml version="1.0" encoding="UTF-8" standalone="no"?>
<svg width="14px" height="14px" viewBox="0 0 14 14" version="1.1" xmlns="http://www.w3.org/2000/svg" xmlns:xlink="http://www.w3.org/1999/xlink" xmlns:sketch="http://www.bohemiancoding.com/sketch/ns">
    <!-- Generator: Sketch 3.3.2 (12043) - http://www.bohemiancoding.com/sketch -->
    <title>Interview-Copy-5</title>
    <desc>Created with Sketch.</desc>
    <defs></defs>
    <g id="Page-1" stroke="none" stroke-width="1" fill="none" fill-rule="evenodd" sketch:type="MSPage">
        <g id="Interview-(1)" sketch:type="MSLayerGroup" fill="#FFFFFF">
            <g id="Styleguide-1.0" sketch:type="MSShapeGroup">
                <path d="M8.3716998,9.77593064 L8.23593075,9.77593064 L8.12552704,9.85942171 L3.60281738,12.7671812 L4.27195127,13.1305796 L4.27195127,10.2228201 L4.27195127,9.77593064 L3.84899015,9.77593064 L0.422961126,9.77593064 L0.845922252,10.2228201 L0.845922252,0.446889495 L0.422961126,0.89377899 L13.5770389,0.89377899 L13.1540777,0.446889495 L13.1540777,10.2228201 L13.5770389,9.77593064 L8.3716998,9.77593064 L8.3716998,9.77593064 Z M14,10.6697096 L14,10.2228201 L14,0.446889495 L14,0 L13.5770389,0 L0.422961126,0 L0,0 L0,0.446889495 L0,10.2228201 L0,10.6697096 L0.422961126,10.6697096 L3.84899015,10.6697096 L3.42602902,10.2228201 L3.42602902,13.1305796 L3.42602902,14 L4.09516291,13.493978 L8.61787257,10.5862186 L8.3716998,10.6697096 L13.5770389,10.6697096 L14,10.6697096 L14,10.6697096 Z" id="Interview-Copy-5"></path>
            </g>
        </g>
    </g>
</svg>