<?xml version="1.0" encoding="utf-8"?>
<!-- Generator: Adobe Illustrator 17.1.0, SVG Export Plug-In . SVG Version: 6.00 Build 0)  -->
<!DOCTYPE svg PUBLIC "-//W3C//DTD SVG 1.1//EN" "http://www.w3.org/Graphics/SVG/1.1/DTD/svg11.dtd">
<svg version="1.1" id="Layer_1" xmlns="http://www.w3.org/2000/svg" xmlns:xlink="http://www.w3.org/1999/xlink" x="0px" y="0px"
	 viewBox="0 0 40 40" enable-background="new 0 0 40 40" xml:space="preserve">
<path fill="#FFFFFF" d="M37.8,2.2C36.3,0.7,34.3,0,32.3,0c-2.2,0-4.2,0.8-5.8,2.5l0,0l11,11l0,0l0,0c1.7-1.7,2.5-3.7,2.5-5.8
	C40,5.7,39.3,3.7,37.8,2.2z M25.2,4.5L25.2,4.5c-0.5,0-1.7,1.2-3.2,2.5L7.2,21.8c-1.5,1.5-2.5,2.8-2.5,3.2l0,0
	c0,0.2-0.2,0.2-0.2,0.3L0.2,37.8C0,38,0,38.2,0,38.5l0,0c0,0.3,0.2,0.7,0.5,1c0.3,0.3,0.7,0.5,1,0.5l0,0c0.2,0,0.5,0,0.7-0.2
	l12.5-4.3c0.2,0,0.2-0.2,0.3-0.2l0,0c0.3,0,1.7-1.2,3.2-2.5L33,18c1.5-1.5,2.5-2.8,2.7-3.2l0,0L25.2,4.5z M7,35.7l-2.5-2.5L6.7,27
	l6.5,6.5L7,35.7z"/>
</svg>
