<?xml version="1.0" encoding="utf-8"?>
<!-- Generator: Adobe Illustrator 17.1.0, SVG Export Plug-In . SVG Version: 6.00 Build 0)  -->
<!DOCTYPE svg PUBLIC "-//W3C//DTD SVG 1.1//EN" "http://www.w3.org/Graphics/SVG/1.1/DTD/svg11.dtd">
<svg version="1.1" id="Layer_1" xmlns="http://www.w3.org/2000/svg" xmlns:xlink="http://www.w3.org/1999/xlink" x="0px" y="0px"
	 viewBox="0 0 24 24" enable-background="new 0 0 24 24" xml:space="preserve">
<path d="M22.7,1.3C21.8,0.4,20.6,0,19.4,0c-1.3,0-2.5,0.5-3.5,1.5l0,0l6.6,6.6l0,0l0,0c1-1,1.5-2.2,1.5-3.5
	C24,3.4,23.6,2.2,22.7,1.3z M15.1,2.7C15.1,2.7,15.1,2.7,15.1,2.7c-0.3,0-1,0.7-1.9,1.5l-8.9,8.9C3.4,14,2.8,14.8,2.8,15
	c0,0,0,0,0,0c0,0.1-0.1,0.1-0.1,0.2l-2.6,7.5C0,22.8,0,22.9,0,23.1c0,0,0,0,0,0c0,0.2,0.1,0.4,0.3,0.6C0.5,23.9,0.7,24,0.9,24h0
	c0.1,0,0.3,0,0.4-0.1l7.5-2.6c0.1,0,0.1-0.1,0.2-0.1c0,0,0,0,0,0c0.2,0,1-0.7,1.9-1.5l8.9-8.9c0.9-0.9,1.5-1.7,1.6-1.9c0,0,0,0,0,0
	L15.1,2.7z M4.2,21.4l-1.5-1.5l1.3-3.7l3.9,3.9L4.2,21.4z"/>
</svg>
