<?xml version="1.0" encoding="UTF-8" standalone="no"?>
<svg width="12px" height="17px" viewBox="0 0 12 17" version="1.1" xmlns="http://www.w3.org/2000/svg" xmlns:xlink="http://www.w3.org/1999/xlink" xmlns:sketch="http://www.bohemiancoding.com/sketch/ns">
    <!-- Generator: Sketch 3.3.2 (12043) - http://www.bohemiancoding.com/sketch -->
    <title>Imported Layers Copy 5</title>
    <desc>Created with Sketch.</desc>
    <defs></defs>
    <g id="Web-App-0.9" stroke="none" stroke-width="1" fill="none" fill-rule="evenodd" sketch:type="MSPage">
        <g id="New-Copy-3" sketch:type="MSArtboardGroup" transform="translate(-772.000000, -351.000000)">
            <g id="Group-Copy-5" sketch:type="MSLayerGroup" transform="translate(445.000000, 243.000000)">
                <g id="Imported-Layers-Copy-5" transform="translate(328.000000, 109.000000)" sketch:type="MSShapeGroup">
                    <path d="M8.5128,15.5647143 L1.8432,15.5647143 C0.9832,15.5647143 0.2792,14.8523333 0.2792,13.9820952 L0.2792,1.76638095 C0.2792,0.896142857 0.9832,0.183761905 1.8432,0.183761905 L8.5128,0.183761905 C9.3728,0.183761905 10.0768,0.896142857 10.0768,1.76638095 L10.0768,13.9820952 C10.0768,14.8523333 9.3728,15.5647143 8.5128,15.5647143 L8.5128,15.5647143 Z M0.2792,11.4118571 L10.0768,11.4118571 L0.2792,11.4118571 Z M0.2792,2.44314286 L10.0768,2.44314286 L0.2792,2.44314286 Z" id="Stroke-1" stroke="#C5C7C7" stroke-width="0.8"></path>
                    <path d="M5.984,13.462381 C5.984,13.9108571 5.6232,14.2743333 5.1784,14.2743333 C4.7328,14.2743333 4.372,13.9108571 4.372,13.462381 C4.372,13.0139048 4.7328,12.6512381 5.1784,12.6512381 C5.6232,12.6512381 5.984,13.0139048 5.984,13.462381" id="Fill-2" fill="#C5C7C7"></path>
                </g>
            </g>
        </g>
    </g>
</svg>