<?xml version="1.0" encoding="utf-8"?>
<!-- Generator: Adobe Illustrator 17.1.0, SVG Export Plug-In . SVG Version: 6.00 Build 0)  -->
<!DOCTYPE svg PUBLIC "-//W3C//DTD SVG 1.1//EN" "http://www.w3.org/Graphics/SVG/1.1/DTD/svg11.dtd">
<svg version="1.1" id="Layer_1" xmlns="http://www.w3.org/2000/svg" xmlns:xlink="http://www.w3.org/1999/xlink" x="0px" y="0px"
	 viewBox="0 0 40 34" enable-background="new 0 0 40 34" xml:space="preserve">
<path fill="#EF4123" d="M12.9,6.5C12.9,2.9,10,0,6.5,0C2.9,0,0,2.9,0,6.5c0,3.6,2.9,6.5,6.5,6.5C10,12.9,12.9,10,12.9,6.5z M33.5,0
	c-3.6,0-6.5,2.9-6.5,6.5c0,3.6,2.9,6.4,6.5,6.5c3.6,0,6.5-2.9,6.5-6.5C40,2.9,37.1,0,33.5,0z M20,18.1C20,18.1,20,18.1,20,18.1
	L20,18.1L20,18.1c-6.1,0-12.1,2.6-16.3,7.8c-0.6,0.7-0.8,1.5-0.8,2.4c0,1.1,0.5,2.2,1.4,3C5,31.8,5.9,32,6.7,32
	c1.1,0,2.2-0.5,2.9-1.4c2.7-3.3,6.5-4.9,10.3-4.9c3.9,0,7.7,1.6,10.3,4.9c0.8,0.9,1.9,1.4,3,1.4c0.8,0,1.7-0.3,2.4-0.8
	c0.9-0.8,1.4-1.8,1.4-3c0-0.8-0.3-1.7-0.8-2.4C32.1,20.7,26,18.1,20,18.1z"/>
</svg>
