<?xml version="1.0" encoding="utf-8"?>
<!-- Generator: Adobe Illustrator 17.1.0, SVG Export Plug-In . SVG Version: 6.00 Build 0)  -->
<!DOCTYPE svg PUBLIC "-//W3C//DTD SVG 1.1//EN" "http://www.w3.org/Graphics/SVG/1.1/DTD/svg11.dtd">
<svg version="1.1" id="Layer_1" xmlns="http://www.w3.org/2000/svg" xmlns:xlink="http://www.w3.org/1999/xlink" x="0px" y="0px"
	 viewBox="0 0 42 27" enable-background="new 0 0 42 27" xml:space="preserve">
<g>
	<path fill="#989898" d="M41.5,11.9c-2.2-3.6-5.1-6.5-8.8-8.6C29,1.1,25.1,0,21,0c-4.1,0-8,1.1-11.7,3.3c-3.7,2.2-6.6,5-8.8,8.6
		C0.2,12.4,0,13,0,13.5c0,0.5,0.2,1.1,0.5,1.6c2.2,3.6,5.1,6.5,8.8,8.6C13,25.9,16.9,27,21,27c4.1,0,8-1.1,11.7-3.2
		c3.7-2.2,6.6-5,8.8-8.6c0.3-0.5,0.5-1.1,0.5-1.6C42,13,41.8,12.4,41.5,11.9L41.5,11.9z M16,5.5c1.4-1.4,3.1-2.1,5-2.1
		c0.3,0,0.6,0.1,0.8,0.3c0.2,0.2,0.3,0.5,0.3,0.8c0,0.3-0.1,0.6-0.3,0.8c-0.2,0.2-0.5,0.3-0.8,0.3c-1.3,0-2.5,0.5-3.4,1.4
		c-1,1-1.4,2.1-1.4,3.4c0,0.3-0.1,0.6-0.3,0.8c-0.2,0.2-0.5,0.3-0.8,0.3c-0.3,0-0.6-0.1-0.8-0.3c-0.2-0.2-0.3-0.5-0.3-0.8
		C13.9,8.5,14.6,6.9,16,5.5L16,5.5z M31.2,21.2C28.1,23.1,24.7,24,21,24c-3.7,0-7-0.9-10.2-2.8c-3.1-1.9-5.7-4.4-7.8-7.7
		c2.4-3.7,5.4-6.4,8.9-8.3c-1,1.6-1.4,3.4-1.4,5.3c0,2.9,1,5.4,3.1,7.4C15.6,20,18.1,21,21,21c2.9,0,5.4-1,7.4-3.1s3.1-4.5,3.1-7.4
		c0-1.9-0.5-3.6-1.4-5.3c3.6,1.8,6.6,4.6,8.9,8.3C36.9,16.7,34.3,19.3,31.2,21.2L31.2,21.2z M31.2,21.2"/>
</g>
</svg>
