<?xml version="1.0" encoding="utf-8"?>
<!-- Generator: Adobe Illustrator 17.1.0, SVG Export Plug-In . SVG Version: 6.00 Build 0)  -->
<!DOCTYPE svg PUBLIC "-//W3C//DTD SVG 1.1//EN" "http://www.w3.org/Graphics/SVG/1.1/DTD/svg11.dtd">
<svg version="1.1" id="Layer_1" xmlns="http://www.w3.org/2000/svg" xmlns:xlink="http://www.w3.org/1999/xlink" x="0px" y="0px"
	 viewBox="0 0 40 40" enable-background="new 0 0 40 40" xml:space="preserve">
<g>
	<g>
		<path fill="#72CADA" d="M3.8,21.1c-1.5,0-2.7-0.9-3.1-2.2c0-0.1,0-0.1,0-0.2c-0.5-1.7,0.5-3.5,2.2-4.1l27.6-9.2
			c0.3-0.1,0.7-0.1,1-0.1c1.5,0,2.8,0.9,3.2,2.3l0,0.1c0.5,1.8-0.8,3.4-2.3,3.9c0,0-0.3,0.1-27.5,9.4C4.6,21.1,4.2,21.1,3.8,21.1z"
			/>
	</g>
	<g>
		<path fill="#DF1766" d="M8.4,34.7c-1.5,0-2.7-0.8-3.2-2.2c0-0.1,0-0.1,0-0.2c-0.5-1.8,0.5-3.6,2.2-4.2L35,18.9
			c0.4-0.1,0.7-0.2,1.1-0.2c1.5,0,2.8,0.9,3.2,2.2l0,0.1c0.3,0.9,0.1,2-0.4,2.8c-0.4,0.6-1.6,1.2-1.6,1.2L9.6,34.5
			C9.2,34.6,8.8,34.7,8.4,34.7z"/>
	</g>
	<g>
		<path fill="#E8A725" d="M31.4,34.8c-1.5,0-2.8-0.9-3.2-2.3L18.9,5.1l0-0.2c-0.5-1.7,0.5-3.6,2.2-4.1c0.3-0.1,0.7-0.2,1.1-0.2
			c0.5,0,1,0.1,1.5,0.4c0.8,0.4,1.4,1.1,1.7,2l9.2,27.4l0,0.1c0.5,1.8-0.4,3.6-2.2,4.2C32.1,34.7,31.8,34.8,31.4,34.8z"/>
	</g>
	<g>
		<path fill="#3FB890" d="M17.7,39.4c-1.5,0-2.8-0.9-3.2-2.3L5.2,9.7c0-0.1,0-0.1,0-0.2C4.7,7.8,5.7,6,7.4,5.4
			c0.3-0.1,0.7-0.2,1.1-0.2c1.5,0,2.8,0.9,3.2,2.3l9.2,27.4c0,0,0,0.1,0,0.2c0.5,1.7-0.5,3.6-2.2,4.1C18.4,39.3,18.1,39.4,17.7,39.4
			z"/>
	</g>
	<polygon fill="#CC2128" points="26.9,28.6 33.3,26.4 31.2,20.2 24.8,22.4 	"/>
	<polygon fill="#361538" points="13.2,33.3 19.6,31.1 17.5,24.8 11.1,27 	"/>
	<path fill="#66873A" d="M22.3,15c2.9-1,5-1.7,6.4-2.2l-2.1-6.2l-6.4,2.2L22.3,15z"/>
	<path fill="#1E937D" d="M8.6,19.7c2.4-0.8,4.5-1.5,6.4-2.2l-2.1-6.2l-6.4,2.2L8.6,19.7z"/>
</g>
</svg>
