<?xml version="1.0" encoding="utf-8"?>
<!-- Generator: Adobe Illustrator 17.1.0, SVG Export Plug-In . SVG Version: 6.00 Build 0)  -->
<!DOCTYPE svg PUBLIC "-//W3C//DTD SVG 1.1//EN" "http://www.w3.org/Graphics/SVG/1.1/DTD/svg11.dtd">
<svg version="1.1" id="Layer_1" xmlns="http://www.w3.org/2000/svg" xmlns:xlink="http://www.w3.org/1999/xlink" x="0px" y="0px"
	 viewBox="0 0 200 90" enable-background="new 0 0 200 90" xml:space="preserve">
<g>
	<path fill="#2F2823" d="M53.1,23.7c-5.4-2.3-11.8-2.4-17.6,0L44.3,45L23,36.2c-2.3,5.4-2.4,11.8,0,17.6c2.4,5.9,7,10.2,12.5,12.5
		c5.4,2.3,11.8,2.4,17.6,0s10.2-7,12.5-12.5c2.3-5.4,2.4-11.8,0-17.6C63.2,30.3,58.6,26,53.1,23.7z"/>
	<path fill="#2F2823" d="M164.5,23.7c-5.4-2.3-11.8-2.4-17.6,0l8.8,21.3l-21.3-8.8c-2.3,5.4-2.4,11.8,0,17.6
		c2.4,5.9,7,10.2,12.5,12.5c5.4,2.3,11.8,2.4,17.6,0s10.2-7,12.5-12.5c2.3-5.4,2.4-11.8,0-17.6C174.5,30.3,170,26,164.5,23.7z"/>
	<path fill="#2F2823" d="M155.7,0.7c-13.4,0-25.3,6-33.5,15.3c-0.9,1.1-2.3,1.7-3.8,1.7h-6.1c-1.7-5.2-6.6-8.9-12.3-8.9
		s-10.6,3.7-12.3,8.9h-6.1c-1.4,0-2.8-0.6-3.8-1.7C69.3,6.2,56.6,0.2,42.6,0.7C20.2,1.6,1.7,19.5,0.1,41.8
		c-1.8,25.9,18.7,47.5,44.2,47.5c24.4,0,44.3-19.9,44.3-44.3v1.2c0-6.3,5.1-11.4,11.4-11.4c6.3,0,11.4,5.1,11.4,11.4V45
		c0,25.5,21.6,46,47.5,44.2c21.8-1.5,39.5-19.2,41-41C201.7,22.3,181.2,0.7,155.7,0.7z M44.3,80.4C24.8,80.4,8.9,64.5,8.9,45
		S24.8,9.6,44.3,9.6c19.5,0,35.4,15.9,35.4,35.4S63.9,80.4,44.3,80.4z M100,26c-2.3,0-4.2-1.9-4.2-4.2c0-2.3,1.9-4.2,4.2-4.2
		s4.2,1.9,4.2,4.2C104.2,24.1,102.3,26,100,26z M155.7,80.4c-19.5,0-35.4-15.9-35.4-35.4s15.9-35.4,35.4-35.4
		c19.5,0,35.4,15.9,35.4,35.4S175.2,80.4,155.7,80.4z"/>
</g>
</svg>
