<?xml version="1.0" encoding="utf-8"?>
<!-- Generator: Adobe Illustrator 17.1.0, SVG Export Plug-In . SVG Version: 6.00 Build 0)  -->
<!DOCTYPE svg PUBLIC "-//W3C//DTD SVG 1.1//EN" "http://www.w3.org/Graphics/SVG/1.1/DTD/svg11.dtd">
<svg version="1.1" id="Layer_1" xmlns="http://www.w3.org/2000/svg" xmlns:xlink="http://www.w3.org/1999/xlink" x="0px" y="0px"
	 viewBox="0 0 40 34" enable-background="new 0 0 40 34" xml:space="preserve">
<path fill="#33A544" d="M12.9,6.5c0-3.6-2.9-6.5-6.5-6.5C2.9,0,0,2.9,0,6.5C0,10.1,2.9,13,6.5,13C10.1,12.9,12.9,10.1,12.9,6.5z
	 M35.7,20L35.7,20c-0.7-0.6-1.5-0.9-2.4-0.9c-1.2,0-2.3,0.5-3.1,1.5c-2.6,3.3-6.4,4.9-10.2,4.9c-3.8,0-7.6-1.6-10.2-4.9
	C9,19.6,7.8,19,6.7,19c-0.9,0-1.7,0.3-2.5,0.9c-1,0.8-1.5,1.9-1.5,3.1c0,0.9,0.3,1.7,0.9,2.5c4.2,5.2,10.3,7.9,16.4,7.9h0
	c6,0,12.2-2.7,16.3-7.9c0.6-0.7,0.9-1.6,0.9-2.5C37.2,21.8,36.7,20.7,35.7,20L35.7,20z M33.5,0C29.9,0,27,2.9,27,6.5
	c0,3.6,2.9,6.5,6.5,6.5c3.6,0,6.5-2.9,6.5-6.5C40,2.9,37.1,0,33.5,0z"/>
</svg>
