<?xml version="1.0" encoding="utf-8"?>
<!-- Generator: Adobe Illustrator 16.0.0, SVG Export Plug-In . SVG Version: 6.00 Build 0)  -->
<!DOCTYPE svg PUBLIC "-//W3C//DTD SVG 1.1//EN" "http://www.w3.org/Graphics/SVG/1.1/DTD/svg11.dtd">
<svg version="1.1" id="Layer_1" xmlns="http://www.w3.org/2000/svg" xmlns:xlink="http://www.w3.org/1999/xlink" x="0px" y="0px"
	 width="30px" height="30px" viewBox="0 0 30 30" enable-background="new 0 0 30 30" xml:space="preserve">
<path fill="#FFFFFF" d="M30,15c0-8.236-6.639-14.923-14.857-15C6.904-0.076,0.086,6.603,0.001,14.841
	c-0.079,7.667,5.594,14.023,12.968,15.022c0.529,0.071,0.998-0.346,0.998-0.88v-8.834c0-0.249,0.165-0.572,0.365-0.719l0.867-0.632
	c0.201-0.146,0.162-0.267-0.087-0.267H5.072c-0.249,0-0.321-0.155-0.16-0.345l2.41-2.843c0.161-0.19,0.161-0.5,0-0.69l-2.409-2.842
	c-0.161-0.19-0.089-0.345,0.16-0.345h8.442c0.249,0,0.453-0.204,0.453-0.452V7.561c0-0.249,0.203-0.452,0.452-0.452h1.163
	c0.249,0,0.452,0.203,0.452,0.452v3.455c0,0.249,0.204,0.452,0.453,0.452h6.353c0.249,0,0.584,0.155,0.745,0.345l2.408,2.842
	c0.161,0.19,0.161,0.5,0,0.69l-2.408,2.843c-0.161,0.189-0.496,0.345-0.745,0.345h-6.353c-0.249,0-0.453,0.204-0.453,0.452v9.999
	c0,0.534,0.471,0.951,1,0.879C24.355,28.87,30,22.595,30,15"/>
</svg>
