<?xml version="1.0" encoding="utf-8"?>
<!-- Generator: Adobe Illustrator 16.0.0, SVG Export Plug-In . SVG Version: 6.00 Build 0)  -->
<!DOCTYPE svg PUBLIC "-//W3C//DTD SVG 1.1//EN" "http://www.w3.org/Graphics/SVG/1.1/DTD/svg11.dtd">
<svg version="1.1" id="Layer_1" xmlns="http://www.w3.org/2000/svg" xmlns:xlink="http://www.w3.org/1999/xlink" x="0px" y="0px"
	 width="60px" height="60px" viewBox="0.5 30.5 60 60" enable-background="new 0.5 30.5 60 60" xml:space="preserve">
<path fill="#231F20" d="M60.5,60.50098c0-16.47266-13.27734-29.8457-29.71484-30
	C14.30762,30.34863,0.67188,43.70801,0.50195,60.18457C0.34375,75.5166,11.68945,88.22949,26.4375,90.22754
	c1.05762,0.14258,1.99512-0.69141,1.99512-1.75977V70.7998c0-0.49805,0.3291-1.14453,0.73047-1.4375l1.7334-1.26367
	c0.40039-0.29297,0.32227-0.5332-0.17383-0.5332h-20.0791c-0.49805,0-0.6416-0.31055-0.31934-0.68945l4.81934-5.68555
	c0.32129-0.38086,0.32129-1-0.00098-1.38086l-4.81836-5.68359c-0.32227-0.37891-0.17773-0.68945,0.31934-0.68945h16.88379
	c0.49805,0,0.90527-0.4082,0.90527-0.9043v-6.91016c0-0.49609,0.40625-0.90234,0.9043-0.90234h2.3252
	c0.49805,0,0.9043,0.40625,0.9043,0.90234v6.91016c0,0.49609,0.4082,0.9043,0.90625,0.9043h12.70508
	c0.49805,0,1.16797,0.31055,1.49023,0.68945l4.81641,5.68359c0.32227,0.38086,0.32227,1.00195,0,1.38086l-4.81641,5.68555
	c-0.32227,0.37891-0.99219,0.68945-1.49023,0.68945H33.47266c-0.49805,0-0.90625,0.4082-0.90625,0.9043v19.99805
	c0,1.06836,0.94141,1.90234,2,1.75781C49.21094,88.24121,60.5,75.69043,60.5,60.50098"/>
</svg>
