<svg width="14" height="18" viewBox="0 0 14 18" xmlns="http://www.w3.org/2000/svg"><title>delete</title><desc>Created with Sketch.</desc><g fill="none" fill-rule="evenodd"><g fill="#D10505"><path d="M5.41 14.447c-.346 0-.626-.28-.626-.625V7.885c0-.345.28-.625.625-.625.344 0 .624.28.624.625v5.937c0 .345-.28.625-.625.625"/><path d="M8.86 14.447c-.345 0-.626-.28-.626-.625V7.885c0-.345.28-.625.625-.625.344 0 .624.28.624.625v5.937c0 .345-.28.625-.625.625"/><path d="M10.735 4.397H3.402c-.203 0-.393-.098-.51-.263-.117-.166-.147-.378-.078-.57L3.87.57c.113-.326.426-.55.778-.55h4.84c.35 0 .663.22.78.55l1.057 2.994c.068.192.037.404-.08.57-.117.165-.306.263-.51.263zm-6.45-1.25h5.567L9.19 1.27H4.95l-.664 1.877z"/><path d="M12.033 17.732H2.225c-.43 0-.79-.336-.823-.763L.66 7.074c-.027-.345.232-.644.575-.67.345-.017.645.233.67.576l.714 9.502h9.02l.906-12.085H1.254c-.345 0-.625-.28-.625-.625 0-.344.28-.625.624-.625h11.75c.228 0 .45.097.604.264.157.17.236.397.218.624l-.97 12.935c-.033.426-.394.762-.823.762"/></g></g></svg>