<svg width="16" height="18" viewBox="0 0 16 18" xmlns="http://www.w3.org/2000/svg"><title>duplicate</title><desc>Created with Sketch.</desc><g fill="none" fill-rule="evenodd"><g fill="#939598"><path d="M14.71 11.2c.29 0 .527-.24.527-.536v-5.52c0-.187-.07-.363-.203-.502L11.387.932C11.255.8 11.082.728 10.9.728H3.4c-.384 0-.695.316-.695.706v1.298H.9c-.384 0-.695.318-.695.707v13.824c0 .39.31.707.694.707H12.04c.383 0 .695-.316.695-.706v-.755h1.805c.383 0 .695-.318.695-.708v-1.105c0-.295-.236-.535-.526-.535-.29 0-.526.24-.526.535v.74H12.38c-.384 0-.696.318-.696.708v.754H1.257V3.805h6.995L11.684 7.3v5.37c0 .295.236.535.527.535.29 0 .527-.24.527-.536V7.15c0-.187-.074-.37-.203-.5L8.896 2.946c-.13-.136-.31-.213-.496-.213H3.757V1.8h6.995l3.432 3.494v5.37c0 .295.236.535.527.535"/><path d="M6.395 13.525c.232 0 .42-.19.42-.43v-2.003h1.97c.232 0 .42-.19.42-.428 0-.237-.188-.43-.42-.43h-1.97V8.233c0-.237-.188-.43-.42-.43-.233 0-.42.193-.42.43v2.003h-1.97c-.233 0-.42.192-.42.43 0 .236.187.427.42.427h1.97v2.004c0 .238.187.43.42.43"/></g></g></svg>