<svg width="18" height="17" viewBox="0 0 18 17" xmlns="http://www.w3.org/2000/svg"><title>edit</title><desc>Created with Sketch.</desc><g fill="none" fill-rule="evenodd"><g fill="#939598"><path d="M13.59 16.832H1.123c-.41 0-.742-.332-.742-.738V3.702c0-.408.333-.74.742-.74h5.894c.31 0 .563.252.563.56 0 .308-.25.56-.562.56h-5.51v11.63h11.7v-3.8c0-.31.25-.56.56-.56.312 0 .564.25.564.56v4.182c0 .406-.333.738-.743.738"/><path d="M9.666 10.918c-.198 0-.384-.076-.526-.215L7.182 8.756c-.29-.288-.29-.756 0-1.044l7.5-7.455c.29-.287.76-.287 1.05 0l1.958 1.947c.29.288.29.756 0 1.044l-4.14 4.116c-.22.22-.577.22-.796 0-.22-.22-.22-.573 0-.79l3.87-3.848-1.418-1.408L8.25 8.234l1.416 1.41.995-.99c.22-.218.576-.218.796 0 .22.218.22.573 0 .792l-1.264 1.257c-.14.14-.327.215-.526.215"/><path d="M4.487 13.163L5.45 9.5c.036-.136.205-.18.303-.083l2.723 2.707c.098.098.053.265-.082.3l-3.687.958c-.133.035-.254-.086-.22-.22"/></g></g></svg>