<svg width="13" height="7" viewBox="0 0 13 7" xmlns="http://www.w3.org/2000/svg"><title>Edit</title><desc>Created with Sketch.</desc><g fill="none" fill-rule="evenodd"><g fill="#A8A8A8"><path d="M3.736 5.608H1.112V3.264h2.424v-.392H1.112v-2H3.68V.48h-3V6h3.056v-.392zm.624-1.464c0 1.096.72 1.936 1.84 1.936.56 0 1.064-.24 1.376-.768V6H8V.48h-.424v2.504c-.36-.544-.856-.76-1.392-.76-1.104 0-1.824.816-1.824 1.92zm.44 0c0-.864.504-1.56 1.4-1.56.904 0 1.4.696 1.4 1.56 0 .856-.496 1.56-1.4 1.56-.896 0-1.4-.704-1.4-1.56zM9.832.968c0-.192-.152-.344-.344-.344-.192 0-.344.152-.344.344 0 .192.152.344.344.344.192 0 .344-.152.344-.344zm-.136 1.32H9.28V6h.416V2.288zm2.72 3.312s-.16.104-.4.104c-.496 0-.544-.488-.544-.896V2.68h.944v-.376h-.936V1.12h-.424v1.184h-.56v.376h.56v1.88c0 .6.008.872.136 1.12.136.248.344.4.704.4s.56-.12.56-.12l-.04-.36z"/></g></g></svg>