<svg width="14" height="11" viewBox="0 0 14 11" xmlns="http://www.w3.org/2000/svg"><title></title><desc>Created with Sketch.</desc><g fill="none" fill-rule="evenodd"><g fill="#C5C7C7"><g><g><path d="M13 9.75v-6c-.167.188-.346.36-.54.516-1.395 1.073-2.504 1.953-3.327 2.64-.266.224-.482.4-.65.524-.165.125-.39.25-.674.38-.285.126-.552.19-.802.19h-.016c-.25 0-.517-.064-.8-.19-.284-.13-.51-.255-.676-.38-.167-.125-.383-.3-.65-.524-.822-.687-1.93-1.567-3.327-2.64-.194-.157-.373-.328-.54-.516v6c0 .068.025.126.074.176.05.05.108.074.176.074h11.5c.068 0 .126-.025.176-.074.05-.05.074-.108.074-.176zm0-8.21v-.192c0-.024 0-.058-.004-.102-.003-.044-.01-.077-.023-.098l-.043-.07c-.016-.026-.04-.045-.07-.058-.032-.013-.068-.02-.11-.02H1.25c-.068 0-.126.025-.176.074-.05.05-.074.108-.074.176 0 .875.383 1.615 1.148 2.22 1.006.79 2.05 1.616 3.133 2.475.033.026.124.103.275.23.15.128.27.226.36.294.088.066.203.148.347.245.143.096.274.168.394.215.12.047.232.07.336.07h.016c.104 0 .216-.023.336-.07.12-.047.25-.12.394-.215.144-.097.26-.18.348-.246.088-.07.208-.167.36-.294.15-.128.24-.205.273-.23 1.082-.86 2.126-1.686 3.132-2.477.28-.225.543-.526.785-.904.242-.377.363-.72.363-1.027zm1-.29v8.5c0 .344-.122.638-.367.883s-.54.367-.883.367H1.25c-.344 0-.638-.122-.883-.367S0 10.093 0 9.75v-8.5C0 .906.122.612.367.367S.907 0 1.25 0h11.5c.344 0 .638.122.883.367s.367.54.367.883z"/></g></g></g></g></svg>