<svg width="15" height="12" viewBox="0 0 15 12" xmlns="http://www.w3.org/2000/svg"><title>Type something</title><desc>Created with Sketch.</desc><g fill="none" fill-rule="evenodd"><g fill="#949799"><g><g><path d="M11.5 7.25v2.5c0 .62-.22 1.15-.66 1.59-.44.44-.97.66-1.59.66h-6.5c-.62 0-1.15-.22-1.59-.66C.72 10.9.5 10.37.5 9.75v-6.5c0-.62.22-1.15.66-1.59.44-.44.97-.66 1.59-.66h5.5c.073 0 .133.023.18.07.047.047.07.107.07.18v.5c0 .073-.023.133-.07.18-.047.047-.107.07-.18.07h-5.5c-.344 0-.638.122-.883.367s-.367.54-.367.883v6.5c0 .344.122.638.367.883s.54.367.883.367h6.5c.344 0 .638-.122.883-.367s.367-.54.367-.883v-2.5c0-.073.023-.133.07-.18.047-.047.107-.07.18-.07h.5c.073 0 .133.023.18.07.047.047.07.107.07.18zm3-6.75v4c0 .135-.05.253-.148.352-.1.1-.217.148-.352.148-.135 0-.253-.05-.352-.148l-1.375-1.375L7.18 8.57c-.052.052-.112.078-.18.078-.068 0-.128-.026-.18-.078l-.89-.89c-.052-.052-.078-.112-.078-.18 0-.068.026-.128.078-.18l5.093-5.093L9.648.852C9.548.752 9.5.635 9.5.5c0-.135.05-.253.148-.352.1-.1.217-.148.352-.148h4c.135 0 .253.05.352.148.1.1.148.217.148.352z"/></g></g></g></g></svg>