<svg width="35" height="36" viewBox="0 0 35 36" xmlns="http://www.w3.org/2000/svg"><title>Imported Layers</title><desc>Created with Sketch.</desc><g fill="none" fill-rule="evenodd"><g><g><path d="M34.237 18.163c0 9.212-7.468 16.68-16.68 16.68-9.213 0-16.68-7.468-16.68-16.68 0-9.213 7.467-16.68 16.68-16.68 9.212 0 16.68 7.467 16.68 16.68z"/><path d="M34.237 18.163c0 9.212-7.468 16.68-16.68 16.68-9.213 0-16.68-7.468-16.68-16.68 0-9.213 7.467-16.68 16.68-16.68 9.212 0 16.68 7.467 16.68 16.68z" stroke="#C5C7C7"/><path d="M6.103 30.283v-1.46c0-1.057.603-2.02 1.553-2.484l1.52-.21c1.605-.222 3.13-.834 4.444-1.783l3.845-2.78 3.95 2.812c1.302.925 2.81 1.523 4.393 1.74l1.632.224c.96.46 1.57 1.428 1.57 2.492v1.444" stroke="#C5C7C7"/><path d="M23.392 18.163c0 1.376-.34 2.66-.925 3.74-1.052 1.935-2.897 3.22-4.997 3.22-2.04 0-3.843-1.215-4.907-3.064-.64-1.113-1.015-2.454-1.015-3.897 0-3.844 2.653-6.96 5.922-6.96 3.27 0 5.922 3.116 5.922 6.96z" fill="#F6F6F6"/><path d="M23.392 18.163c0 1.376-.34 2.66-.925 3.74-1.052 1.935-2.897 3.22-4.997 3.22-2.04 0-3.843-1.215-4.907-3.064-.64-1.113-1.015-2.454-1.015-3.897 0-3.844 2.653-6.96 5.922-6.96 3.27 0 5.922 3.116 5.922 6.96z" stroke="#C5C7C7"/></g></g></g></svg>