<svg xmlns="http://www.w3.org/2000/svg" viewBox="0 0 200 90" enable-background="new 0 0 200 90"><g fill="#2F2823"><path d="M53.1 23.7c-5.4-2.3-11.8-2.4-17.6 0L44.3 45 23 36.2c-2.3 5.4-2.4 11.8 0 17.6 2.4 5.9 7 10.2 12.5 12.5 5.4 2.3 11.8 2.4 17.6 0s10.2-7 12.5-12.5c2.3-5.4 2.4-11.8 0-17.6-2.4-5.9-7-10.2-12.5-12.5zM164.5 23.7c-5.4-2.3-11.8-2.4-17.6 0l8.8 21.3-21.3-8.8c-2.3 5.4-2.4 11.8 0 17.6 2.4 5.9 7 10.2 12.5 12.5 5.4 2.3 11.8 2.4 17.6 0s10.2-7 12.5-12.5c2.3-5.4 2.4-11.8 0-17.6-2.5-5.9-7-10.2-12.5-12.5zM155.7.7c-13.4 0-25.3 6-33.5 15.3-.9 1.1-2.3 1.7-3.8 1.7h-6.1c-1.7-5.2-6.6-8.9-12.3-8.9s-10.6 3.7-12.3 8.9h-6.1c-1.4 0-2.8-.6-3.8-1.7C69.3 6.2 56.6.2 42.6.7 20.2 1.6 1.7 19.5.1 41.8c-1.8 25.9 18.7 47.5 44.2 47.5 24.4 0 44.3-19.9 44.3-44.3v1.2c0-6.3 5.1-11.4 11.4-11.4 6.3 0 11.4 5.1 11.4 11.4V45c0 25.5 21.6 46 47.5 44.2 21.8-1.5 39.5-19.2 41-41C201.7 22.3 181.2.7 155.7.7zM44.3 80.4C24.8 80.4 8.9 64.5 8.9 45S24.8 9.6 44.3 9.6 79.7 25.5 79.7 45 63.9 80.4 44.3 80.4zM100 26c-2.3 0-4.2-1.9-4.2-4.2 0-2.3 1.9-4.2 4.2-4.2s4.2 1.9 4.2 4.2c0 2.3-1.9 4.2-4.2 4.2zm55.7 54.4c-19.5 0-35.4-15.9-35.4-35.4s15.9-35.4 35.4-35.4 35.4 15.9 35.4 35.4-15.9 35.4-35.4 35.4z"/></g></svg>