<svg xmlns="http://www.w3.org/2000/svg" viewBox="0 0 60 27" enable-background="new 0 0 60 27"><g fill="#fff"><path d="M15.8 7.1c-1.4-.6-3-.7-4.6-.2-.3.1-.4.4-.3.7l2.4 5.7-5.7-2.4c-.3-.1-.6 0-.7.3-.5 1.5-.4 3.1.2 4.6.7 1.7 2 3 3.6 3.6 1.6.7 3.4.7 5.1 0 1.7-.7 3-2 3.6-3.6.7-1.6.7-3.4 0-5.1-.7-1.7-2-3-3.6-3.6zM48.4.1C43.3-.5 38.7 1.8 36 5.6c-.1.1-.2.2-.4.2h-.8c-.2 0-.3-.1-.4-.2C33.5 4 31.8 3 30 3s-3.5 1-4.3 2.5c-.1.2-.2.2-.4.2h-.8c-.2 0-.3-.1-.4-.2C21.4 1.7 16.8-.6 11.6 0 5.6.8.8 5.7.1 11.7c-.9 8 5.4 14.8 13.2 14.8 6.5 0 11.9-4.7 13-10.8 0-.1.1-.2.2-.3l3-1.9c.3-.2.7-.2 1 0l3 1.9c.1.1.2.2.2.3 1.1 6.1 6.5 10.8 13 10.8 7.8 0 14.1-6.8 13.2-14.8C59.2 5.7 54.4.8 48.4.1zM30 6.5c.9 0 1.6.7 1.6 1.6 0 .9-.7 1.6-1.6 1.6s-1.6-.7-1.6-1.6c0-.9.7-1.6 1.6-1.6zM13.2 23.1c-5.4 0-9.8-4.4-9.8-9.8s4.4-9.8 9.8-9.8S23 7.9 23 13.3s-4.3 9.8-9.8 9.8zm33.6 0c-5.4 0-9.8-4.4-9.8-9.8s4.4-9.8 9.8-9.8 9.8 4.4 9.8 9.8-4.4 9.8-9.8 9.8zM49.3 7.1c-1.4-.6-3-.7-4.6-.2-.3.1-.4.4-.3.7l2.4 5.7-5.7-2.4c-.3-.1-.6 0-.7.3-.5 1.5-.4 3.1.2 4.6.7 1.7 2 3 3.6 3.6 1.6.7 3.4.7 5.1 0 1.7-.7 3-2 3.6-3.6.7-1.6.7-3.4 0-5.1-.7-1.7-2-3-3.6-3.6z"/></g></svg>