<svg xmlns="http://www.w3.org/2000/svg" viewBox="66.7 30 66.7 30" enable-background="new 66.7 30 66.7 30"><g fill="#C5C6C7"><path d="M84.8 38.1c-1.8-.7-3.8-.8-5.7 0L82 45l-7-2.9c-.7 1.8-.8 3.8 0 5.7.8 1.9 2.3 3.3 4.1 4.1 1.8.7 3.8.8 5.7 0s3.3-2.3 4.1-4.1c.7-1.8.8-3.8 0-5.7-.9-1.9-2.4-3.3-4.1-4zM121 38.1c-1.8-.7-3.8-.8-5.7 0l2.9 6.9-6.9-2.9c-.7 1.8-.8 3.8 0 5.7.8 1.9 2.3 3.3 4.1 4.1 1.8.7 3.8.8 5.7 0s3.3-2.3 4.1-4.1c.7-1.8.8-3.8 0-5.7-1-1.9-2.5-3.3-4.2-4zM118.1 30.6c-4.4 0-8.2 1.9-10.9 5-.3.4-.7.6-1.2.6h-2c-.6-1.7-2.1-2.9-4-2.9s-3.4 1.2-4 2.9h-2c-.5 0-.9-.2-1.2-.6-2.8-3.2-6.9-5.1-11.4-5-7.3.3-13.3 6.1-13.8 13.4-.6 8.4 6.1 15.4 14.4 15.4 7.9 0 14.4-6.5 14.4-14.4v.4c0-2 1.7-3.7 3.7-3.7s3.7 1.7 3.7 3.7V45c0 8.3 7 14.9 15.4 14.4 7.1-.5 12.8-6.2 13.3-13.3.5-8.5-6.1-15.5-14.4-15.5zM81.9 56.5c-6.3 0-11.5-5.2-11.5-11.5s5.2-11.5 11.5-11.5S93.4 38.7 93.4 45s-5.1 11.5-11.5 11.5zM100 38.8c-.7 0-1.4-.6-1.4-1.4s.6-1.4 1.4-1.4 1.4.6 1.4 1.4-.7 1.4-1.4 1.4zm18.1 17.7c-6.3 0-11.5-5.2-11.5-11.5s5.2-11.5 11.5-11.5 11.5 5.2 11.5 11.5-5.2 11.5-11.5 11.5z"/></g></svg>