<svg width="13" height="16" viewBox="0 0 13 16" xmlns="http://www.w3.org/2000/svg"><title>Imported Layers</title><desc>Created with Sketch.</desc><g fill="none" fill-rule="evenodd"><g fill="#C5C6C7"><g><g><g><path d="M5.592 11.27v1.073c0 .367.304.667.676.667.373 0 .678-.3.678-.667V11.27c.48-.242.812-.73.812-1.298 0-.81-.667-1.466-1.49-1.466-.822 0-1.488.656-1.488 1.466 0 .57.33 1.056.812 1.3"/><path d="M10.36 6.294v-1.66c0-2.22-1.834-4.028-4.09-4.028-2.258 0-4.092 1.807-4.092 4.028v1.66H.123v8.928h12.292V6.294H10.36zm-7.37-1.66c0-1.78 1.47-3.228 3.28-3.228 1.807 0 3.28 1.448 3.28 3.228l-.002 1.66H2.99v-1.66zM.935 7.094h10.668v7.328H.934V7.094z"/></g></g></g></g></g></svg>