<svg width="75" height="75" viewBox="0 0 75 75" xmlns="http://www.w3.org/2000/svg"><title>fg-logo</title><desc>Created with Sketch.</desc><g fill="none" fill-rule="evenodd"><g><g><g><g><path d="M37.5 75C58.21 75 75 58.21 75 37.5S58.21 0 37.5 0 0 16.79 0 37.5 16.79 75 37.5 75z" fill="#F5795B"/><g fill="#892611"><path d="M26.96 33.248c-1.225-.507-2.643-.547-3.964 0l1.98 4.775-4.783-1.978c-.507 1.222-.547 2.637 0 3.956.547 1.32 1.578 2.292 2.803 2.798 1.224.506 2.642.546 3.963 0 1.32-.546 2.294-1.575 2.802-2.797.507-1.22.547-2.636 0-3.955-.548-1.32-1.58-2.29-2.803-2.797"/><path d="M52.003 33.248c-1.224-.507-2.642-.547-3.963 0l1.982 4.775-4.784-1.978c-.508 1.222-.548 2.637 0 3.956.547 1.32 1.578 2.292 2.802 2.798 1.224.506 2.642.546 3.963 0 1.322-.546 2.296-1.575 2.803-2.797.507-1.22.547-2.636 0-3.955-.547-1.32-1.578-2.29-2.803-2.797"/><path d="M50.022 28.08c-3.004 0-5.7 1.335-7.528 3.44-.21.245-.523.38-.846.38h-1.373c-.388-1.16-1.484-2-2.775-2-1.292 0-2.388.84-2.776 2H33.35c-.323 0-.635-.137-.847-.38-1.906-2.196-4.755-3.553-7.913-3.433-5.038.192-9.2 4.207-9.55 9.226-.405 5.803 4.21 10.653 9.937 10.653 5.493 0 9.962-4.46 9.962-9.943v.28c0-1.412 1.145-2.556 2.56-2.556 1.414 0 2.56 1.144 2.56 2.555v-.28c0 5.72 4.86 10.325 10.674 9.92 4.907-.343 8.882-4.31 9.225-9.21.405-5.802-4.21-10.652-9.938-10.652zm-25.045 17.9c-4.394-.002-7.97-3.57-7.97-7.957 0-4.387 3.576-7.956 7.97-7.956 4.395 0 7.97 3.57 7.97 7.956 0 4.387-3.575 7.955-7.97 7.955zM37.5 33.754c-.517 0-.937-.42-.937-.934 0-.516.42-.935.937-.935.516 0 .936.42.936.935 0 .515-.42.934-.936.934zm12.522 12.222c-4.395 0-7.97-3.568-7.97-7.955 0-4.387 3.575-7.956 7.97-7.956s7.97 3.57 7.97 7.956c0 4.387-3.575 7.955-7.97 7.955z"/></g></g></g></g></g></g></svg>