<svg width="9" height="13" viewBox="0 0 9 13" xmlns="http://www.w3.org/2000/svg"><title>DeleteHover</title><desc>Created with Sketch.</desc><g fill="none" fill-rule="evenodd"><g fill="#C5C7C7"><path d="M1.466 12.88H7.8l.478-8.322H.988l.478 8.32zm6.216-7.76l-.414 7.197H1.996L1.582 5.12h6.1z"/><path d="M6.065 1.827L6.117.98 3.3.81l-.05.846-2.817-.17L.33 3.172l8.45.513.103-1.688-2.818-.17zm-2.236-.42l1.69.102-.016.282-1.692-.102.017-.284zM8.253 3.09l-7.33-.444.036-.566 2.256.137 2.816.17 2.256.138-.034.566z"/><path d="M3.222 6.136h.563v5.026H3.22V6.136z"/><path d="M5.48 6.136h.562v5.026H5.48V6.136z"/></g></g></svg>