<svg width="16" height="22" viewBox="0 0 16 22" xmlns="http://www.w3.org/2000/svg"><title>DeleteHover</title><desc>Created with Sketch.</desc><g fill="none" fill-rule="evenodd"><g fill="#C5C6C7"><g><path d="M2.606 21.245h11.258l.852-14.794H1.754l.852 14.795zM13.656 7.45l-.735 12.795H3.55L2.812 7.45h10.844z"/><path d="M10.783 2.596l.09-1.503L5.87.79 5.777 2.29l-5.01-.304-.182 3 15.024.914.182-3.002-5.01-.304zm-3.976-.748l3.008.183-.03.505-3.01-.183.032-.504zm7.866 2.995l-13.028-.79.06-1.007 4.012.244 5.006.304 4.01.243-.06 1.006z"/><path d="M5.728 9.257h1v8.935h-1V9.257z"/><path d="M9.742 9.257h1v8.935h-1V9.257z"/></g></g></g></svg>