<svg width="50" height="54" viewBox="0 0 50 54" xmlns="http://www.w3.org/2000/svg" xmlns:xlink="http://www.w3.org/1999/xlink"><title>Imported Layers Copy 4 + Imported Layers Copy 3 Copy Copy</title><desc>Created with Sketch.</desc><defs><ellipse id="a" cx="25" cy="24.726" rx="25" ry="24.726"/><path id="c" d="M4.182 32.89v-2.613l-.968-.224C1.428 29.64.18 28.087.18 26.273V4.363C.18 2.55 1.428.993 3.214.583l.91-.21.318.118.15.02c.626.075 1.23.3 1.746.654l.125.086 8.42 3.158c1.15.43 2.355.65 3.583.65 1.23 0 2.435-.22 3.584-.65l8.435-3.165.125-.084c.51-.348 1.108-.572 1.73-.65l.147-.017.32-.12.913.207c1.79.41 3.04 1.965 3.04 3.783v21.91c0 1.818-1.25 3.372-3.04 3.782l-.97.222v2.612H4.183z"/><path id="d" d="M.045 18.626L.01 12.65C.01 7.54 2.82 2.81 7.34.312c.053-.03.09-.036.125-.036.505 0 1.533.918 2.283 1.588 1.307 1.167 2.788 2.49 4.548 2.49 1.81 0 3.38-1.21 4.763-2.28.9-.695 1.922-1.484 2.527-1.484.103 0 .19.027.287.088 4.2 2.604 6.706 7.082 6.706 11.978v5.97H.045"/><path id="f" d="M.045 18.626L.01 12.65C.01 7.54 2.82 2.81 7.34.312c.053-.03.09-.036.125-.036.505 0 1.533.918 2.283 1.588 1.307 1.167 2.788 2.49 4.548 2.49 1.81 0 3.38-1.21 4.763-2.28.9-.695 1.922-1.484 2.527-1.484.103 0 .19.027.287.088 4.2 2.604 6.706 7.082 6.706 11.978v5.97H.045"/></defs><g fill="none" fill-rule="evenodd"><g><g><g transform="translate(0 4.274)"><mask id="b"><use xlink:href="#a"/></mask><use fill="#F5A25B" xlink:href="#a"/><g mask="url(#b)"><path d="M12.223 45.045c-1.28 0-2.32-1.028-2.32-2.292V27.04l-.652.013-.046.003c-1.444 0-2.627-1.17-2.627-2.61 0-1.438 1.183-2.61 2.638-2.61l.052.004.637.013v-4.638c0-1.265 1.04-2.293 2.32-2.293h25.182c1.28 0 2.318 1.028 2.318 2.293v4.62l.624.003c1.45.003 2.632 1.173 2.632 2.608s-1.18 2.605-2.632 2.61h-.624v15.697c0 1.264-1.04 2.292-2.318 2.292H12.223" fill="#FCDE98"/><path d="M37.406 15.54c.933 0 1.693.75 1.693 1.675v5.238l1.247.003c1.107.003 2.007.896 2.007 1.99 0 1.095-.9 1.988-2.007 1.99l-1.248.003V42.75c0 .923-.76 1.675-1.694 1.675H12.223c-.933 0-1.693-.752-1.693-1.675V26.41l-1.276.024-.068.002c-1.097-.014-1.984-.9-1.984-1.99 0-1.088.887-1.975 1.984-1.99l.07.003 1.274.023v-5.268c0-.924.76-1.674 1.693-1.674h25.183m0-1.237H12.223c-1.626 0-2.944 1.304-2.944 2.912v4.007l-.066-.003c-1.802 0-3.263 1.444-3.263 3.226 0 1.783 1.462 3.228 3.264 3.228l.065-.003v15.082c0 1.61 1.317 2.912 2.943 2.912h25.183c1.626 0 2.944-1.303 2.944-2.912V27.674c1.798-.005 3.255-1.448 3.255-3.228 0-1.78-1.457-3.223-3.255-3.227v-4.005c0-1.608-1.318-2.912-2.944-2.912" fill="#A1855B"/><path d="M9.896 70.567v-2.74l-.483-.11c-2.072-.478-3.52-2.28-3.52-4.383v-21.91c0-2.104 1.448-3.907 3.52-4.384l.483-.112v-.37l1.037.388.075.01c.726.087 1.426.35 2.025.76l.063.042 8.348 3.13c1.08.406 2.21.61 3.362.61 1.153 0 2.284-.204 3.362-.61l8.365-3.136.062-.043c.593-.403 1.286-.663 2.006-.752l.075-.01 1.04-.39v.37l.486.11c2.076.475 3.527 2.278 3.527 4.385v21.91c0 2.107-1.45 3.91-3.526 4.385l-.484.11v2.74H9.896" fill="#CAA670"/><path d="M39.148 37.432l.912.21c1.79.408 3.04 1.964 3.04 3.78v21.91c0 1.82-1.25 3.374-3.04 3.783l-.97.222v2.612H10.522v-2.613l-.967-.223c-1.787-.412-3.036-1.966-3.036-3.78v-21.91c0-1.815 1.248-3.37 3.035-3.782l.91-.21.175.066.14.054.152.018c.626.076 1.23.302 1.745.654l.125.086.143.053 8.278 3.105c1.15.43 2.354.65 3.583.65 1.23 0 2.435-.22 3.583-.65l8.295-3.112.14-.052.125-.085c.51-.348 1.108-.572 1.728-.65l.15-.017.138-.053.182-.068m1.194-1.77l-1.82.68c-.84.105-1.616.405-2.28.857l-8.296 3.11c-1.012.38-2.076.57-3.14.57s-2.128-.19-3.14-.57l-8.278-3.104c-.67-.458-1.456-.762-2.304-.865l-1.813-.68v.777c-2.292.528-4 2.558-4 4.986v21.91c0 2.43 1.708 4.458 4 4.986v2.866h31.072V68.32c2.296-.524 4.01-2.555 4.01-4.987v-21.91c0-2.43-1.714-4.463-4.01-4.988v-.774" fill="#A1855B"/><g transform="translate(3.698 -3.917) translate(2.642 40.977)"><mask><use xlink:href="#c"/></mask></g><path d="M29.283 38.058l-1.614.535c-.873.29-1.796.58-2.698.58-.37 0-.74-.048-1.097-.167l-1.614-.123h-.237c-.552 0-.826.03-.466.53l.818 1.13c.794.225 1.613.337 2.43.337 1.065 0 2.13-.19 3.14-.57l1.91-.715.132-.183c.41-.567 0-1.354-.704-1.354" fill="#E8CB8B"/><path d="M28.543 41.41l-.154.058c-1.15.43-2.355.65-3.584.65-.457 0-.91-.03-1.36-.09l1.005 1.39v24.24l1.322 1.458 1.355-1.457V43.37l1.416-1.96" fill="#BE9C6A"/><path d="M29.854 39.595l-1.908.716c-1.012.38-2.076.57-3.14.57-.818 0-1.637-.112-2.43-.337l1.07 1.484c.45.06.903.09 1.36.09 1.23 0 2.435-.218 3.583-.65l.153-.057 1.31-1.815" fill="#9B8058"/><path d="M29.38 39.236L25.58 44.5c-.374.52-1.153.52-1.527 0l-3.803-5.264c-.443-.614 0-1.467.764-1.467l1.75.58c1.332.442 2.776.442 4.11 0l1.748-.58c.763 0 1.207.852.763 1.466" fill="#343433"/><path d="M9.622 36.815c-.32-.116-.503-.442-.44-.77l.67-1.815 11.21 4.08-1.236 2.96-10.204-4.455" fill="#A1855B"/><path d="M10.35 35.29l9.61 3.498-.58 1.386-9.33-4.075.3-.81m-.995-2.12l-.975 2.643c-.186.746.225 1.51.954 1.776l10.938 4.777 1.89-4.535L9.355 33.17" fill="#A1855B"/><path d="M28.704 38.285l11.14-4.055.67 1.816c.063.327-.12.653-.44.77l-9.965 4.2-1.406-2.73" fill="#A1855B"/><path d="M39.347 35.29l.298.808-9.146 3.856-.627-1.216 9.474-3.448m.995-2.12l-12.808 4.662 2.185 4.244L40.36 37.59c.73-.266 1.14-1.03.954-1.777l-.974-2.643" fill="#A1855B"/><path d="M26.152 67.368l-1.354 1.457-1.322-1.457V42.28h2.676V67.37" fill="#343433"/><path d="M32.978 23.873c0 .675-.553 1.222-1.235 1.222s-1.235-.547-1.235-1.222c0-.674.553-1.22 1.235-1.22s1.235.546 1.235 1.22" fill="#1A1918"/><path d="M19.215 23.873c0 .675-.553 1.222-1.235 1.222-.683 0-1.236-.547-1.236-1.222 0-.674.553-1.22 1.236-1.22.682 0 1.235.546 1.235 1.22" fill="#1A1918"/><path d="M32.546 55.08c-.115 0-.23-.02-.338-.06l-3.692-1.39c-.115-.044-.193-.155-.193-.277v-5.467c0-.163.134-.296.3-.296h7.848c.166 0 .3.133.3.296v5.467c0 .122-.077.233-.193.276l-3.692 1.39c-.108.04-.223.06-.34.06" fill="#CAA670"/><path d="M36.353 48.003v5.27l-3.617 1.362c-.06.022-.125.034-.19.034s-.13-.013-.19-.035l-3.616-1.363v-5.27h7.613m.118-.824h-7.848c-.395 0-.716.316-.716.708v5.467c0 .294.184.557.462.662l3.692 1.39c.157.06.322.09.487.09.164 0 .33-.03.486-.09l3.692-1.39c.278-.105.462-.368.462-.662v-5.467c0-.392-.32-.708-.716-.708" fill="#A1855B"/><path d="M16.934 55.08c-.116 0-.23-.02-.338-.06l-3.693-1.39c-.115-.044-.192-.155-.192-.277v-5.467c0-.163.135-.296.3-.296h7.848c.165 0 .3.133.3.296v5.467c0 .122-.078.233-.193.276l-3.693 1.39c-.108.04-.222.06-.338.06" fill="#CAA670"/><path d="M20.74 48.003v5.27l-3.616 1.362c-.06.022-.125.034-.19.034s-.13-.013-.19-.035l-3.616-1.363v-5.27h7.612m.118-.824H13.01c-.396 0-.716.316-.716.708v5.467c0 .294.183.557.46.662l3.693 1.39c.157.06.322.09.487.09.165 0 .33-.03.486-.09l3.693-1.39c.278-.105.46-.368.46-.662v-5.467c0-.392-.32-.708-.715-.708" fill="#A1855B"/><path d="M24.827 37.243c-7.127 0-14.7-1.942-14.7-5.54V16.248h.638v10.77c0 .66.26 1.28.73 1.75.474.466 1.102.724 1.77.724H36.38c1.38 0 2.5-1.11 2.5-2.476V16.247h.64V29.49h.008v2.214c0 3.597-7.574 5.54-14.7 5.54" fill="#804526"/><path d="M38.686 29.396v.916h.008v1.392c0 2.6-6.22 4.714-13.867 4.714-7.646 0-13.867-2.115-13.867-4.714v-2.306c.6.568 1.413.918 2.307.918l23.112-.002c.893 0 1.706-.35 2.306-.918m1.668-13.974h-2.307v11.592c0 .91-.746 1.65-1.668 1.65l-23.113.002c-.922 0-1.668-.74-1.668-1.65V15.422H9.29v16.282c0 4.243 7.767 6.364 15.535 6.364s15.535-2.12 15.535-6.364v-3.038h-.008V15.42" fill="#804526"/><path d="M28.038 31.265c.26 1.77-.98 3.414-2.77 3.67-1.79.258-3.45-.968-3.71-2.738 0 0 1.576.186 3.16-.04 1.583-.23 3.32-.892 3.32-.892" fill="#1A1918"/><path d="M27.906 49.353h9.28v.825h-9.28v-.825z" fill="#A1855B"/><path d="M12.276 49.353h9.28v.825h-9.28v-.825z" fill="#A1855B"/><path d="M32.948 48.612c0 .22-.18.397-.4.397-.223 0-.403-.18-.403-.398 0-.22.18-.396.402-.396.22 0 .4.177.4.396" fill="#A1855B"/><path d="M17.318 48.612c0 .22-.18.397-.4.397-.223 0-.403-.18-.403-.398 0-.22.18-.396.402-.396.22 0 .4.177.4.396" fill="#A1855B"/><path d="M9.932 16.29L9.896 9.7c0-5.337 2.93-10.273 7.65-12.88.138-.078.28-.115.43-.115.745 0 1.74.888 2.7 1.747 1.284 1.146 2.61 2.33 4.13 2.33 1.597 0 3.01-1.09 4.38-2.148 1.076-.83 2.092-1.615 2.91-1.615.22 0 .424.058.62.18 4.383 2.718 7 7.392 7 12.502v6.59H9.932" id="Fill-62" fill="#CAA670"/><path d="M17.976-3.914v1.238c.505 0 1.532.918 2.282 1.588 1.307 1.167 2.788 2.49 4.548 2.49 1.81 0 3.38-1.21 4.764-2.28.9-.696 1.923-1.484 2.527-1.484.103 0 .19.025.287.086C36.584.33 39.09 4.807 39.09 9.702v5.97H10.555l-.033-5.97c0-5.115 2.808-9.845 7.33-12.343.052-.03.087-.036.123-.036v-1.238m0 0c-.25 0-.493.06-.735.193C12.485-1.095 9.27 3.932 9.27 9.7l.04 7.208h31.032V9.702c0-5.49-2.913-10.31-7.294-13.026-.31-.193-.627-.276-.95-.276-2.175 0-4.657 3.764-7.292 3.764-2.45 0-4.77-4.077-6.83-4.078" id="Fill-63" fill="#A1855B"/><g id="Group-67" transform="translate(3.698 -3.917) translate(6.813 .963)"><mask id="e"><use xlink:href="#d"/></mask><path d="M7.465.277c-.036 0-.07.006-.125.036-.314.173-.62.358-.916.552 1.02 5.034 4.324 8.722 8.243 8.722 3.802 0 7.026-3.47 8.146-8.275-.303-.222-.616-.434-.94-.634-.098-.06-.183-.087-.286-.087h-.015l-.028.002c-.61.036-1.604.804-2.485 1.483-.792.612-1.644 1.27-2.567 1.72-.69.338-1.422.56-2.197.56-1.01 0-1.93-.436-2.776-1.028-.628-.44-1.216-.965-1.772-1.462C8.998 1.195 7.97.278 7.465.278" id="Fill-64" fill="#BE9C6A" mask="url(#e)"/><path d="M21.544.592c-.61.036-1.604.804-2.485 1.484-.792.61-1.644 1.27-2.567 1.72.923-.45 1.775-1.11 2.566-1.72.88-.68 1.875-1.448 2.484-1.484m.043 0h-.015.015c.103 0 .188.025.286.086.324.2.637.412.94.634-.303-.222-.616-.434-.94-.634-.097-.06-.183-.087-.286-.087M7.465.278c-.036 0-.072.007-.125.036-.314.173-.62.357-.916.552.297-.194.602-.38.916-.552.054-.03.09-.035.125-.035.505 0 1.532.917 2.283 1.587.556.497 1.144 1.023 1.772 1.462-.627-.44-1.216-.965-1.772-1.462C8.998 1.195 7.97.277 7.465.277" id="Fill-66" fill="#9B8058" mask="url(#e)"/></g><path d="M5.478 18.034h35.688c1.64 0 3.165-.83 4.043-2.2l.414-.648c.493-.77.26-1.79-.518-2.277-.778-.49-1.81-.26-2.302.51l-.415.648c-.266.415-.728.666-1.224.666H5.478c-.92 0-1.668.74-1.668 1.65 0 .91.747 1.65 1.668 1.65" id="Fill-68" fill="#A1855B"/><path d="M30.797 44.073v-.883l1.025-.552h1.45l1.024.552v.883c0 .854-.548 1.614-1.363 1.893 0 0-.32.112-.386.178-.087-.085-.387-.178-.387-.178-.815-.28-1.363-1.04-1.363-1.893" id="Fill-69" fill="#EBDC23"/><path d="M12.918 44.048h7.71v1.58h-7.71v-1.58z" id="Fill-70" fill="#343433"/></g></g><g><path d="M9.932 20.565l-.036-6.592c0-5.336 2.93-10.272 7.65-12.88.138-.076.28-.114.43-.114.745 0 1.74.888 2.7 1.746 1.284 1.146 2.61 2.33 4.13 2.33 1.597 0 3.01-1.09 4.38-2.148 1.075-.83 2.09-1.615 2.91-1.615.22 0 .424.06.62.18 4.383 2.72 7 7.393 7 12.503v6.59H9.93" fill="#CAA670"/><path d="M17.976.36V1.6c.504 0 1.532.918 2.282 1.588 1.307 1.167 2.788 2.49 4.548 2.49 1.81 0 3.38-1.21 4.764-2.28.9-.696 1.923-1.484 2.527-1.484.103 0 .19.025.287.086 4.2 2.605 6.706 7.083 6.706 11.978v5.97H10.555l-.033-5.97c0-5.115 2.808-9.845 7.33-12.342.052-.03.087-.036.123-.036V.36m0 0c-.25 0-.493.06-.735.193-4.755 2.628-7.97 7.654-7.97 13.423l.04 7.208h31.032v-7.208c0-5.49-2.913-10.31-7.294-13.026-.31-.193-.627-.276-.95-.276-2.175 0-4.657 3.764-7.292 3.764-2.45 0-4.77-4.077-6.83-4.077" fill="#A1855B"/><g transform="translate(10.51 1.321)"><mask id="g"><use xlink:href="#f"/></mask><path d="M7.465.277c-.036 0-.07.006-.125.036-.314.173-.62.358-.916.552 1.02 5.034 4.324 8.722 8.243 8.722 3.802 0 7.026-3.47 8.146-8.275-.303-.222-.616-.434-.94-.634-.098-.06-.183-.087-.286-.087h-.015l-.028.002c-.61.036-1.604.804-2.485 1.483-.792.612-1.644 1.27-2.567 1.72-.69.338-1.422.56-2.197.56-1.01 0-1.93-.436-2.776-1.028-.628-.44-1.216-.965-1.772-1.462C8.998 1.195 7.97.278 7.465.278" fill="#BE9C6A" mask="url(#g)"/><path d="M21.544.592c-.61.036-1.604.804-2.485 1.484-.792.61-1.644 1.27-2.567 1.72.923-.45 1.775-1.11 2.566-1.72.88-.68 1.875-1.448 2.484-1.484m.043 0h-.015.015c.103 0 .188.025.286.086.324.2.637.412.94.634-.303-.222-.616-.434-.94-.634-.097-.06-.183-.087-.286-.087M7.465.278c-.036 0-.072.007-.125.036-.314.173-.62.357-.916.552.297-.194.602-.38.916-.552.054-.03.09-.035.125-.035.505 0 1.532.917 2.283 1.587.556.497 1.144 1.023 1.772 1.462-.627-.44-1.216-.965-1.772-1.462C8.998 1.195 7.97.277 7.465.277" fill="#9B8058" mask="url(#g)"/></g><path d="M5.478 22.308h35.688c1.64 0 3.165-.83 4.042-2.2l.415-.648c.493-.77.262-1.79-.517-2.277-.778-.488-1.81-.26-2.302.51l-.415.65c-.266.414-.728.665-1.224.665H5.478c-.92 0-1.668.74-1.668 1.65 0 .912.747 1.65 1.668 1.65" fill="#A1855B"/><path d="M30.797 48.348v-.884l1.025-.552h1.45l1.023.552v.884c0 .854-.547 1.613-1.363 1.892 0 0-.32.112-.385.178-.087-.085-.387-.178-.387-.178-.815-.28-1.363-1.038-1.363-1.892" fill="#EBDC23"/><path d="M12.917 48.322h7.712v1.58h-7.713v-1.58z" fill="#343433"/></g></g></g></g></svg>