<svg width="93" height="24" viewBox="0 0 93 24" xmlns="http://www.w3.org/2000/svg"><title>Imported Layers + FIELD GUIDE + GENERATED WITH</title><desc>Created with Sketch.</desc><g fill="none" fill-rule="evenodd"><g><g><g><g fill="#949799"><path d="M6.378 15.886c-.653-.278-1.41-.3-2.114 0l1.057 2.627-2.55-1.088c-.27.672-.292 1.45 0 2.176.292.726.84 1.26 1.494 1.54.653.277 1.41.3 2.114 0 .705-.3 1.224-.867 1.495-1.54.27-.672.292-1.45 0-2.175-.292-.726-.842-1.26-1.495-1.54"/><path d="M19.735 15.886c-.653-.278-1.41-.3-2.114 0l1.058 2.627-2.55-1.088c-.272.672-.293 1.45 0 2.176.29.726.84 1.26 1.493 1.54.654.277 1.41.3 2.115 0 .705-.3 1.224-.867 1.495-1.54.27-.672.292-1.45 0-2.175-.292-.726-.842-1.26-1.495-1.54"/><path d="M18.678 13.044c-1.602 0-3.04.734-4.014 1.893-.113.134-.28.207-.452.207h-.732c-.207-.638-.792-1.1-1.48-1.1-.69 0-1.274.462-1.48 1.1h-.733c-.173 0-.34-.074-.452-.21-1.017-1.206-2.536-1.952-4.22-1.886-2.687.105-4.906 2.314-5.093 5.074-.217 3.192 2.244 5.86 5.3 5.86 2.93 0 5.312-2.454 5.312-5.47v.154c0-.776.612-1.405 1.366-1.405.754 0 1.365.63 1.365 1.406v-.153c0 3.145 2.593 5.678 5.693 5.455 2.617-.19 4.737-2.37 4.92-5.065.216-3.19-2.245-5.86-5.3-5.86zM5.32 22.888c-2.343 0-4.25-1.963-4.25-4.375 0-2.413 1.907-4.376 4.25-4.376 2.345 0 4.252 1.963 4.252 4.376 0 2.412-1.907 4.375-4.25 4.375zM12 16.166c-.276 0-.5-.23-.5-.514 0-.284.224-.514.5-.514.275 0 .5.23.5.514 0 .283-.225.514-.5.514zm6.678 6.722c-2.344 0-4.25-1.963-4.25-4.375 0-2.413 1.906-4.376 4.25-4.376 2.344 0 4.25 1.963 4.25 4.376 0 2.412-1.906 4.375-4.25 4.375z"/></g><path d="M32.508 14.136h-4.596v8.28h1.164V18.84h3.228v-.972h-3.228v-2.76h3.432v-.972zm2.496 0H33.84v8.28h1.164v-8.28zm6.768 7.296h-3.78v-2.88h3.48v-.972h-3.48v-2.472h3.684v-.972h-4.848v8.28h4.944v-.984zm5.508-.012h-2.916v-7.284H43.2v8.28h4.08v-.996zm7.908-3.144c0-1.548-.684-2.508-1.284-3.06s-1.656-1.08-3.096-1.08h-2.496v8.28h2.496c1.44 0 2.496-.528 3.096-1.08.6-.552 1.284-1.512 1.284-3.06zm-1.188 0c0 1.2-.528 1.932-.984 2.364-.456.432-1.2.768-2.208.768h-1.332v-6.276h1.332c1.008 0 1.752.336 2.208.768.456.432.984 1.176.984 2.376zM66.204 18h-3.36v.948h2.232v1.836s-.612.756-2.328.756c-1.728 0-3.084-1.224-3.084-3.264s1.308-3.264 3.012-3.264c1.296 0 2.064.6 2.556 1.176l.792-.732c-.312-.324-1.224-1.44-3.348-1.44-2.352 0-4.212 1.68-4.212 4.26s1.86 4.284 4.224 4.284c2.352 0 3.36-1.188 3.516-1.344V18zm7.932-3.864h-1.164v4.788c0 .684-.012 1.368-.384 1.86-.348.456-.876.732-1.596.732-.72 0-1.26-.276-1.596-.732-.372-.492-.384-1.164-.384-1.86v-4.788h-1.176v4.896c0 1.032.096 1.848.672 2.52.552.648 1.38 1.008 2.484 1.008 1.092 0 1.92-.36 2.484-1.008.564-.672.66-1.488.66-2.52v-4.896zm2.928 0H75.9v8.28h1.164v-8.28zm8.7 4.14c0-1.548-.684-2.508-1.284-3.06s-1.656-1.08-3.096-1.08h-2.496v8.28h2.496c1.44 0 2.496-.528 3.096-1.08.6-.552 1.284-1.512 1.284-3.06zm-1.188 0c0 1.2-.528 1.932-.984 2.364-.456.432-1.2.768-2.208.768h-1.332v-6.276h1.332c1.008 0 1.752.336 2.208.768.456.432.984 1.176.984 2.376zm7.488 3.156h-3.78v-2.88h3.48v-.972h-3.48v-2.472h3.684v-.972H87.12v8.28h4.944v-.984z" fill="#949799"/><path d="M6.75 3.906H4.1v.49h2.12v1.87s-.62.76-2.27.76S1 5.866 1 3.966c0-1.9 1.25-3.06 2.87-3.06 1.18 0 1.88.51 2.38 1.11l.37-.4c-.26-.3-1.02-1.2-2.75-1.2-1.97 0-3.45 1.5-3.45 3.55s1.48 3.57 3.48 3.57 2.85-1.07 2.85-1.07v-2.56zm6.62 3.02h-3.28v-2.93h3.03v-.49h-3.03v-2.5h3.21v-.49H9.55v6.9h3.82v-.49zm8.16-6.41h-.54v5.95L16.44.516h-.54v6.9h.54v-6.05l4.6 6.05h.49v-6.9zm6.72 6.41h-3.28v-2.93H28v-.49h-3.03v-2.5h3.21v-.49h-3.75v6.9h3.82v-.49zm4.58-2.73c.87-.13 1.7-.68 1.7-1.83s-.85-1.85-2.15-1.85h-1.6v6.9h.54v-3.2h.88l2.04 3.2h.69l-2.1-3.22zm1.13-1.83c0 .45-.13.8-.51 1.08-.37.27-.82.28-1.37.28h-.76v-2.72h.76c.55 0 1 .01 1.37.29.38.27.51.62.51 1.07zm5.47-1.87h-.3l-2.95 6.92h.57l.86-2.07h3.29l.85 2.07h.63L39.43.496zm-1.62 4.35l1.44-3.53 1.44 3.53h-2.88zm9.66-4.33h-4.64v.49h2.05v6.41h.54v-6.41h2.05v-.49zm5.97 6.41h-3.28v-2.93h3.03v-.49h-3.03v-2.5h3.21v-.49h-3.75v6.9h3.82v-.49zm8-2.96c0-1.25-.6-2.05-1.05-2.5-.45-.45-1.32-.95-2.52-.95h-1.9v6.9h1.9c1.2 0 2.07-.5 2.52-.95.45-.45 1.05-1.25 1.05-2.5zm-.56 0c0 1.1-.52 1.82-.96 2.23-.44.41-1.15.73-2.1.73h-1.31v-5.92h1.31c.95 0 1.66.33 2.1.74.44.41.96 1.12.96 2.22zM74.67.516l-1.73 5.98-1.85-5.98h-.57l-1.85 5.98-1.73-5.98h-.57l2.02 6.91h.5l1.91-6.13 1.92 6.13h.5l2.02-6.91h-.57zm3.26 0h-.54v6.9h.54v-6.9zm6.79 0h-4.64v.49h2.05v6.41h.54v-6.41h2.05v-.49zm7.5 0h-.54v2.96h-4.27V.516h-.54v6.9h.54v-3.45h4.27v3.45h.54v-6.9z" fill="#D8DADB"/></g></g></g></g></svg>