<svg width="40" height="26" viewBox="0 0 40 26" xmlns="http://www.w3.org/2000/svg"><title>hidden</title><desc>Created with Sketch.</desc><g fill="none" fill-rule="evenodd"><path d="M28.67 5.393c.006-.04-.005-.084-.032-.13 3.408 1.74 6.243 4.368 8.505 7.88l-.04.06.04.06c-2.262 3.512-5.097 6.14-8.505 7.88l.094-.163C26.02 22.422 23.11 23.143 20 23.143c-3.11 0-6.02-.72-8.732-2.163.03.055.062.11.094.163-3.408-1.74-6.243-4.368-8.505-7.88l.04-.06-.04-.06c2.262-3.512 5.097-6.14 8.505-7.88-.027.046-.035.088-.027.128 2.693-1.418 5.58-2.127 8.665-2.127 3.086 0 5.976.71 8.67 2.13zm10.884 9.29c-2.084 3.423-4.885 6.164-8.404 8.225C27.63 24.97 23.914 26 20 26c-3.914 0-7.63-1.034-11.15-3.103C5.33 20.83 2.53 18.09.446 14.683.15 14.163 0 13.65 0 13.143s.15-1.02.446-1.54C2.53 8.195 5.33 5.457 8.85 3.388 12.37 1.32 16.086.286 20 .286c3.914 0 7.63 1.034 11.15 3.102 3.52 2.07 6.32 4.807 8.404 8.215.297.52.446 1.034.446 1.54s-.15 1.02-.446 1.54z" fill="#999"/></g></svg>