<svg width="14" height="12" viewBox="0 0 14 12" xmlns="http://www.w3.org/2000/svg"><title>Shape</title><desc>Created with Sketch.</desc><g fill="none" fill-rule="evenodd"><g fill="#fff"><g><path d="M12.188 8.618H4.955l-.088.06-2.004 1.397.53.266V8.62H.337l.336.327V.327L.336.654h11.852l-.336-.327v8.618l.336-.327zm0 .654h.336V0H0v9.272h3.058l-.336-.327v2.033l.532-.37L5.258 9.21l-.195.062h7.125zm-6.526 1.476h4.81l-.195-.06 1.354.942.532.37V10.42l-.336.328H14V4.603h-.672v5.82l.336-.328H11.49v1.271l.532-.266-1.354-.943-.088-.06H5.663v.653z"/></g></g></g></svg>