<svg width="10" height="16" viewBox="0 0 10 16" xmlns="http://www.w3.org/2000/svg"><title>Imported Layers Copy</title><desc>Created with Sketch.</desc><g fill="none" fill-rule="evenodd"><g fill="#C5C6C7"><g><g><path d="M4.616 11.185c1.607 0 2.917-1.308 2.917-2.917v-4.42c0-1.607-1.31-2.915-2.917-2.915C3.008.933 1.7 2.24 1.7 3.848v4.42c0 1.61 1.307 2.917 2.916 2.917zM2.533 3.848c0-1.148.934-2.082 2.083-2.082 1.15 0 2.083.934 2.083 2.082v4.42c0 1.15-.935 2.084-2.084 2.084-1.15 0-2.083-.934-2.083-2.084v-4.42z"/><path d="M8.366 6.81v1.308c0 2.104-1.683 3.818-3.75 3.818-2.068 0-3.75-1.713-3.75-3.82V6.81H.032v1.308c0 2.42 1.835 4.415 4.167 4.63v1.69H2.115v.835h5v-.834H5.033v-1.692c2.33-.215 4.166-2.21 4.166-4.63v-1.31h-.834"/></g></g></g></g></svg>