<svg width="1440" height="823" viewBox="0 0 1440 823" xmlns="http://www.w3.org/2000/svg" xmlns:xlink="http://www.w3.org/1999/xlink"><title>Triangle 3 + Rectangle 11 + Triangle 3 + Rectangle 11 Copy 2 + Triangle 3 + Rectangle 11 Copy + Rectangle 496 + Group + iPhone 4 Copy</title><desc>Created with Sketch.</desc><defs><path id="a" d="M0 0h1559v878H0z"/><path id="c" d="M352.747-7.837l352.747 705.32H0z"/><path id="e" d="M286.348-6.37l286.348 573.397H0z"/><path id="g" d="M241.887-5.36l241.888 482.317H0z"/><path id="i" d="M143.708-3.184l143.708 286.55H0z"/><path id="k" d="M412.57-9.14l412.57 822.65H0z"/></defs><g fill="none" fill-rule="evenodd"><g><g transform="translate(0 -201) translate(-22 169)"><mask id="b"><use xlink:href="#a"/></mask><use id="Mask" opacity=".34" xlink:href="#a"/><g mask="url(#b)"><g><path id="Triangle-3" stroke="#F3F3F3" stroke-width="3.025" d="M719.688 152.708l352.747 705.32H366.94z"/><g id="Rectangle-10" transform="translate(366.941 160.545)"><mask id="d"><use xlink:href="#c"/></mask><use id="Mask" xlink:href="#c"/><path d="M58.79-180.25l168.536 540.747 172.454-129.31 52.912 45.064 199.89-456.5H58.792z" stroke="#F3F3F3" stroke-width="3.025" mask="url(#d)"/></g></g><g><path id="Triangle-3" stroke="#F3F3F3" stroke-width="3.025" d="M1042.844 285.606l286.348 572.555H756.496z"/><g id="Rectangle-10" transform="translate(756.496 291.509)"><mask id="f"><use xlink:href="#e"/></mask><use id="Mask" xlink:href="#e"/><path d="M47.725-146.535l109.717 404.283 57.073-45.253 19.68 45.253 74.785-80.67 58.5 47.503 162.264-371.115H47.724z" stroke="#F3F3F3" stroke-width="3.025" mask="url(#f)"/></g></g><g><path id="Triangle-3" stroke="#F3F3F3" stroke-width="2.593" d="M417.977 376.35l241.888 482.315H176.09z"/><g id="Rectangle-10" transform="translate(176.09 381.708)"><mask id="h"><use xlink:href="#g"/></mask><use id="Mask" xlink:href="#g"/><path d="M40.315-123.26l115.568 369.777 118.256-88.424 36.282 30.814 137.07-312.166H40.315z" stroke="#F3F3F3" stroke-width="2.593" mask="url(#h)"/></g></g><g><path id="Triangle-3" stroke="#F3F3F3" stroke-width="2.593" d="M144.702 573.163l143.708 286.55H.994z"/><g id="Rectangle-10" transform="translate(.994 576.347)"><mask id="j"><use xlink:href="#i"/></mask><use id="Mask" xlink:href="#i"/><path d="M23.95-73.23l68.662 219.69 70.257-52.535 21.555 18.307 81.435-185.46H23.95z" stroke="#F3F3F3" stroke-width="2.593" mask="url(#j)"/></g></g><g><path stroke="#F3F3F3" stroke-width="2.593" d="M1412.804 35.068l412.57 822.65h-825.14z"/><g transform="translate(1000.235 44.209)"><mask id="l"><use xlink:href="#k"/></mask><use xlink:href="#k"/><path d="M68.762-210.233l197.116 630.7 201.7-150.82 61.886 52.558 233.79-532.438H68.76z" stroke="#F3F3F3" stroke-width="2.593" mask="url(#l)"/></g></g></g></g></g></g></svg>