<svg width="12" height="17" viewBox="0 0 12 17" xmlns="http://www.w3.org/2000/svg"><title>Imported Layers Copy 5</title><desc>Created with Sketch.</desc><g fill="none" fill-rule="evenodd"><g><g><g><path d="M9.513 16.565h-6.67c-.86 0-1.564-.713-1.564-1.583V2.766c0-.87.703-1.582 1.563-1.582h6.67c.86 0 1.564.712 1.564 1.582v12.216c0 .87-.704 1.583-1.564 1.583zM1.28 12.412h9.797H1.28zm0-8.97h9.797H1.28z" stroke="#C5C7C7" stroke-width=".8"/><path d="M6.984 14.462c0 .45-.36.812-.806.812-.445 0-.806-.363-.806-.812 0-.448.36-.81.806-.81.445 0 .806.362.806.81" fill="#C5C7C7"/></g></g></g></g></svg>