<svg xmlns="http://www.w3.org/2000/svg" viewBox="0 0 40 34" enable-background="new 0 0 40 34"><path fill="#33A544" d="M12.9 6.5C12.9 2.9 10 0 6.4 0 2.9 0 0 2.9 0 6.5S2.9 13 6.5 13c3.6-.1 6.4-2.9 6.4-6.5zM35.7 20c-.7-.6-1.5-.9-2.4-.9-1.2 0-2.3.5-3.1 1.5-2.6 3.3-6.4 4.9-10.2 4.9-3.8 0-7.6-1.6-10.2-4.9-.8-1-2-1.6-3.1-1.6-.9 0-1.7.3-2.5.9-1 .8-1.5 1.9-1.5 3.1 0 .9.3 1.7.9 2.5 4.2 5.2 10.3 7.9 16.4 7.9 6 0 12.2-2.7 16.3-7.9.6-.7.9-1.6.9-2.5 0-1.2-.5-2.3-1.5-3zM33.5 0C29.9 0 27 2.9 27 6.5s2.9 6.5 6.5 6.5S40 10.1 40 6.5 37.1 0 33.5 0z"/></svg>