<svg xmlns="http://www.w3.org/2000/svg" viewBox="0 0 40 34" enable-background="new 0 0 40 34"><path fill="#EF4123" d="M12.9 6.5C12.9 2.9 10 0 6.5 0 2.9 0 0 2.9 0 6.5S2.9 13 6.5 13c3.5-.1 6.4-3 6.4-6.5zM33.5 0C29.9 0 27 2.9 27 6.5s2.9 6.4 6.5 6.5c3.6 0 6.5-2.9 6.5-6.5S37.1 0 33.5 0zM20 18.1c-6.1 0-12.1 2.6-16.3 7.8-.6.7-.8 1.5-.8 2.4 0 1.1.5 2.2 1.4 3 .7.5 1.6.7 2.4.7 1.1 0 2.2-.5 2.9-1.4 2.7-3.3 6.5-4.9 10.3-4.9 3.9 0 7.7 1.6 10.3 4.9.8.9 1.9 1.4 3 1.4.8 0 1.7-.3 2.4-.8.9-.8 1.4-1.8 1.4-3 0-.8-.3-1.7-.8-2.4-4.1-5.1-10.2-7.7-16.2-7.7z"/></svg>