<svg xmlns="http://www.w3.org/2000/svg" width="60" height="60" viewBox="0.5 30.5 60 60" enable-background="new 0.5 30.5 60 60"><path fill="#231F20" d="M60.5 60.5c0-16.472-13.277-29.845-29.715-30C14.308 30.35.672 43.71.502 60.186.344 75.517 11.69 88.23 26.438 90.228c1.057.142 1.995-.692 1.995-1.76V70.8c0-.498.33-1.145.73-1.438l1.733-1.263c.4-.294.323-.535-.173-.535h-20.08c-.497 0-.64-.31-.32-.69l4.82-5.685c.322-.38.322-1 0-1.38l-4.82-5.684c-.32-.38-.177-.69.32-.69h16.884c.498 0 .906-.408.906-.904v-6.91c0-.496.406-.902.904-.902h2.325c.498 0 .904.406.904.902v6.91c0 .496.41.905.907.905h12.705c.498 0 1.168.31 1.49.69l4.816 5.683c.323.38.323 1.002 0 1.38l-4.816 5.686c-.322.38-.992.69-1.49.69H33.473c-.498 0-.907.408-.907.904v19.998c0 1.068.942 1.902 2 1.758C49.21 88.24 60.5 75.69 60.5 60.5"/></svg>