<svg xmlns="http://www.w3.org/2000/svg" width="30" height="30" viewBox="0 0 30 30"><path fill="#fff" d="M30 15C30 6.764 23.36.077 15.143 0 6.903-.076.086 6.603 0 14.84c-.078 7.668 5.595 14.024 12.97 15.023.528.07.997-.346.997-.88V20.15c0-.25.165-.573.365-.72l.867-.632c.2-.146.16-.267-.088-.267H5.072c-.25 0-.32-.154-.16-.344l2.41-2.843c.16-.19.16-.5 0-.69l-2.41-2.842c-.16-.19-.088-.344.16-.344h8.443c.25 0 .453-.204.453-.452V7.56c0-.248.203-.45.452-.45h1.163c.25 0 .452.202.452.45v3.456c0 .25.204.452.453.452h6.353c.25 0 .585.155.746.345l2.408 2.842c.16.19.16.5 0 .69l-2.408 2.843c-.16.19-.496.345-.745.345H16.49c-.25 0-.453.204-.453.452v10c0 .533.47.95 1 .878C24.355 28.87 30 22.595 30 15"/></svg>