<svg xmlns="http://www.w3.org/2000/svg" viewBox="0 0 42 27" enable-background="new 0 0 42 27"><path fill="#989898" d="M41.5 11.9c-2.2-3.6-5.1-6.5-8.8-8.6C29 1.1 25.1 0 21 0S13 1.1 9.3 3.3c-3.7 2.2-6.6 5-8.8 8.6-.3.5-.5 1.1-.5 1.6s.2 1.1.5 1.6c2.2 3.6 5.1 6.5 8.8 8.6C13 25.9 16.9 27 21 27s8-1.1 11.7-3.2c3.7-2.2 6.6-5 8.8-8.6.3-.5.5-1.1.5-1.6 0-.6-.2-1.2-.5-1.7zM16 5.5c1.4-1.4 3.1-2.1 5-2.1.3 0 .6.1.8.3.2.2.3.5.3.8 0 .3-.1.6-.3.8-.2.2-.5.3-.8.3-1.3 0-2.5.5-3.4 1.4-1 1-1.4 2.1-1.4 3.4 0 .3-.1.6-.3.8-.2.2-.5.3-.8.3-.3 0-.6-.1-.8-.3-.2-.2-.3-.5-.3-.8-.1-1.9.6-3.5 2-4.9zm15.2 15.7C28.1 23.1 24.7 24 21 24c-3.7 0-7-.9-10.2-2.8-3.1-1.9-5.7-4.4-7.8-7.7 2.4-3.7 5.4-6.4 8.9-8.3-1 1.6-1.4 3.4-1.4 5.3 0 2.9 1 5.4 3.1 7.4 2 2.1 4.5 3.1 7.4 3.1 2.9 0 5.4-1 7.4-3.1s3.1-4.5 3.1-7.4c0-1.9-.5-3.6-1.4-5.3 3.6 1.8 6.6 4.6 8.9 8.3-2.1 3.2-4.7 5.8-7.8 7.7zm0 0"/></svg>