<svg xmlns="http://www.w3.org/2000/svg" viewBox="0 0 40 40" enable-background="new 0 0 40 40"><path fill="#72CADA" d="M3.8 21.1c-1.5 0-2.7-.9-3.1-2.2v-.2c-.5-1.7.5-3.5 2.2-4.1l27.6-9.2c.3-.1.7-.1 1-.1 1.5 0 2.8.9 3.2 2.3v.1c.5 1.8-.8 3.4-2.3 3.9 0 0-.3.1-27.5 9.4-.3.1-.7.1-1.1.1z"/><path fill="#DF1766" d="M8.4 34.7c-1.5 0-2.7-.8-3.2-2.2v-.2c-.5-1.8.5-3.6 2.2-4.2L35 18.9c.4-.1.7-.2 1.1-.2 1.5 0 2.8.9 3.2 2.2v.1c.3.9.1 2-.4 2.8-.4.6-1.6 1.2-1.6 1.2L9.6 34.5c-.4.1-.8.2-1.2.2z"/><path fill="#E8A725" d="M31.4 34.8c-1.5 0-2.8-.9-3.2-2.3L18.9 5.1v-.2c-.5-1.7.5-3.6 2.2-4.1.3-.1.7-.2 1.1-.2.5 0 1 .1 1.5.4.8.4 1.4 1.1 1.7 2l9.2 27.4v.1c.5 1.8-.4 3.6-2.2 4.2-.3 0-.6.1-1 .1z"/><path fill="#3FB890" d="M17.7 39.4c-1.5 0-2.8-.9-3.2-2.3L5.2 9.7v-.2c-.5-1.7.5-3.5 2.2-4.1.3-.1.7-.2 1.1-.2 1.5 0 2.8.9 3.2 2.3l9.2 27.4v.2c.5 1.7-.5 3.6-2.2 4.1-.3.1-.6.2-1 .2z"/><path fill="#CC2128" d="M26.9 28.6l6.4-2.2-2.1-6.2-6.4 2.2z"/><path fill="#361538" d="M13.2 33.3l6.4-2.2-2.1-6.3-6.4 2.2z"/><path fill="#66873A" d="M22.3 15c2.9-1 5-1.7 6.4-2.2l-2.1-6.2-6.4 2.2 2.1 6.2z"/><path fill="#1E937D" d="M8.6 19.7c2.4-.8 4.5-1.5 6.4-2.2l-2.1-6.2-6.4 2.2 2.1 6.2z"/></svg>