<?xml version="1.0" encoding="utf-8"?>
<!-- Generator: Adobe Illustrator 16.0.0, SVG Export Plug-In . SVG Version: 6.00 Build 0)  -->
<!DOCTYPE svg PUBLIC "-//W3C//DTD SVG 1.1//EN" "http://www.w3.org/Graphics/SVG/1.1/DTD/svg11.dtd">
<svg version="1.1" id="Layer_1" xmlns="http://www.w3.org/2000/svg" xmlns:xlink="http://www.w3.org/1999/xlink" x="0px" y="0px"
	 width="20px" height="20px" viewBox="0 0 20 20" enable-background="new 0 0 20 20" xml:space="preserve">
<path d="M16.25,0H3.75C2.986,0,2.361,0.625,2.361,1.389v17.223C2.361,19.375,2.986,20,3.75,20h12.5c0.764,0,1.389-0.625,1.389-1.389
	V1.389C17.639,0.625,17.014,0,16.25,0z M10.438,18.974H9.562c-0.384,0-0.694-0.312-0.694-0.694c0-0.384,0.311-0.694,0.694-0.694
	h0.875c0.384,0,0.694,0.311,0.694,0.694C11.132,18.662,10.821,18.974,10.438,18.974z M16.25,16.667H3.75V3.334h12.5V16.667z"/>
<g>
</g>
<g>
</g>
<g>
</g>
<g>
</g>
<g>
</g>
<g>
</g>
</svg>
