<?xml version="1.0" encoding="utf-8"?>
<!-- Generator: Adobe Illustrator 16.0.0, SVG Export Plug-In . SVG Version: 6.00 Build 0)  -->
<!DOCTYPE svg PUBLIC "-//W3C//DTD SVG 1.1//EN" "http://www.w3.org/Graphics/SVG/1.1/DTD/svg11.dtd">
<svg version="1.1" id="Layer_1" xmlns="http://www.w3.org/2000/svg" xmlns:xlink="http://www.w3.org/1999/xlink" x="0px" y="0px"
	 width="20px" height="20px" viewBox="0 0 20 20" enable-background="new 0 0 20 20" xml:space="preserve">
<path d="M14.861,0H5.139C4.375,0,3.75,0.625,3.75,1.389v17.223C3.75,19.375,4.375,20,5.139,20h9.723
	c0.764,0,1.389-0.625,1.389-1.389V1.389C16.25,0.625,15.625,0,14.861,0z M11.666,18.703H8.333c-0.384,0-0.695-0.311-0.695-0.694
	c0-0.383,0.311-0.694,0.695-0.694h3.333c0.385,0,0.695,0.312,0.695,0.694C12.361,18.393,12.051,18.703,11.666,18.703z
	 M14.861,16.111H5.139V2.222h9.723V16.111z"/>
<g>
</g>
<g>
</g>
<g>
</g>
<g>
</g>
<g>
</g>
<g>
</g>
</svg>
